<?xml version="1.0" encoding="utf-8"?>
<!-- Generator: Adobe Illustrator 18.0.0, SVG Export Plug-In . SVG Version: 6.00 Build 0)  -->
<!DOCTYPE svg PUBLIC "-//W3C//DTD SVG 1.1//EN" "http://www.w3.org/Graphics/SVG/1.1/DTD/svg11.dtd">
<svg version="1.1" id="Layer_1" xmlns="http://www.w3.org/2000/svg" xmlns:xlink="http://www.w3.org/1999/xlink" x="0px" y="0px"
	 viewBox="0 0 1280 800" enable-background="new 0 0 1280 800" xml:space="preserve">
<circle fill="none" stroke="#000000" stroke-width="2" stroke-miterlimit="10" cx="640.2" cy="399.9" r="375"/>
<line fill="none" stroke="#000000" stroke-width="2" stroke-miterlimit="10" x1="640" y1="54" x2="640" y2="132"/>
<line fill="none" stroke="#000000" stroke-width="2" stroke-miterlimit="10" x1="640" y1="667" x2="640" y2="745"/>
<line fill="none" stroke="#000000" stroke-width="2" stroke-miterlimit="10" x1="294" y1="407" x2="372" y2="407"/>
<line fill="none" stroke="#000000" stroke-width="2" stroke-miterlimit="10" x1="907" y1="407" x2="985" y2="407"/>
<line fill="none" stroke="#000000" stroke-miterlimit="10" x1="835.6" y1="121.1" x2="817.2" y2="148"/>
<line fill="none" stroke="#000000" stroke-miterlimit="10" x1="463.4" y1="656.4" x2="445" y2="683.3"/>
<line fill="none" stroke="#000000" stroke-miterlimit="10" x1="942.4" y1="248.1" x2="913.7" y2="263.5"/>
<line fill="none" stroke="#000000" stroke-miterlimit="10" x1="364.9" y1="550.9" x2="336.2" y2="566.3"/>
<line fill="none" stroke="#000000" stroke-miterlimit="10" x1="341.6" y1="237.2" x2="370" y2="253"/>
<line fill="none" stroke="#000000" stroke-miterlimit="10" x1="908.4" y1="559.4" x2="936.8" y2="575.2"/>
<line fill="none" stroke="#000000" stroke-miterlimit="10" x1="458.4" y1="119.4" x2="476.3" y2="146.5"/>
<line fill="none" stroke="#000000" stroke-miterlimit="10" x1="812.3" y1="667" x2="830.2" y2="694.1"/>
<line fill="none" stroke="#000000" stroke-width="8" stroke-miterlimit="10" x1="640" y1="407" x2="804.1" y2="507.2"/>
<line fill="none" stroke="#000000" stroke-width="8" stroke-miterlimit="10" x1="640.2" y1="411.5" x2="757.3" y2="188"/>
</svg>
