<?xml version="1.0" encoding="utf-8"?>
<!-- Generator: Adobe Illustrator 18.0.0, SVG Export Plug-In . SVG Version: 6.00 Build 0)  -->
<!DOCTYPE svg PUBLIC "-//W3C//DTD SVG 1.1//EN" "http://www.w3.org/Graphics/SVG/1.1/DTD/svg11.dtd">
<svg version="1.1" id="Layer_1" xmlns="http://www.w3.org/2000/svg" xmlns:xlink="http://www.w3.org/1999/xlink" x="0px" y="0px"
	 viewBox="0 0 1279.9 892" enable-background="new 0 0 1279.9 892" xml:space="preserve">
<path fill="#CCCCCC" d="M1280,37H0V8c0-4.4,3.6-8,8.1-8h1264c4.5,0,8,3.6,8,8V37z"/>
<circle opacity="0.71" fill="#E74C3C" cx="20.9" cy="20" r="7.5"/>
<circle opacity="0.71" fill="#F1C40F" cx="45.5" cy="20" r="7.5"/>
<circle opacity="0.71" fill="#2ECC71" cx="70.2" cy="20" r="7.5"/>
<path fill="#E6E6E6" d="M266.9,14.4c-0.6-1.9-2.1-3.4-4.8-3.4H116.7c-2.6,0-4.2,1.5-4.8,3.4l-6.4,20c-0.5,1.6-3.2,2.6-3.2,2.6h174.2
	c0,0-2.6-0.9-3.2-2.6L266.9,14.4z"/>
<path fill="#F2F2F2" d="M1280,882.1c0,5.4-3.9,9.9-8.9,9.9H9c-4.9,0-9-4.6-9-9.9V70h1280V882.1z"/>
<rect y="37" fill="#E6E6E6" width="1280" height="33"/>
</svg>
