<?xml version="1.0" encoding="utf-8"?>
<!-- Generator: Adobe Illustrator 16.0.4, SVG Export Plug-In . SVG Version: 6.00 Build 0)  -->
<!DOCTYPE svg PUBLIC "-//W3C//DTD SVG 1.1//EN" "http://www.w3.org/Graphics/SVG/1.1/DTD/svg11.dtd">
<svg version="1.1" id="Layer_1" xmlns="http://www.w3.org/2000/svg" xmlns:xlink="http://www.w3.org/1999/xlink" x="0px" y="0px"
	 width="1024px" height="768px" viewBox="0 0 1024 768" enable-background="new 0 0 1024 768" xml:space="preserve">
<g id="Capa_25">
	<path fill="#2D2D2D" d="M511.975,167C392.354,167,295,264.345,295,384s97.354,217,216.975,217C631.646,601,729,503.655,729,384
		S631.646,167,511.975,167z M700.536,303.328l-13.19-3.92l-16.546-19.61l-4.907,0.605l10.002,14.254l-8.354,9.172l-0.835-8.342
		c0,0-10.8-14.177-11.659-16.673c-0.836-2.501-31.436,26.723-31.436,26.723l25.133-0.615l5.51,7.964l28.21,1.233l24.29,5.79
		c6.662,20.19,10.379,41.695,10.379,64.087c0,35.732-9.214,69.342-25.354,98.637l-17.898,2.479l-12.893-30.333l-3.657-62.498
		l-48.715,0.903l-21.149-34.937l21.149-47.799l11.007-4.599l-10.1-6.438l1.83-16.555l16.534-5.518l-0.907-12.863l27.578-24.824
		l-0.817-3.56C673.517,255.042,689.597,277.814,700.536,303.328z M494.496,588.251c-0.288-0.025-0.615-0.017-0.903-0.046l0.996-1.03
		L494.496,588.251z M582.644,191.667c2.806,1.038,5.7,1.945,8.46,3.103l-13.787,4.42L582.644,191.667z M636.174,248.841
		l-16.551,9.197l-2.755-11.036l-9.197,3.675l-4.607-11.957l16.551-21.148L636.174,248.841z M550.526,182.622l-24.685,37.708
		l-19.301-18.381l-1.594-22.734c2.353-0.072,4.671-0.356,7.027-0.356C525.173,178.858,538.031,180.228,550.526,182.622z
		 M482.15,181.287l-5.938,28.023l-30.367-14.728l-0.924-4.226C456.868,186.204,469.312,183.173,482.15,181.287z M411.833,205.145
		l-5.543,7.841l31.295,30.333l10.104-10.104l-1.848-22.997l34.042,8.294l23.887,47.809l-49.639,25.734l-16.547,29.422l2.768,14.707
		l-37.721-8.265l-3.675,19.301l22.073-3.683l13.796,28.503l11.956,2.768l20.226-6.447l45.053,21.158l36.78,23.925l-12.877,39.514
		l-45.977,41.365l-22.073,47.808l3.679,12.876l-19.289-13.791l5.506-97.464l-21.132-36.763l8.239-24.815l-11.011-1.839
		l-21.166-16.559l-33.084-11.952L333.7,297.568l0.398-15.278C352.599,250.087,379.49,223.353,411.833,205.145z M467.011,355.493
		l-37.699-10.121l23.921-2.759L467.011,355.493z"/>
</g>
<g>
	<path fill="#3C948B" d="M382.719,496.693c-2.596-4.022-5.742-6.635-10.24-8.114c0,0-3.393-1.745-12.26-1.745
		c-8.87,0-12.263,1.745-12.263,1.745c-4.498,1.495-7.644,4.092-10.243,8.114c-1.028,1.583-1.585,4.767-1.622,6.469
		c0.014,0.442,0,0.956,0,1.468v2.935v-2.025c0,3.244,2.214,5.869,4.945,5.869h38.354c2.734,0,4.945-2.625,4.945-5.869v2.025v-2.935
		c0-0.512-0.009-1.025,0-1.468C384.302,501.46,383.748,498.276,382.719,496.693"/>
	<circle fill="#3C948B" cx="360.214" cy="470.924" r="13.078"/>
</g>
<g>
	<path fill="#3C948B" d="M382.719,299.497c-2.596-4.022-5.742-6.635-10.24-8.114c0,0-3.393-1.745-12.26-1.745
		c-8.87,0-12.263,1.745-12.263,1.745c-4.498,1.495-7.644,4.092-10.243,8.114c-1.028,1.583-1.585,4.767-1.622,6.469
		c0.014,0.442,0,0.956,0,1.468v2.935v-2.025c0,3.244,2.214,5.869,4.945,5.869h38.354c2.734,0,4.945-2.625,4.945-5.869v2.025v-2.935
		c0-0.512-0.009-1.025,0-1.468C384.302,304.264,383.748,301.08,382.719,299.497"/>
	<circle fill="#3C948B" cx="360.214" cy="273.728" r="13.078"/>
</g>
<g>
	<path fill="#3C948B" d="M534.505,469.912c-2.597-4.022-5.741-6.635-10.239-8.114c0,0-3.394-1.745-12.261-1.745
		c-8.87,0-12.263,1.745-12.263,1.745c-4.498,1.495-7.644,4.092-10.243,8.114c-1.028,1.583-1.585,4.767-1.622,6.469
		c0.014,0.442,0,0.956,0,1.468v2.935v-2.025c0,3.244,2.214,5.869,4.945,5.869h38.354c2.734,0,4.945-2.625,4.945-5.869v2.025v-2.935
		c0-0.512-0.009-1.025,0-1.468C536.088,474.679,535.533,471.495,534.505,469.912"/>
	<circle fill="#3C948B" cx="512" cy="444.143" r="13.078"/>
</g>
<g>
	<path fill="#3C948B" d="M558.627,225.651c-2.596-4.022-5.741-6.635-10.239-8.114c0,0-3.394-1.745-12.261-1.745
		c-8.869,0-12.263,1.745-12.263,1.745c-4.498,1.495-7.644,4.092-10.243,8.114c-1.027,1.583-1.585,4.767-1.621,6.469
		c0.014,0.442,0,0.956,0,1.468v2.935v-2.025c0,3.244,2.214,5.869,4.945,5.869h38.354c2.734,0,4.945-2.625,4.945-5.869v2.025v-2.935
		c0-0.512-0.009-1.025,0-1.468C560.211,230.418,559.656,227.234,558.627,225.651"/>
	<circle fill="#3C948B" cx="536.123" cy="199.882" r="13.079"/>
</g>
<g>
	<path fill="#3C948B" d="M613.506,326.278c-2.597-4.022-5.742-6.635-10.24-8.114c0,0-3.393-1.745-12.26-1.745
		c-8.871,0-12.264,1.745-12.264,1.745c-4.498,1.495-7.644,4.092-10.242,8.114c-1.028,1.583-1.586,4.767-1.622,6.469
		c0.014,0.442,0,0.956,0,1.468v2.935v-2.025c0,3.244,2.214,5.869,4.945,5.869h38.354c2.734,0,4.945-2.625,4.945-5.869v2.025v-2.935
		c0-0.512-0.01-1.025,0-1.468C615.088,331.045,614.534,327.861,613.506,326.278"/>
	<circle fill="#3C948B" cx="591" cy="300.509" r="13.078"/>
</g>
<g>
	<path fill="#3C948B" d="M705.786,497.066c-2.597-4.022-5.742-6.635-10.24-8.114c0,0-3.393-1.745-12.261-1.745
		c-8.869,0-12.263,1.745-12.263,1.745c-4.498,1.495-7.644,4.092-10.243,8.114c-1.027,1.583-1.585,4.767-1.621,6.469
		c0.014,0.442,0,0.956,0,1.468v2.935v-2.025c0,3.244,2.214,5.869,4.945,5.869h38.354c2.734,0,4.945-2.625,4.945-5.869v2.025v-2.935
		c0-0.512-0.01-1.025,0-1.468C707.368,501.833,706.814,498.649,705.786,497.066"/>
	<circle fill="#3C948B" cx="683.28" cy="471.297" r="13.078"/>
</g>
<g>
	<path fill="#3C948B" d="M536.123,199.881c0,0-0.857-0.3-2.465-0.861c-1.605-0.561-3.95-1.438-6.949-2.459
		c-1.497-0.508-3.155-1.07-4.96-1.684c-1.813-0.583-3.773-1.215-5.868-1.89c-2.084-0.699-4.342-1.318-6.705-2.01
		c-2.355-0.716-4.858-1.368-7.459-2.071c-2.597-0.721-5.344-1.295-8.159-1.979c-2.845-0.548-5.747-1.282-8.779-1.765
		c-6.036-1.114-12.448-1.935-19.074-2.349c-6.626-0.41-13.476-0.374-20.345,0.313c-6.865,0.703-13.729,2.135-20.318,4.34
		c-3.281,1.131-6.526,2.383-9.615,3.93c-1.572,0.719-3.06,1.592-4.583,2.387c-1.469,0.891-2.976,1.715-4.38,2.689
		c-5.719,3.739-10.863,8.17-15.349,12.955c-4.483,4.79-8.353,9.898-11.619,15.025c-3.238,5.146-5.953,10.262-8.2,15.122
		c-2.204,4.878-4.029,9.463-5.46,13.601c-1.421,4.142-2.535,7.809-3.357,10.859c-1.646,6.103-2.265,9.691-2.265,9.691
		s0.002-0.91,0.118-2.612c0.13-1.699,0.315-4.202,0.783-7.358c0.456-3.158,1.095-6.992,2.149-11.328
		c1.018-4.344,2.402-9.204,4.316-14.384c0.955-2.591,2.036-5.261,3.243-7.995c1.24-2.718,2.627-5.486,4.183-8.269
		c3.114-5.56,6.87-11.22,11.499-16.511c2.309-2.646,4.791-5.236,7.513-7.641c2.703-2.423,5.577-4.74,8.671-6.801
		c1.511-1.083,3.131-2.014,4.717-3.008c1.637-0.906,3.258-1.86,4.964-2.654c3.358-1.7,6.877-3.094,10.438-4.331
		c7.162-2.357,14.581-3.868,21.92-4.458c7.339-0.614,14.576-0.43,21.484,0.268c1.723,0.207,3.438,0.365,5.123,0.609
		c1.68,0.266,3.343,0.527,4.989,0.787c3.266,0.644,6.461,1.253,9.525,2.025c3.085,0.688,6.029,1.558,8.886,2.35
		c2.818,0.922,5.565,1.725,8.144,2.661c5.189,1.778,9.85,3.651,13.928,5.411c2.033,0.9,3.955,1.679,5.688,2.516
		c1.732,0.831,3.323,1.594,4.761,2.283c1.443,0.672,2.698,1.33,3.789,1.909c1.093,0.573,2.022,1.061,2.775,1.456
		C535.321,199.453,536.123,199.881,536.123,199.881z"/>
</g>
<g>
	<path fill="#3C948B" d="M591,300.508c0,0,0.106-2.165,0.294-5.955c0.161-3.781,0.379-9.168,0.483-15.6
		c0.102-6.43,0.095-13.912-0.349-21.85c-0.115-1.984-0.257-3.996-0.42-6.026c-0.19-2.027-0.394-4.075-0.646-6.127
		c-0.523-4.101-1.171-8.237-2.142-12.265c-0.915-4.041-2.141-7.973-3.684-11.648c-1.536-3.684-3.468-7.058-5.734-9.979
		c-2.308-2.872-4.938-5.311-7.849-7.042c-2.885-1.769-5.957-2.944-8.931-3.656c-2.977-0.724-5.839-1.001-8.399-1.141
		c-2.563-0.064-4.837-0.036-6.708,0.104c-0.939,0.07-1.778,0.133-2.508,0.188c-0.729,0.083-1.35,0.153-1.854,0.21
		c-1.015,0.104-1.556,0.16-1.556,0.16s0.509-0.191,1.463-0.552c0.481-0.175,1.074-0.391,1.771-0.645
		c0.706-0.229,1.525-0.468,2.447-0.733c1.847-0.521,4.13-1.05,6.815-1.434c2.69-0.318,5.789-0.505,9.203-0.158
		c3.402,0.347,7.121,1.263,10.767,3.023c3.662,1.727,7.12,4.406,10.076,7.666c1.447,1.649,2.828,3.416,4.001,5.319
		c0.633,0.931,1.145,1.923,1.721,2.896c0.493,1.004,1.045,1.998,1.485,3.031c1.899,4.096,3.256,8.437,4.286,12.801
		c1.012,4.375,1.676,8.785,2.068,13.128c0.414,4.342,0.55,8.615,0.512,12.735c-0.063,8.242-0.835,15.866-1.814,22.332
		c-0.977,6.47-2.178,11.783-3.139,15.469c-0.457,1.846-0.904,3.279-1.188,4.257C591.181,299.993,591,300.508,591,300.508z"/>
</g>
<g>
	<path fill="#3C948B" d="M537.332,202.778c0,0-1.059-0.132-3.034-0.079c-1.97,0.049-4.866,0.335-8.377,1.29
		c-3.5,0.963-7.588,2.727-11.628,5.649c-4.029,2.931-7.936,7.062-11.203,12.242c-3.244,5.206-5.8,11.407-7.875,18.16
		c-0.462,1.71-0.932,3.443-1.406,5.197c-0.432,1.768-0.726,3.6-1.103,5.425c-0.179,0.915-0.359,1.835-0.541,2.76
		c-0.181,0.924-0.275,1.876-0.418,2.819c-0.264,1.893-0.53,3.802-0.798,5.728c-0.268,1.925-0.344,3.902-0.527,5.872
		c-0.14,1.977-0.362,3.957-0.438,5.967c-0.056,2.012-0.112,4.036-0.169,6.07c-0.043,2.035-0.207,4.072-0.138,6.133
		c0.02,2.059,0.039,4.124,0.059,6.196c0.034,2.072-0.008,4.148,0.142,6.233c0.234,4.168,0.397,8.352,0.689,12.533
		c0.34,4.183,0.68,8.365,1.019,12.532c0.391,4.164,0.939,8.302,1.395,12.414c0.439,4.114,1.031,8.181,1.586,12.204
		c0.576,4.021,1.061,8.006,1.69,11.904c0.642,3.898,1.323,7.723,1.898,11.485c0.296,1.88,0.59,3.739,0.88,5.575
		c0.334,1.83,0.665,3.638,0.991,5.422c0.655,3.567,1.292,7.038,1.907,10.396c0.294,1.683,0.584,3.337,0.869,4.96
		c0.321,1.617,0.637,3.203,0.946,4.757c1.264,6.21,2.349,11.924,3.308,16.992c1.044,5.052,1.955,9.456,2.705,13.083
		c0.753,3.628,1.284,6.497,1.672,8.446c0.37,1.954,0.567,2.997,0.567,2.997s-0.333-1.006-0.956-2.894
		c-0.604-1.892-1.531-4.658-2.631-8.201c-1.106-3.541-2.494-7.833-3.957-12.791c-1.403-4.974-2.982-10.59-4.626-16.74
		c-1.743-6.127-3.228-12.866-4.924-19.966c-0.415-1.777-0.835-3.58-1.26-5.404c-0.381-1.834-0.768-3.691-1.158-5.568
		c-0.798-3.752-1.52-7.604-2.306-11.513c-0.75-3.915-1.359-7.927-2.06-11.974c-0.34-2.025-0.683-4.062-1.027-6.11
		c-0.331-2.05-0.541-4.132-0.819-6.21c-0.504-4.165-1.098-8.351-1.537-12.576c-0.383-4.235-0.767-8.486-1.151-12.737
		c-0.257-4.265-0.384-8.543-0.581-12.796c-0.131-2.124-0.07-4.259-0.084-6.381c0-2.123,0.001-4.24,0.001-6.35
		c0.007-4.217,0.368-8.411,0.573-12.543c0.14-2.067,0.427-4.12,0.631-6.157c0.249-2.036,0.389-4.062,0.724-6.06
		c0.337-1.995,0.672-3.975,1.003-5.935c0.182-0.978,0.296-1.958,0.531-2.919c0.235-0.959,0.47-1.914,0.703-2.863
		c0.485-1.895,0.886-3.781,1.428-5.616c0.588-1.823,1.17-3.624,1.743-5.401c2.484-7.047,5.659-13.47,9.521-18.81
		c3.844-5.356,8.468-9.464,13.042-12.213c4.572-2.789,9.085-4.153,12.799-4.778c3.731-0.639,6.705-0.51,8.689-0.338
		C536.306,202.491,537.332,202.778,537.332,202.778z"/>
</g>
<g>
	<path fill="#3C948B" d="M594.575,301.925c0,0,0.502-0.773,1.592-2.12c1.108-1.325,2.756-3.283,5.215-5.432
		c2.452-2.135,5.656-4.61,9.977-6.435c2.152-0.907,4.582-1.646,7.255-1.986c2.67-0.358,5.577-0.178,8.484,0.519
		c2.91,0.701,5.799,1.968,8.49,3.674c2.7,1.703,5.168,3.871,7.468,6.264c4.59,4.814,8.41,10.621,11.724,16.859
		c3.282,6.259,6.093,12.964,8.535,19.883c2.46,6.916,4.532,14.057,6.392,21.233c1.838,7.185,3.387,14.421,4.741,21.568
		c0.333,1.787,0.664,3.567,0.993,5.339c0.294,1.777,0.587,3.545,0.877,5.302c0.602,3.511,1.092,6.991,1.587,10.413
		c0.475,3.425,0.918,6.793,1.316,10.094c0.363,3.305,0.719,6.537,1.064,9.684c0.303,3.149,0.597,6.213,0.881,9.176
		c0.227,2.968,0.445,5.835,0.655,8.587c0.426,5.502,0.677,10.556,0.894,15.033c0.206,4.478,0.343,8.384,0.418,11.602
		c0.09,3.216,0.096,5.748,0.128,7.471c0.012,1.725,0.019,2.645,0.019,2.645s-0.146-0.908-0.42-2.612
		c-0.255-1.704-0.668-4.2-1.113-7.383c-0.946-6.351-2.298-15.423-3.919-26.309c-0.844-5.428-1.757-11.308-2.723-17.526
		c-0.518-3.101-1.049-6.285-1.592-9.54c-0.567-3.248-1.148-6.566-1.738-9.941c-1.225-6.736-2.519-13.688-3.987-20.709
		c-1.489-7.016-3.025-14.135-4.862-21.161c-1.782-7.039-3.784-14.01-6.021-20.757c-2.255-6.74-4.768-13.252-7.648-19.299
		c-2.938-5.996-6.169-11.609-10.059-16.157c-3.875-4.525-8.364-8.032-13.173-9.576c-4.794-1.592-9.682-1.163-13.745,0.114
		c-4.082,1.299-7.438,3.239-10.043,5.024c-2.603,1.808-4.518,3.451-5.776,4.615C595.201,301.247,594.575,301.925,594.575,301.925z"
		/>
</g>
<g>
	<path fill="#3C948B" d="M591,304.729c0,0-0.585-0.527-1.734-1.437c-1.144-0.916-2.887-2.177-5.177-3.62
		c-2.3-1.421-5.21-2.964-8.676-4.205c-3.461-1.21-7.565-2.011-11.843-1.535c-4.28,0.469-8.587,2.422-12.336,5.637
		c-1.877,1.606-3.623,3.506-5.233,5.612c-1.577,2.14-3.08,4.431-4.456,6.874c-2.713,4.919-5.003,10.35-7.002,16.014
		c-1.979,5.674-3.681,11.586-5.136,17.574c-1.491,5.982-2.737,12.041-3.892,18.03c-1.075,6.006-2.129,11.927-2.972,17.697
		c-0.873,5.763-1.672,11.353-2.373,16.664c-0.661,5.323-1.285,10.356-1.861,15.001c-1.083,9.326-1.986,17.098-2.618,22.537
		c-0.287,2.727-0.577,4.868-0.747,6.33c-0.189,1.461-0.29,2.24-0.29,2.24s-0.039-0.784-0.111-2.255
		c-0.054-1.471-0.173-3.63-0.242-6.376c-0.079-2.746-0.141-6.083-0.155-9.91c0.007-3.826-0.013-8.148,0.155-12.857
		c0.078-2.354,0.12-4.811,0.235-7.351c0.118-2.54,0.26-5.163,0.433-7.861c0.356-5.395,0.759-11.089,1.418-16.962
		c0.162-1.469,0.326-2.949,0.491-4.441c0.195-1.489,0.393-2.989,0.591-4.499c0.368-3.021,0.879-6.067,1.36-9.14
		c1.021-6.141,2.285-12.353,3.785-18.528c1.539-6.164,3.325-12.296,5.556-18.206c2.214-5.91,4.845-11.617,8.043-16.843
		c1.635-2.595,3.378-5.087,5.332-7.358c1.972-2.259,4.121-4.319,6.452-6.063c2.331-1.737,4.846-3.173,7.47-4.098
		c2.618-0.933,5.297-1.398,7.846-1.455c5.133-0.137,9.589,1.35,13.129,3.069c3.571,1.727,6.316,3.773,8.459,5.542
		c2.143,1.776,3.638,3.364,4.639,4.45C590.531,304.096,591,304.729,591,304.729z"/>
</g>
<g>
	<path fill="#3C948B" d="M364.037,273.727c0,0-0.853-0.242-2.48-0.465c-1.621-0.223-4.038-0.392-7.022-0.057
		c-2.968,0.352-6.529,1.34-9.895,3.584c-3.365,2.242-6.352,5.805-8.544,10.283c-2.216,4.48-3.581,9.854-4.49,15.619
		c-0.825,5.797-1.115,12.023-1.015,18.484c0.107,6.464,0.589,13.158,1.314,19.951c0.744,6.792,1.709,13.686,2.864,20.558
		c1.136,6.878,2.482,13.729,3.837,20.473c1.424,6.73,2.841,13.358,4.342,19.751c1.486,6.395,2.948,12.578,4.39,18.432
		c1.475,5.85,2.869,11.381,4.156,16.486c2.629,10.219,4.82,18.734,6.354,24.695c0.792,2.977,1.355,5.337,1.765,6.938
		c0.391,1.607,0.6,2.465,0.6,2.465s-0.342-0.812-0.982-2.338c-0.622-1.53-1.573-3.764-2.707-6.633
		c-1.141-2.866-2.5-6.358-4.006-10.384c-1.483-4.032-3.191-8.574-4.875-13.589c-0.849-2.505-1.77-5.104-2.657-7.816
		c-0.887-2.712-1.783-5.521-2.682-8.419c-1.791-5.796-3.658-11.921-5.378-18.321c-0.885-3.192-1.734-6.453-2.553-9.767
		c-0.86-3.302-1.622-6.674-2.406-10.068c-1.529-6.802-2.907-13.755-4.102-20.753c-1.137-7.008-2.103-14.057-2.709-21.049
		c-0.625-6.988-0.913-13.917-0.755-20.645c0.125-6.726,0.849-13.254,2.08-19.371c0.66-3.054,1.434-6.011,2.443-8.802
		c1.006-2.791,2.241-5.416,3.658-7.811c1.426-2.389,3.047-4.557,4.878-6.352c1.825-1.798,3.813-3.242,5.82-4.31
		c4.036-2.166,8.041-2.688,11.179-2.676c3.172,0.014,5.583,0.606,7.181,1.049C363.24,273.337,364.037,273.727,364.037,273.727z"/>
</g>
<g>
	<path fill="#3C948B" d="M514.654,446.703c0,0-0.52-0.504-1.515-1.416c-0.991-0.918-2.491-2.211-4.408-3.828
		c-1.927-1.606-4.323-3.483-7.118-5.545c-2.802-2.055-6.056-4.229-9.669-6.451c-1.822-1.086-3.728-2.199-5.752-3.242
		c-2.019-1.051-4.103-2.133-6.305-3.104c-4.381-1.99-9.154-3.688-14.163-5.008c-2.505-0.667-5.085-1.169-7.701-1.591
		c-2.62-0.413-5.29-0.621-7.976-0.76c-2.69-0.102-5.398-0.002-8.107,0.192c-2.702,0.269-5.415,0.592-8.077,1.205
		c-5.358,1.062-10.545,2.929-15.482,5.158c-4.926,2.269-9.585,4.981-13.889,7.956c-4.298,2.982-8.288,6.158-11.919,9.371
		c-3.636,3.209-6.897,6.471-9.884,9.519c-2.921,3.109-5.572,6.01-7.854,8.649c-1.132,1.331-2.192,2.576-3.172,3.727
		c-0.963,1.17-1.848,2.245-2.646,3.215c-1.604,1.942-2.814,3.51-3.668,4.561c-0.854,1.053-1.311,1.613-1.311,1.613
		s0.339-0.638,0.974-1.834c0.668-1.176,1.542-2.974,2.86-5.133c0.648-1.089,1.366-2.295,2.146-3.607
		c0.793-1.308,1.725-2.672,2.683-4.159c0.947-1.496,2.067-3.009,3.189-4.651c1.12-1.646,2.452-3.26,3.761-5.013
		c1.366-1.706,2.793-3.487,4.334-5.281c0.773-0.896,1.588-1.78,2.403-2.692c0.824-0.903,1.706-1.781,2.577-2.693
		c3.53-3.602,7.449-7.255,11.881-10.615c4.419-3.367,9.311-6.5,14.629-9.068c5.307-2.579,11.022-4.65,16.951-5.869
		c2.955-0.653,5.97-1,8.97-1.271c3.008-0.215,6.014-0.214,8.983-0.05c5.936,0.364,11.7,1.491,17.048,3.172
		c5.361,1.654,10.302,3.877,14.769,6.293c4.494,2.378,8.467,5.068,11.988,7.698c3.528,2.626,6.56,5.271,9.134,7.718
		c2.598,2.422,4.69,4.703,6.377,6.6c1.692,1.893,2.907,3.479,3.737,4.551C514.255,446.1,514.654,446.703,514.654,446.703z"/>
</g>
</svg>
