<?xml version="1.0" encoding="utf-8"?>
<!-- Generator: Adobe Illustrator 16.0.4, SVG Export Plug-In . SVG Version: 6.00 Build 0)  -->
<!DOCTYPE svg PUBLIC "-//W3C//DTD SVG 1.1//EN" "http://www.w3.org/Graphics/SVG/1.1/DTD/svg11.dtd">
<svg version="1.1" id="Layer_1" xmlns="http://www.w3.org/2000/svg" xmlns:xlink="http://www.w3.org/1999/xlink" x="0px" y="0px"
	 width="1024px" height="768px" viewBox="0 0 1024 768" enable-background="new 0 0 1024 768" xml:space="preserve">
<path fill="#2D2D2D" d="M643.153,124.404c-74.479,0-135.065,55.118-135.065,122.87c0,48.273,30.792,90.079,75.418,110.159
	l-11.232,51.408l58.499-39.256c4.079,0.355,8.205,0.564,12.38,0.564c74.474,0,135.065-55.123,135.065-122.876
	C778.219,179.522,717.627,124.404,643.153,124.404z M643.153,353.277c-6.568,0-12.965-0.603-19.244-1.539l-12.24,9.416l-5.466,4.207
	l-9.347,7.195l2.761-9.078l1.424-4.65l3.502-11.479c-46.246-14.407-79.579-53.777-79.579-100.08
	c0.001-58.444,53.015-105.99,118.189-105.99c65.172,0,118.19,47.546,118.19,105.993C761.344,305.72,708.325,353.277,643.153,353.277
	z"/>
<path fill="#3C948B" d="M712.267,189.48c-12.51,0-22.642,10.136-22.642,22.644c0,1.179,0.172,2.313,0.344,3.449l-58.254,22.329
	c-4.831-7.425-13.173-12.361-22.695-12.361c-6.596,0-12.568,2.454-17.269,6.377l-12.175-9.104c0.498-1.606,0.839-3.283,0.839-5.047
	c0-9.459-7.678-17.139-17.138-17.139c-9.469,0-17.146,7.68-17.146,17.139c0,9.468,7.678,17.148,17.146,17.148
	c4.036,0,7.695-1.449,10.622-3.792l11.459,8.571c-2.125,3.862-3.441,8.236-3.441,12.963c0,14.972,12.135,27.108,27.105,27.108
	c4.456,0,8.596-1.182,12.3-3.076l15.793,21.186c-3.582,3.836-5.82,8.94-5.82,14.603c0,11.836,9.59,21.427,21.438,21.427
	c11.837,0,21.424-9.591,21.424-21.427c0-11.846-9.593-21.437-21.424-21.437c-2.532,0-4.928,0.516-7.181,1.315l-16.281-21.84
	c4.22-4.782,6.855-10.984,6.855-17.859c0-1.868-0.19-3.685-0.549-5.448l58.045-22.254c4.092,5.918,10.899,9.814,18.645,9.814
	c12.509,0,22.638-10.131,22.638-22.644C734.904,199.619,724.775,189.48,712.267,189.48z"/>
<path fill="#3C948B" d="M551.104,495.092c0,21.002-17.027,38.021-38.03,38.021c-21.002,0-38.03-17.02-38.03-38.021
	s17.027-38.029,38.03-38.029C534.076,457.062,551.104,474.09,551.104,495.092z"/>
<path fill="#3C948B" d="M345.313,495.088c0,21.006-17.027,38.025-38.03,38.025c-21.002,0-38.03-17.02-38.03-38.025
	c0-21.002,17.027-38.029,38.03-38.029C328.286,457.059,345.313,474.086,345.313,495.088z"/>
<path fill="#3C948B" d="M477.583,600.805c-7.549-11.697-16.695-19.293-29.774-23.596c0,0-9.868-5.072-35.653-5.072
	c-25.792,0-35.66,5.072-35.66,5.072c-13.08,4.348-22.227,11.898-29.785,23.596c-2.989,4.604-4.608,13.861-4.715,18.811
	c0.039,1.287,0,2.781,0,4.27v8.531v-5.887c0,9.432,6.438,17.066,14.381,17.066h111.529c7.952,0,14.381-7.635,14.381-17.066v5.887
	v-8.531c0-1.488-0.027-2.982,0-4.27C482.188,614.666,480.576,605.408,477.583,600.805"/>
<path fill="#3C948B" d="M368.788,567.207c-6.338-8.047-13.939-13.564-24.118-16.902c0,0-9.225-4.748-33.319-4.748
	c-24.104,0-33.326,4.748-33.326,4.748c-12.224,4.057-20.776,11.117-27.836,22.045c-2.794,4.301-4.304,12.961-4.407,17.58
	c0.035,1.209,0,2.604,0,3.992v2.469c0,8.812,6.013,15.949,13.444,15.949h67.306c0.958-5.582,2.66-11.711,5.082-15.436
	C341.073,582.254,352.525,572.754,368.788,567.207z"/>
<path fill="#3C948B" d="M455.625,567.207c6.338-8.047,13.942-13.564,24.115-16.902c0,0,9.226-4.748,33.319-4.748
	c24.1,0,33.332,4.748,33.332,4.748c12.225,4.057,20.77,11.117,27.829,22.045c2.802,4.301,4.309,12.961,4.414,17.58
	c-0.035,1.209,0,2.604,0,3.992v2.469c0,8.812-6.02,15.949-13.447,15.949h-67.301c-0.963-5.582-2.66-11.711-5.087-15.436
	C483.341,582.254,471.889,572.754,455.625,567.207z"/>
<path fill="#3C948B" d="M450.172,525.871c0,21.006-17.028,38.025-38.03,38.025s-38.03-17.02-38.03-38.025
	c0-21.002,17.027-38.031,38.03-38.031S450.172,504.869,450.172,525.871z"/>
</svg>
