<?xml version="1.0" encoding="utf-8"?>
<!-- Generator: Adobe Illustrator 16.0.4, SVG Export Plug-In . SVG Version: 6.00 Build 0)  -->
<!DOCTYPE svg PUBLIC "-//W3C//DTD SVG 1.1//EN" "http://www.w3.org/Graphics/SVG/1.1/DTD/svg11.dtd">
<svg version="1.1" id="Layer_1" xmlns="http://www.w3.org/2000/svg" xmlns:xlink="http://www.w3.org/1999/xlink" x="0px" y="0px"
	 width="1024px" height="768px" viewBox="0 0 1024 768" enable-background="new 0 0 1024 768" xml:space="preserve">
<path fill="#2D2D2D" d="M525.525,511.764c-8.83-29.393-37.86-152.841,42.982-300.592c0,0-114.446,119.807-82.676,300.77
	c-67.064,1.809-118.156,11.091-118.156,22.281c0,12.486,63.587,22.605,142.021,22.605c78.438,0,142.021-10.119,142.021-22.605
	C651.722,522.591,596.513,513.016,525.525,511.764z"/>
<path fill="#3C948B" d="M473.329,338.998c0,0,0.894-38.847-27.321-63.178c0,0,30.823,12.998,43.747,45.58
	c1.317-19.598-1.331-71.165-82.779-75.404C406.969,245.996,398.914,328.594,473.329,338.998z"/>
<path fill="#3C948B" d="M522.659,420.207c25.513-43.007,78.322-48.406,78.322-48.406c-45.331,23.797-65.015,54.009-67.812,72.539
	c116.309,18.942,121.822-101.943,121.822-101.943C544.662,322.746,526.997,393.562,522.659,420.207z"/>
</svg>
