<?xml version="1.0" encoding="utf-8"?>
<!-- Generator: Adobe Illustrator 16.0.4, SVG Export Plug-In . SVG Version: 6.00 Build 0)  -->
<!DOCTYPE svg PUBLIC "-//W3C//DTD SVG 1.1//EN" "http://www.w3.org/Graphics/SVG/1.1/DTD/svg11.dtd">
<svg version="1.1" id="Layer_1" xmlns="http://www.w3.org/2000/svg" xmlns:xlink="http://www.w3.org/1999/xlink" x="0px" y="0px"
	 width="1024px" height="768px" viewBox="0 0 1024 768" enable-background="new 0 0 1024 768" xml:space="preserve">
<g id="Capa_25">
	<path fill="#2D2D2D" d="M511.975,167C392.354,167,295,264.345,295,384c0,119.654,97.354,217,216.975,217
		C631.646,601,729,503.655,729,384C729,264.345,631.646,167,511.975,167z M700.535,303.328l-13.189-3.92l-16.546-19.61l-4.907,0.604
		l10.002,14.254l-8.354,9.173l-0.836-8.343c0,0-10.8-14.177-11.658-16.673c-0.836-2.501-31.437,26.724-31.437,26.724l25.133-0.615
		l5.511,7.964l28.21,1.232l24.29,5.79c6.662,20.19,10.379,41.695,10.379,64.087c0,35.732-9.214,69.343-25.354,98.638l-17.897,2.479
		l-12.894-30.333l-3.657-62.498l-48.715,0.903l-21.148-34.938l21.148-47.799l11.008-4.599l-10.101-6.438l1.83-16.556l16.534-5.518
		l-0.907-12.863l27.578-24.824l-0.817-3.56C673.517,255.042,689.597,277.814,700.535,303.328z M494.495,588.25
		c-0.288-0.024-0.614-0.017-0.902-0.046l0.996-1.029L494.495,588.25z M582.644,191.667c2.806,1.038,5.7,1.944,8.46,3.103
		l-13.787,4.42L582.644,191.667z M636.174,248.841l-16.552,9.197l-2.755-11.036l-9.196,3.675l-4.607-11.957l16.551-21.148
		L636.174,248.841z M550.526,182.622l-24.685,37.708l-19.302-18.382l-1.594-22.733c2.354-0.072,4.671-0.356,7.027-0.356
		C525.173,178.858,538.031,180.228,550.526,182.622z M482.15,181.287l-5.938,28.022l-30.367-14.728l-0.924-4.227
		C456.867,186.204,469.312,183.173,482.15,181.287z M411.832,205.145l-5.543,7.841l31.296,30.333l10.104-10.104l-1.848-22.997
		l34.042,8.294l23.887,47.809l-49.639,25.734l-16.547,29.422l2.768,14.707l-37.721-8.265l-3.676,19.301l22.073-3.684l13.796,28.503
		l11.956,2.769l20.227-6.447l45.053,21.158l36.78,23.925l-12.877,39.514l-45.978,41.365l-22.073,47.809l3.68,12.876l-19.289-13.791
		l5.506-97.464l-21.132-36.764l8.238-24.814l-11.011-1.84l-21.166-16.559l-33.084-11.952L333.7,297.568l0.397-15.277
		C352.599,250.087,379.49,223.353,411.832,205.145z M467.011,355.492l-37.699-10.121l23.921-2.759L467.011,355.492z"/>
</g>
<g>
	<path fill="#3C948B" d="M382.719,496.693c-2.596-4.021-5.742-6.635-10.24-8.114c0,0-3.393-1.744-12.26-1.744
		c-8.87,0-12.263,1.744-12.263,1.744c-4.498,1.495-7.645,4.093-10.243,8.114c-1.028,1.583-1.585,4.768-1.622,6.469
		c0.014,0.442,0,0.956,0,1.469v2.935v-2.025c0,3.244,2.214,5.869,4.945,5.869h38.354c2.734,0,4.945-2.625,4.945-5.869v2.025v-2.935
		c0-0.513-0.009-1.025,0-1.469C384.302,501.46,383.748,498.276,382.719,496.693"/>
	<circle fill="#3C948B" cx="360.214" cy="470.924" r="13.078"/>
</g>
<g>
	<path fill="#3C948B" d="M419.92,313.99c-2.597-4.021-5.742-6.635-10.24-8.113c0,0-3.394-1.745-12.26-1.745
		c-8.87,0-12.263,1.745-12.263,1.745c-4.498,1.494-7.645,4.092-10.243,8.113c-1.028,1.583-1.585,4.768-1.622,6.47
		c0.014,0.441,0,0.955,0,1.468v2.935v-2.024c0,3.243,2.214,5.868,4.944,5.868h38.354c2.733,0,4.944-2.625,4.944-5.868v2.024v-2.935
		c0-0.513-0.009-1.025,0-1.468C421.503,318.758,420.948,315.573,419.92,313.99"/>
	<circle fill="#3C948B" cx="397.414" cy="288.222" r="13.078"/>
</g>
<g>
	<path fill="#3C948B" d="M534.505,469.911c-2.598-4.021-5.741-6.635-10.239-8.113c0,0-3.395-1.745-12.261-1.745
		c-8.87,0-12.264,1.745-12.264,1.745c-4.498,1.495-7.644,4.092-10.243,8.113c-1.027,1.583-1.585,4.768-1.621,6.47
		c0.014,0.441,0,0.956,0,1.468v2.935v-2.024c0,3.244,2.214,5.869,4.944,5.869h38.354c2.733,0,4.944-2.625,4.944-5.869v2.024v-2.935
		c0-0.512-0.009-1.025,0-1.468C536.088,474.679,535.532,471.494,534.505,469.911"/>
	<circle fill="#3C948B" cx="512" cy="444.143" r="13.078"/>
</g>
<g>
	<path fill="#3C948B" d="M558.627,225.651c-2.597-4.021-5.741-6.635-10.239-8.113c0,0-3.395-1.745-12.261-1.745
		c-8.869,0-12.264,1.745-12.264,1.745c-4.498,1.494-7.644,4.092-10.243,8.113c-1.026,1.583-1.585,4.768-1.62,6.47
		c0.014,0.441,0,0.956,0,1.468v2.935v-2.024c0,3.244,2.214,5.869,4.944,5.869h38.354c2.733,0,4.944-2.625,4.944-5.869v2.024v-2.935
		c0-0.512-0.009-1.025,0-1.468C560.211,230.418,559.656,227.234,558.627,225.651"/>
	<circle fill="#3C948B" cx="536.122" cy="199.882" r="13.079"/>
</g>
<g>
	<path fill="#3C948B" d="M613.506,326.278c-2.598-4.021-5.742-6.635-10.24-8.114c0,0-3.394-1.744-12.26-1.744
		c-8.871,0-12.265,1.744-12.265,1.744c-4.498,1.495-7.644,4.093-10.241,8.114c-1.028,1.583-1.587,4.768-1.622,6.469
		c0.014,0.442,0,0.956,0,1.469v2.935v-2.024c0,3.243,2.214,5.868,4.944,5.868h38.354c2.733,0,4.944-2.625,4.944-5.868v2.024v-2.935
		c0-0.513-0.01-1.025,0-1.469C615.088,331.045,614.533,327.861,613.506,326.278"/>
	<circle fill="#3C948B" cx="591" cy="300.509" r="13.078"/>
</g>
<g>
	<path fill="#3C948B" d="M661.433,516.71c-2.597-4.022-5.742-6.636-10.24-8.114c0,0-3.393-1.745-12.261-1.745
		c-8.869,0-12.263,1.745-12.263,1.745c-4.498,1.495-7.645,4.092-10.243,8.114c-1.027,1.583-1.585,4.767-1.621,6.469
		c0.014,0.441,0,0.956,0,1.468v2.936v-2.025c0,3.244,2.214,5.869,4.945,5.869h38.354c2.734,0,4.945-2.625,4.945-5.869v2.025v-2.936
		c0-0.512-0.01-1.025,0-1.468C663.015,521.477,662.461,518.293,661.433,516.71"/>
	<circle fill="#3C948B" cx="638.927" cy="490.94" r="13.078"/>
</g>
<g>
	<path fill="#3C948B" d="M536.122,199.881c0,0-3.217-0.892-8.847-2.449c-1.403-0.372-2.958-0.784-4.648-1.231
		c-1.696-0.421-3.531-0.875-5.492-1.36c-1.949-0.515-4.062-0.92-6.264-1.407c-2.198-0.508-4.531-0.922-6.95-1.406
		c-4.857-0.858-10.128-1.68-15.707-2.171c-5.573-0.518-11.456-0.771-17.477-0.509c-6.019,0.271-12.169,1.087-18.189,2.635
		c-3.026,0.729-5.963,1.791-8.877,2.904c-2.88,1.199-5.708,2.543-8.388,4.145c-5.388,3.148-10.261,7.143-14.462,11.679
		c-4.199,4.54-7.756,9.592-10.683,14.817c-1.482,2.604-2.789,5.263-3.983,7.912c-1.214,2.643-2.25,5.306-3.209,7.921
		c-1.905,5.24-3.386,10.346-4.554,15.12c-1.126,4.785-2.005,9.231-2.658,13.202c-0.615,3.974-1.104,7.465-1.406,10.354
		c-0.292,2.889-0.518,5.17-0.611,6.729c-0.095,1.562-0.146,2.396-0.146,2.396s-0.142-0.825-0.313-2.386
		c-0.162-1.561-0.403-3.854-0.521-6.787c-0.131-2.932-0.211-6.504-0.049-10.603c0.146-4.099,0.467-8.733,1.191-13.758
		c0.354-2.514,0.789-5.127,1.321-7.823c0.555-2.691,1.207-5.464,2.012-8.287c0.79-2.827,1.734-5.701,2.838-8.6
		c1.071-2.909,2.374-5.813,3.821-8.717c1.425-2.915,3.113-5.772,4.967-8.579c1.83-2.824,3.938-5.531,6.229-8.12
		c4.56-5.202,10.083-9.763,16.164-13.363c3.049-1.793,6.253-3.291,9.502-4.613c3.273-1.252,6.604-2.312,9.962-3.064
		c6.705-1.577,13.445-2.204,19.896-2.184c6.458,0.013,12.636,0.679,18.397,1.633c2.888,0.464,5.66,1.056,8.331,1.658
		c1.337,0.295,2.629,0.671,3.907,0.993c1.273,0.345,2.533,0.635,3.739,1.018c4.866,1.385,9.237,2.9,13.062,4.353
		c1.905,0.747,3.704,1.386,5.33,2.089c1.624,0.701,3.115,1.347,4.462,1.93c1.354,0.565,2.527,1.126,3.548,1.625
		c1.022,0.492,1.894,0.911,2.599,1.251C535.372,199.512,536.122,199.881,536.122,199.881z"/>
</g>
<g>
	<path fill="#3C948B" d="M591,300.508c0,0,0.07-2.171,0.195-5.969c0.104-3.789,0.251-9.182,0.294-15.609
		c0.038-6.428-0.023-13.899-0.504-21.816c-0.125-1.979-0.272-3.982-0.442-6.008c-0.197-2.02-0.406-4.061-0.661-6.104
		c-0.532-4.083-1.18-8.201-2.147-12.203c-0.906-4.019-2.123-7.921-3.641-11.565c-1.515-3.652-3.408-6.994-5.629-9.888
		c-2.263-2.846-4.833-5.267-7.689-6.998c-2.83-1.77-5.855-2.963-8.8-3.702c-2.944-0.751-5.79-1.06-8.342-1.232
		c-2.556-0.097-4.827-0.104-6.7,0.01c-0.936,0.064-1.775,0.114-2.512,0.147c-0.731,0.07-1.354,0.131-1.859,0.18
		c-1.02,0.086-1.562,0.132-1.562,0.132s0.508-0.201,1.456-0.58c0.479-0.183,1.071-0.409,1.768-0.676
		c0.703-0.242,1.521-0.493,2.441-0.772c1.846-0.549,4.128-1.111,6.823-1.527c2.699-0.353,5.815-0.57,9.26-0.25
		c3.435,0.319,7.198,1.217,10.897,2.979c3.716,1.727,7.233,4.422,10.236,7.71c1.472,1.661,2.872,3.445,4.062,5.363
		c0.643,0.938,1.161,1.938,1.745,2.918c0.5,1.012,1.058,2.015,1.504,3.056c1.926,4.126,3.292,8.495,4.33,12.883
		c1.014,4.399,1.68,8.829,2.062,13.189c0.407,4.357,0.528,8.646,0.473,12.776c-0.1,8.264-0.927,15.897-1.97,22.366
		c-1.038,6.473-2.311,11.78-3.328,15.459c-0.482,1.845-0.958,3.271-1.257,4.247C591.191,299.996,591,300.508,591,300.508z"/>
</g>
<g>
	<path fill="#3C948B" d="M537.331,202.778c0,0-1.062-0.121-3.034-0.051c-1.969,0.064-4.859,0.38-8.354,1.358
		c-3.485,0.985-7.542,2.778-11.544,5.712c-3.99,2.942-7.847,7.075-11.073,12.243c-3.2,5.196-5.711,11.383-7.757,18.114
		c-0.455,1.705-0.916,3.434-1.382,5.184c-0.424,1.762-0.71,3.591-1.079,5.411c-0.175,0.912-0.352,1.829-0.529,2.752
		c-0.177,0.921-0.27,1.871-0.409,2.812c-0.26,1.888-0.521,3.791-0.784,5.713c-0.264,1.92-0.334,3.894-0.515,5.857
		c-0.135,1.973-0.353,3.947-0.424,5.954c-0.052,2.008-0.104,4.028-0.155,6.059c-0.037,2.03-0.191,4.062-0.116,6.121
		c0.026,2.054,0.054,4.116,0.082,6.185c0.044,2.067,0.006,4.14,0.146,6.223c0.227,4.161,0.38,8.339,0.664,12.515
		c0.347,4.178,0.695,8.354,1.041,12.515c0.41,4.157,0.923,8.296,1.37,12.403c0.418,4.112,1.003,8.177,1.566,12.196
		c0.576,4.018,1.072,7.996,1.673,11.896c0.624,3.898,1.278,7.727,1.844,11.487c0.29,1.88,0.577,3.739,0.86,5.576
		c0.328,1.831,0.651,3.639,0.972,5.423c0.642,3.568,1.265,7.041,1.869,10.399c0.286,1.684,0.567,3.339,0.844,4.963
		c0.313,1.618,0.622,3.205,0.924,4.761c1.236,6.214,2.286,11.935,3.214,17.01c1.038,5.05,1.905,9.465,2.615,13.104
		c0.729,3.635,1.231,6.511,1.604,8.464c0.352,1.96,0.538,3.005,0.538,3.005s-0.342-1.004-0.983-2.886
		c-0.62-1.89-1.575-4.647-2.7-8.185c-1.132-3.535-2.554-7.817-4.046-12.771c-1.435-4.967-3.049-10.576-4.72-16.724
		c-1.774-6.12-3.292-12.855-5.011-19.954c-0.421-1.777-0.848-3.579-1.279-5.402c-0.389-1.835-0.78-3.691-1.177-5.568
		c-0.81-3.753-1.557-7.603-2.36-11.51c-0.779-3.914-1.377-7.932-2.078-11.98c-0.339-2.026-0.681-4.066-1.024-6.116
		c-0.338-2.05-0.556-4.134-0.841-6.212c-0.515-4.168-1.143-8.354-1.562-12.589c-0.375-4.239-0.751-8.496-1.128-12.755
		c-0.267-4.27-0.402-8.554-0.607-12.812c-0.14-2.127-0.075-4.266-0.079-6.393c0.008-2.127,0.017-4.247,0.024-6.36
		c0.023-4.225,0.395-8.428,0.607-12.568c0.145-2.069,0.437-4.128,0.646-6.17c0.254-2.04,0.398-4.069,0.739-6.071
		c0.342-2,0.681-3.984,1.017-5.949c0.185-0.98,0.3-1.963,0.539-2.926c0.24-0.964,0.478-1.921,0.715-2.872
		c0.494-1.899,0.902-3.79,1.452-5.63c0.597-1.827,1.186-3.634,1.768-5.415c2.514-7.068,5.731-13.508,9.64-18.856
		c3.885-5.369,8.56-9.475,13.172-12.21c4.609-2.78,9.152-4.116,12.882-4.716c3.747-0.616,6.727-0.458,8.712-0.271
		C536.308,202.48,537.331,202.778,537.331,202.778z"/>
</g>
<g>
	<path fill="#3C948B" d="M594.574,301.925c0,0,0.643-0.729,1.967-1.981c1.335-1.235,3.316-3.052,6.118-5.032
		c2.794-1.979,6.363-4.252,10.996-5.918c2.312-0.824,4.895-1.516,7.744-1.735c2.842-0.23,5.956,0.069,9.035,1.096
		c3.065,1.059,6.005,2.889,8.521,5.243c2.529,2.354,4.608,5.22,6.377,8.285c3.519,6.17,5.78,13.184,7.393,20.455
		c1.619,7.284,2.607,14.884,3.167,22.593c0.579,7.711,0.704,15.538,0.619,23.343c-0.132,7.803-0.457,15.59-1.057,23.223
		c-0.524,7.642-1.326,15.126-2.157,22.355c-0.472,3.608-0.871,7.163-1.375,10.627c-0.513,3.462-0.965,6.855-1.493,10.145
		c-0.539,3.287-1.063,6.484-1.57,9.576c-0.561,3.083-1.104,6.062-1.624,8.92c-1.048,5.714-2.113,10.935-3.1,15.55
		c-0.979,4.616-1.877,8.632-2.661,11.93c-0.763,3.301-1.435,5.881-1.859,7.645c-0.448,1.762-0.688,2.699-0.688,2.699
		s0.081-0.966,0.232-2.775c0.175-1.808,0.386-4.464,0.743-7.827c0.672-6.728,1.632-16.336,2.784-27.867
		c0.546-5.756,1.138-11.992,1.763-18.589c0.609-6.592,1.202-13.542,1.785-20.729c0.262-3.593,0.528-7.245,0.797-10.942
		c0.218-3.698,0.491-7.438,0.678-11.207c0.413-7.541,0.719-15.195,0.805-22.839c0.129-7.643,0.029-15.273-0.355-22.741
		c-0.408-7.464-1.128-14.769-2.367-21.685c-1.239-6.901-3.008-13.461-5.745-19.023c-2.693-5.564-6.536-10.026-11.249-12.093
		c-4.725-2.025-9.907-1.796-14.261-0.713c-4.381,1.102-8.102,2.776-11.042,4.347c-2.938,1.589-5.182,3.012-6.665,4.044
		C595.34,301.326,594.574,301.925,594.574,301.925z"/>
</g>
<g>
	<path fill="#3C948B" d="M591,304.729c0,0-0.594-0.52-1.755-1.416c-1.152-0.902-2.915-2.141-5.215-3.561
		c-2.312-1.396-5.232-2.903-8.69-4.109c-3.456-1.174-7.534-1.926-11.752-1.426c-4.221,0.495-8.439,2.451-12.107,5.662
		c-1.831,1.606-3.566,3.473-5.154,5.565c-1.562,2.121-3.041,4.402-4.399,6.834c-2.68,4.896-4.943,10.309-6.929,15.954
		c-1.96,5.657-3.656,11.554-5.104,17.53c-1.49,5.967-2.736,12.016-3.899,17.993c-1.081,5.996-2.148,11.906-3.01,17.67
		c-0.9,5.755-1.687,11.341-2.416,16.646c-0.699,5.317-1.361,10.345-1.972,14.984c-1.16,9.318-2.128,17.084-2.806,22.521
		c-0.312,2.727-0.632,4.865-0.816,6.326c-0.208,1.46-0.319,2.239-0.319,2.239s-0.049-0.785-0.141-2.256
		c-0.069-1.472-0.218-3.631-0.312-6.379c-0.105-2.748-0.202-6.087-0.247-9.916c-0.023-3.83-0.08-8.155,0.062-12.868
		c0.062-2.357,0.089-4.815,0.188-7.358c0.103-2.542,0.219-5.17,0.37-7.871c0.329-5.4,0.744-11.099,1.375-16.979
		c0.158-1.471,0.317-2.954,0.479-4.448c0.191-1.491,0.386-2.993,0.581-4.505c0.359-3.027,0.865-6.078,1.345-9.155
		c1.012-6.15,2.277-12.374,3.777-18.562c1.546-6.177,3.337-12.324,5.586-18.251c1.123-2.964,2.317-5.882,3.687-8.704
		c1.311-2.84,2.832-5.571,4.43-8.198c1.652-2.605,3.42-5.106,5.39-7.396c1.994-2.273,4.153-4.367,6.53-6.11
		c2.37-1.741,4.931-3.173,7.593-4.097c2.657-0.931,5.373-1.387,7.951-1.431c5.193-0.112,9.676,1.423,13.221,3.179
		c3.579,1.761,6.312,3.845,8.442,5.638c2.134,1.8,3.609,3.411,4.602,4.509C590.539,304.088,591,304.729,591,304.729z"/>
</g>
<g>
	<path fill="#3C948B" d="M397.414,287.431c0,0-0.886-0.245-2.562-0.593c-1.672-0.357-4.15-0.76-7.299-1.084
		c-3.148-0.295-6.991-0.436-11.305-0.054c-4.303,0.401-9.095,1.396-13.804,3.501c-4.703,2.106-9.187,5.501-12.763,10.069
		c-3.583,4.567-6.305,10.227-8.089,16.474c-1.85,6.229-2.795,13.016-3.276,19.96c-0.446,6.955-0.39,14.106,0.065,21.259
		c0.411,7.156,1.223,14.314,2.16,21.354c0.47,3.521,1.026,7.005,1.562,10.453c0.579,3.441,1.167,6.842,1.782,10.183
		c0.624,3.343,1.252,6.624,1.913,9.833c0.324,1.606,0.646,3.194,0.963,4.766c0.339,1.564,0.674,3.113,1.004,4.639
		c0.625,3.062,1.325,6.021,1.963,8.896c0.615,2.88,1.264,5.65,1.896,8.31c1.27,5.324,2.433,10.205,3.464,14.531
		c1.11,4.308,1.981,8.098,2.753,11.205c0.8,3.098,1.359,5.558,1.771,7.225c0.392,1.675,0.6,2.568,0.6,2.568s-0.36-0.843-1.036-2.424
		c-0.655-1.589-1.659-3.903-2.85-6.883c-1.187-2.979-2.606-6.607-4.165-10.798c-1.513-4.204-3.28-8.934-4.957-14.176
		c-1.754-5.219-3.558-10.911-5.282-16.989c-0.888-3.032-1.733-6.167-2.562-9.384c-0.877-3.204-1.623-6.518-2.423-9.878
		c-1.524-6.739-2.984-13.744-4.074-20.949c-1.142-7.193-1.993-14.569-2.465-22.005c-0.426-7.434-0.467-14.934,0.192-22.325
		c0.169-1.848,0.327-3.688,0.604-5.517c0.226-1.829,0.56-3.645,0.894-5.445c0.709-3.598,1.56-7.144,2.763-10.549
		c2.263-6.83,5.732-13.176,10.258-18.214c2.271-2.507,4.78-4.689,7.45-6.421c2.666-1.738,5.448-3.059,8.195-4.017
		c5.507-1.944,10.818-2.393,15.393-2.296c4.596,0.072,8.513,0.807,11.667,1.536c3.16,0.737,5.555,1.604,7.167,2.206
		C396.594,287.018,397.414,287.431,397.414,287.431z"/>
</g>
<g>
	<path fill="#3C948B" d="M514.654,446.702c0,0-0.534-0.485-1.536-1.396c-1.002-0.907-2.521-2.18-4.456-3.776
		c-1.944-1.586-4.361-3.435-7.171-5.47c-2.817-2.026-6.088-4.166-9.707-6.36c-3.645-2.151-7.688-4.294-12.072-6.229
		c-4.376-1.952-9.12-3.655-14.109-4.938c-2.494-0.651-5.059-1.145-7.658-1.556c-2.603-0.402-5.254-0.602-7.92-0.735
		c-2.67-0.098-5.357,0.01-8.045,0.202c-2.68,0.27-5.372,0.59-8.013,1.2c-5.317,1.05-10.467,2.902-15.377,5.107
		c-4.898,2.247-9.54,4.93-13.835,7.877c-4.298,2.944-8.267,6.117-11.905,9.301c-3.659,3.163-6.938,6.395-9.943,9.418
		c-2.937,3.085-5.612,5.959-7.918,8.577c-1.145,1.318-2.216,2.554-3.207,3.694c-0.976,1.16-1.872,2.227-2.682,3.188
		c-1.624,1.927-2.859,3.479-3.726,4.52c-0.871,1.042-1.335,1.599-1.335,1.599s0.331-0.645,0.949-1.851
		c0.316-0.601,0.706-1.342,1.164-2.213c0.45-0.878,0.99-1.873,1.639-2.961c0.637-1.098,1.343-2.312,2.11-3.636
		c0.779-1.319,1.702-2.691,2.647-4.19c0.936-1.506,2.044-3.03,3.154-4.688c1.107-1.658,2.433-3.282,3.731-5.048
		c2.705-3.444,5.707-7.154,9.256-10.769c3.522-3.633,7.463-7.289,11.896-10.687c4.427-3.396,9.335-6.559,14.682-9.147
		c5.333-2.604,11.086-4.689,17.056-5.921c2.977-0.655,6.014-1.003,9.034-1.273c3.029-0.217,6.057-0.207,9.045-0.04
		c5.978,0.375,11.775,1.522,17.147,3.23c5.38,1.69,10.351,3.907,14.822,6.362c4.491,2.432,8.458,5.156,11.974,7.815
		c3.521,2.654,6.538,5.335,9.096,7.81c2.583,2.447,4.654,4.758,6.324,6.675c1.676,1.913,2.87,3.521,3.688,4.603
		C514.264,446.092,514.654,446.702,514.654,446.702z"/>
</g>
</svg>
