<?xml version="1.0" encoding="utf-8"?>
<!-- Generator: Adobe Illustrator 16.0.4, SVG Export Plug-In . SVG Version: 6.00 Build 0)  -->
<!DOCTYPE svg PUBLIC "-//W3C//DTD SVG 1.1//EN" "http://www.w3.org/Graphics/SVG/1.1/DTD/svg11.dtd">
<svg version="1.1" id="Layer_1" xmlns="http://www.w3.org/2000/svg" xmlns:xlink="http://www.w3.org/1999/xlink" x="0px" y="0px"
	 width="1024px" height="768px" viewBox="0 0 1024 768" enable-background="new 0 0 1024 768" xml:space="preserve">
<path fill="none" stroke="#2D2D2D" stroke-width="11.809" stroke-miterlimit="10" d="M512.156,187.796
	c-112.674,0-204.016,79.186-204.016,176.867c0,57.726,31.903,108.996,81.261,141.279c1.123,0.734,2.28,1.431,3.42,2.147
	c-2.44,11.566-9.91,40.778-28.175,72.114c0,0,57.447-6.954,94.294-44.792c16.971,3.966,34.799,6.112,53.215,6.112
	c112.671,0,204.014-79.184,204.014-176.862C716.17,266.981,624.828,187.796,512.156,187.796z"/>
<g>
	<path fill="#3C948B" d="M494.384,407.502v-7.237c0-8.293,1.508-15.19,4.524-20.695c3.013-5.503,8.293-11.195,15.832-17.076
		c8.972-7.087,14.758-12.59,17.358-16.511c2.602-3.92,3.902-8.594,3.902-14.022c0-6.333-2.111-11.195-6.332-14.586
		c-4.225-3.393-10.291-5.09-18.208-5.09c-7.165,0-13.796,1.018-19.903,3.053c-6.107,2.037-12.062,4.487-17.868,7.351l-9.499-19.902
		c15.304-8.52,31.701-12.779,49.191-12.779c14.774,0,26.5,3.619,35.17,10.855c8.668,7.239,13.004,17.229,13.004,29.969
		c0,5.653-0.83,10.687-2.487,15.097c-1.658,4.41-4.167,8.614-7.521,12.61c-3.354,3.994-9.144,9.196-17.359,15.604
		c-7.011,5.504-11.704,10.064-14.078,13.684c-2.374,3.618-3.562,8.481-3.562,14.588v5.088L494.384,407.502L494.384,407.502z
		 M489.747,443.577c0-11.385,5.542-17.076,16.624-17.076c5.428,0,9.573,1.489,12.439,4.468c2.865,2.977,4.297,7.18,4.297,12.608
		c0,5.353-1.452,9.594-4.353,12.723c-2.903,3.128-7.031,4.692-12.383,4.692c-5.354,0-9.461-1.526-12.326-4.58
		C491.178,453.359,489.747,449.08,489.747,443.577z"/>
</g>
</svg>
