<?xml version="1.0" encoding="utf-8"?>
<!-- Generator: Adobe Illustrator 16.0.4, SVG Export Plug-In . SVG Version: 6.00 Build 0)  -->
<!DOCTYPE svg PUBLIC "-//W3C//DTD SVG 1.1//EN" "http://www.w3.org/Graphics/SVG/1.1/DTD/svg11.dtd">
<svg version="1.1" id="Layer_1" xmlns="http://www.w3.org/2000/svg" xmlns:xlink="http://www.w3.org/1999/xlink" x="0px" y="0px"
	 width="1024px" height="768px" viewBox="0 0 1024 768" enable-background="new 0 0 1024 768" xml:space="preserve">
<path fill="#2D2D2D" stroke="#2D2D2D" stroke-width="3" stroke-miterlimit="10" d="M646.5,283.5v-46h-315v257.502
	c0,0,4.258,35.498,37.391,35.498h293.453c0,0,30.156-5.202,30.156-32.655V283.5H646.5z M369.838,507.5
	c0,0-15.338-3.269-15.338-17.468V257.5h270v237.502c0,0,0.926,7.498,8.735,12.498H369.838z"/>
<g>
	<rect x="376" y="305" fill="#2D2D2D" width="227" height="22"/>
	<rect x="376" y="350" fill="#2D2D2D" width="102" height="114"/>
	<rect x="500" y="350" fill="#2D2D2D" width="103" height="23"/>
	<rect x="500" y="396" fill="#2D2D2D" width="103" height="22"/>
	<rect x="500" y="441" fill="#2D2D2D" width="80" height="23"/>
</g>
<rect x="382" y="311" fill="#3C948B" width="215" height="10"/>
</svg>
