<?xml version="1.0" encoding="utf-8"?>
<!-- Generator: Adobe Illustrator 16.0.4, SVG Export Plug-In . SVG Version: 6.00 Build 0)  -->
<!DOCTYPE svg PUBLIC "-//W3C//DTD SVG 1.1//EN" "http://www.w3.org/Graphics/SVG/1.1/DTD/svg11.dtd">
<svg version="1.1" id="Layer_1" xmlns="http://www.w3.org/2000/svg" xmlns:xlink="http://www.w3.org/1999/xlink" x="0px" y="0px"
	 width="1024px" height="768px" viewBox="0 0 1024 768" enable-background="new 0 0 1024 768" xml:space="preserve">
<path fill="none" stroke="#2D2D2D" stroke-width="13.8928" stroke-miterlimit="10" d="M512.157,153.174
	c-132.556,0-240.016,93.158-240.016,208.076c0,67.912,37.533,128.23,95.6,166.209c1.322,0.865,2.682,1.684,4.024,2.527
	c-2.871,13.607-11.658,47.973-33.148,84.84c0,0,67.585-8.182,110.934-52.697c19.966,4.666,40.94,7.191,62.606,7.191
	c132.553,0,240.013-93.156,240.013-208.07C752.17,246.332,644.71,153.174,512.157,153.174z"/>
<g>
	<path fill="#3C948B" d="M491.249,411.65v-8.515c0-9.756,1.773-17.871,5.322-24.346c3.545-6.475,9.756-13.171,18.625-20.089
		c10.555-8.338,17.361-14.812,20.422-19.425c3.059-4.611,4.59-10.11,4.59-16.496c0-7.45-2.484-13.171-7.45-17.161
		c-4.969-3.992-12.106-5.988-21.42-5.988c-8.428,0-16.23,1.197-23.415,3.592c-7.184,2.396-14.19,5.278-21.02,8.648l-11.175-23.415
		c18.005-10.022,37.295-15.034,57.872-15.034c17.382,0,31.176,4.258,41.376,12.771c10.197,8.516,15.299,20.268,15.299,35.257
		c0,6.651-0.978,12.572-2.927,17.76c-1.951,5.189-4.902,10.134-8.847,14.835c-3.947,4.7-10.757,10.82-20.422,18.359
		c-8.248,6.475-13.77,11.84-16.563,16.097s-4.19,9.979-4.19,17.163v5.986H491.249z M485.793,454.09
		c0-13.393,6.52-20.089,19.557-20.089c6.386,0,11.262,1.752,14.634,5.256c3.371,3.502,5.056,8.447,5.056,14.833
		c0,6.297-1.709,11.287-5.122,14.968c-3.415,3.68-8.271,5.521-14.567,5.521c-6.299,0-11.131-1.796-14.501-5.389
		C487.477,465.598,485.793,460.564,485.793,454.09z"/>
</g>
</svg>
