<?xml version="1.0" encoding="utf-8"?>
<!-- Generator: Adobe Illustrator 16.0.4, SVG Export Plug-In . SVG Version: 6.00 Build 0)  -->
<!DOCTYPE svg PUBLIC "-//W3C//DTD SVG 1.1//EN" "http://www.w3.org/Graphics/SVG/1.1/DTD/svg11.dtd">
<svg version="1.1" id="Layer_1" xmlns="http://www.w3.org/2000/svg" xmlns:xlink="http://www.w3.org/1999/xlink" x="0px" y="0px"
	 width="1024px" height="768px" viewBox="0 0 1024 768" enable-background="new 0 0 1024 768" xml:space="preserve">
<path fill="#2D2D2D" d="M526.216,517.99c-9.26-30.826-39.705-160.288,45.077-315.239c0,0-120.023,125.645-86.706,315.425
	c-70.331,1.896-123.913,11.631-123.913,23.367c0,13.095,66.686,23.705,148.941,23.705c82.26,0,148.942-10.611,148.942-23.705
	C658.563,529.344,600.663,519.302,526.216,517.99z"/>
<path fill="#3C948B" d="M471.476,336.804c0,0,0.938-40.74-28.651-66.256c0,0,32.324,13.632,45.879,47.801
	c1.38-20.553-1.396-74.633-86.813-79.078C401.884,239.272,393.435,325.894,471.476,336.804z"/>
<path fill="#3C948B" d="M523.21,421.971c26.757-45.103,82.139-50.764,82.139-50.764c-47.54,24.957-68.183,56.64-71.115,76.074
	C656.209,467.145,661.99,340.369,661.99,340.369C546.285,319.76,527.76,394.028,523.21,421.971z"/>
</svg>
