<?xml version="1.0" encoding="utf-8"?>
<!-- Generator: Adobe Illustrator 16.0.4, SVG Export Plug-In . SVG Version: 6.00 Build 0)  -->
<!DOCTYPE svg PUBLIC "-//W3C//DTD SVG 1.1//EN" "http://www.w3.org/Graphics/SVG/1.1/DTD/svg11.dtd">
<svg version="1.1" id="Layer_1" xmlns="http://www.w3.org/2000/svg" xmlns:xlink="http://www.w3.org/1999/xlink" x="0px" y="0px"
	 width="1024px" height="768px" viewBox="0 0 1024 768" enable-background="new 0 0 1024 768" xml:space="preserve">
<circle fill="#069791" cx="528.873" cy="378.245" r="214.169"/>
<polygon stroke="#000000" stroke-width="0.5641" stroke-miterlimit="10" points="527.466,327.201 512.885,294.244 495.713,276.56 
	487.675,271.737 475.617,266.914 469.187,266.914 485.264,280.579 492.499,288.617 497.321,295.45 502.145,323.985 497.321,332.828 
	488.881,344.484 472.803,350.11 461.148,348.904 447.482,337.651 437.032,329.613 422.562,317.556 433.012,333.632 445.874,348.904 
	456.325,356.943 465.97,362.57 468.382,369.001 469.187,374.628 460.344,385.882 452.305,397.135 445.82,405.389 441.051,416.428 
	435.424,427.682 430.6,438.935 426.18,458.629 424.549,493.864 428.19,509.27 438.641,517.711 452.686,526.285 474.009,536.199 
	494.486,538.879 512.885,540.218 533.339,538.879 549.685,535.931 563.54,530.572 574.764,524.332 585.344,510.877 585.646,500.562 
	584.54,495.605 582.531,489.576 582.531,483.948 582.531,478.323 582.531,471.089 582.531,463.05 588.961,454.207 603.833,438.131 
	614.686,430.092 657.289,418.839 662.112,416.428 665.328,403.566 665.328,401.154 665.328,393.921 671.759,387.489 669.75,374.628 
	667.338,366.991 662.396,362.642 658.094,358.953 633.174,358.953 597,355.336 577.707,350.513 559.792,332.607 541.533,330.416 "/>
<path fill="#FFFFFF" stroke="#000000" stroke-width="0.5641" stroke-miterlimit="10" d="M585.344,510.877
	c0,0-13.666,26.929-57.878,27.733c-44.212,0.803-53.457,2.01-98.472-29.741c0,0,12.318,56.849,70.338,135.847h71.542
	C570.874,644.716,590.971,535.396,585.344,510.877z"/>
<path fill="#FFFFFF" stroke="#000000" stroke-width="0.5641" stroke-miterlimit="10" d="M428.19,509.27l15,9.28l9.269,5.789
	l22.213,10.474l35.913,4.068c0,0-12.059,34.294-11.657,48.764c0,0-63.505-53.054-66.72-65.513L428.19,509.27"/>
<path fill="#FFFFFF" stroke="#000000" stroke-width="0.5641" stroke-miterlimit="10" d="M585.646,510.877L576,522.935l-12.46,7.638
	l-18.89,5.627l-6.834,2.009c0,0,24.518,24.918,22.105,48.23c0,0,23.715-38.585,25.725-51.848V510.877z"/>
<path fill="#163963" stroke="#000000" stroke-width="0.5641" stroke-miterlimit="10" d="M425.339,497.068l-76.681,48.24
	l-5.895,41.265l-4.822,24.649l-3.217,33.493h166.667C501.392,644.716,438.738,561.376,425.339,497.068z"/>
<g>
	<circle fill="#F9F293" stroke="#000000" stroke-width="0.5641" stroke-miterlimit="10" cx="528.873" cy="376.437" r="18.288"/>
	<g>
		<rect x="527.064" y="367.795" stroke="#000000" stroke-width="0.5641" stroke-miterlimit="10" width="3.617" height="17.282"/>
		<rect x="520.231" y="374.628" stroke="#000000" stroke-width="0.5641" stroke-miterlimit="10" width="17.283" height="3.617"/>
	</g>
</g>
<path fill="#163963" stroke="#000000" stroke-width="0.5641" stroke-miterlimit="10" d="M584.234,497.068l68.328,55.208
	l16.479,92.439h-98.874C570.167,644.716,591.068,531.488,584.234,497.068z"/>
<path fill="#E21F26" stroke="#000000" stroke-width="0.5641" stroke-miterlimit="10" d="M537.816,538.208
	c-1.607,0-27.231,0.673-27.231,0.673l-2.18,6.51l-4.821,16.113l18.368,32.974l-7.046,50.238h45.82l-0.791-3.214l-21.303-49.438
	l13.338-34.857l-6.367-9.673L537.816,538.208z"/>
<line fill="none" stroke="#000000" stroke-width="0.5641" stroke-miterlimit="10" x1="538.633" y1="592.064" x2="521.952" y2="594.478"/>
</svg>
