<?xml version="1.0" encoding="utf-8"?>
<!-- Generator: Adobe Illustrator 16.0.4, SVG Export Plug-In . SVG Version: 6.00 Build 0)  -->
<!DOCTYPE svg PUBLIC "-//W3C//DTD SVG 1.1//EN" "http://www.w3.org/Graphics/SVG/1.1/DTD/svg11.dtd">
<svg version="1.1" id="Layer_1" xmlns="http://www.w3.org/2000/svg" xmlns:xlink="http://www.w3.org/1999/xlink" x="0px" y="0px"
	 width="1200px" height="890px" viewBox="0 0 1200 890" enable-background="new 0 0 1200 890" xml:space="preserve">
<g>
	<path fill="#E1E1E1" d="M276.538,262H106.536c3.651,20,19.054,21,19.054,21h150.948h151.443c0,0,15.4-1,19.054-21H276.538z"/>
	<path fill="#CCCCCC" d="M310.135,262h-33.597h-34.087c0,0-0.699,7,7.377,10h26.709h26.222C310.835,269,310.135,262,310.135,262z"/>
	<path fill="#808080" d="M399.019,98H154.567c-4.646,0-8.565,3.56-8.565,8.271v28.579v13.533V262h262V148.384v-13.533v-28.579
		C408,101.56,403.664,98,399.019,98z"/>
	<rect x="156" y="107" fill="#CCCCCC" width="243" height="147"/>
</g>
<text transform="matrix(1 0 0 1 242.4358 197.2559)" fill="#3C948B" font-family="'OpenSans-Semibold'" font-size="59.0541">sy.</text>
<g>
	<path fill="#E1E1E1" d="M922.535,262H752.534c3.653,20,19.056,21,19.056,21h150.945h151.445c0,0,15.4-1,19.054-21H922.535z"/>
	<path fill="#CCCCCC" d="M956.135,262h-33.6h-34.086c0,0-0.697,7,7.377,10h26.709h26.225C956.836,269,956.135,262,956.135,262z"/>
	<path fill="#808080" d="M1045.02,98H800.567c-4.646,0-8.565,3.56-8.565,8.271v28.579v13.533V262H1054V148.384v-13.533v-28.579
		C1054,101.56,1049.666,98,1045.02,98z"/>
	<rect x="802" y="107" fill="#CCCCCC" width="243" height="147"/>
</g>
<text transform="matrix(1 0 0 1 888.4358 197.2559)" fill="#3C948B" font-family="'OpenSans-Semibold'" font-size="59.0541">sy.</text>
<g>
	<path fill="#161616" d="M731.156,812.211H468.844c-7.999,0-14.543-8.12-14.543-12.12v-87.287c0-3.998,6.544-7.271,14.543-7.271
		h262.312c7.999,0,14.543,3.271,14.543,7.271v87.287C745.698,804.091,739.155,812.211,731.156,812.211"/>
	<path fill="#CCCCCC" d="M731.156,725.856H468.844c-7.999,0-14.543-6.547-14.543-14.544l48.478-160.03
		c0-7.998,8.968-14.543,16.967-14.543h160.51c8,0,16.968,6.545,16.968,14.543l48.478,160.03
		C745.698,719.312,739.155,725.856,731.156,725.856"/>
</g>
<path fill="#319ACB" d="M655.06,462.655c-0.084,2.657-1.242,4.674-3.63,5.896c-2.34,1.196-4.695,1.099-6.795-0.465
	c-2.047-1.521-3.88-3.328-5.896-4.891c-9.646-7.479-20.562-11.92-32.709-12.963c-18.371-1.58-34.559,3.755-48.39,16.025
	c-1.492,1.324-2.921,2.643-5.031,2.956c-2.534,0.374-5.384-0.897-6.729-3.176c-1.318-2.229-1.303-5.479,0.388-7.3
	c1.859-2.002,3.893-3.877,6.031-5.584c10.947-8.734,23.381-14.202,37.271-15.936c24.132-3.01,45.227,3.812,63.167,20.266
	C654.238,458.866,655.077,460.569,655.06,462.655"/>
<path fill="#319ACB" d="M640.092,480.05c-0.113,2.082-1.193,4.109-3.527,5.34c-2.318,1.222-4.68,1.183-6.804-0.339
	c-1.946-1.394-3.661-3.107-5.582-4.542c-14.334-10.702-33.946-10.717-48.287-0.033c-1.647,1.228-3.146,2.649-4.719,3.977
	c-3.199,2.697-7.58,2.188-10.04-1.16c-1.943-2.646-1.516-6.408,1.143-8.911c12.014-11.309,26.241-16.487,42.714-15.077
	c12.79,1.096,23.708,6.404,32.945,15.244C639.343,475.894,640.104,477.558,640.092,480.05"/>
<path fill="#319ACB" d="M625.291,496.534c-0.373,3.036-1.826,5.153-4.596,6.169c-2.82,1.033-5.34,0.239-7.402-1.886
	c-3.029-3.119-6.639-5.092-10.976-5.613c-5.729-0.691-10.703,0.984-14.871,4.959c-1.282,1.225-2.557,2.377-4.361,2.777
	c-2.615,0.579-5.478-0.533-7.003-2.791c-1.525-2.255-1.529-5.5,0.171-7.607c3.805-4.71,8.73-7.846,14.486-9.546
	c9.722-2.868,18.867-1.457,27.269,4.253c2.457,1.67,4.855,3.494,6.312,6.182C624.827,494.366,624.979,495.495,625.291,496.534"/>
</svg>
