<?xml version="1.0" encoding="utf-8"?>
<!-- Generator: Adobe Illustrator 16.0.4, SVG Export Plug-In . SVG Version: 6.00 Build 0)  -->
<!DOCTYPE svg PUBLIC "-//W3C//DTD SVG 1.1//EN" "http://www.w3.org/Graphics/SVG/1.1/DTD/svg11.dtd">
<svg version="1.1" id="Layer_1" xmlns="http://www.w3.org/2000/svg" xmlns:xlink="http://www.w3.org/1999/xlink" x="0px" y="0px"
	 width="1200px" height="890px" viewBox="0 0 1200 890" enable-background="new 0 0 1200 890" xml:space="preserve">
<line fill="none" stroke="#3C948B" stroke-width="3" stroke-miterlimit="10" x1="218.07" y1="270" x2="524.07" y2="164"/>
<line fill="none" stroke="#3C948B" stroke-width="3" stroke-miterlimit="10" x1="218.07" y1="270" x2="600.07" y2="412"/>
<line fill="none" stroke="#3C948B" stroke-width="3" stroke-miterlimit="10" x1="218.07" y1="270" x2="499.07" y2="695"/>
<line fill="none" stroke="#3C948B" stroke-width="3" stroke-miterlimit="10" x1="218.07" y1="270" x2="140.07" y2="561"/>
<line fill="none" stroke="#3C948B" stroke-width="3" stroke-miterlimit="10" x1="140.07" y1="561" x2="524.07" y2="164"/>
<line fill="none" stroke="#3C948B" stroke-width="3" stroke-miterlimit="10" x1="524.07" y1="164" x2="880.07" y2="382"/>
<line fill="none" stroke="#3C948B" stroke-width="3" stroke-miterlimit="10" x1="880.07" y1="382" x2="986.07" y2="793"/>
<line fill="none" stroke="#3C948B" stroke-width="3" stroke-miterlimit="10" x1="600.07" y1="412" x2="986.07" y2="793"/>
<line fill="none" stroke="#3C948B" stroke-width="3" stroke-miterlimit="10" x1="986.07" y1="793" x2="218.07" y2="270"/>
<line fill="none" stroke="#3C948B" stroke-width="3" stroke-miterlimit="10" x1="600.07" y1="412" x2="524.07" y2="164"/>
<line fill="none" stroke="#3C948B" stroke-width="3" stroke-miterlimit="10" x1="880.07" y1="382" x2="600.07" y2="412"/>
<line fill="none" stroke="#3C948B" stroke-width="3" stroke-miterlimit="10" x1="880.07" y1="382" x2="499.07" y2="695"/>
<g>
	<path fill="#E1E1E1" d="M217.768,313h-89.364c1.922,11,10.018,12,10.018,12h79.347h79.61c0,0,8.096-1,10.017-12H217.768z"/>
	<path fill="#CCCCCC" d="M235.43,313h-17.662h-17.917c0,0-0.368,4,3.878,6h14.039h13.785C235.798,317,235.43,313,235.43,313z"/>
	<path fill="#808080" d="M282.153,227h-128.5c-2.442,0-4.652,2.074-4.652,4.551v15.023v7.114V313h137v-59.312v-7.114v-15.023
		C286,229.074,284.596,227,282.153,227z"/>
	<rect x="154" y="231" fill="#CCCCCC" width="128" height="78"/>
</g>
<line fill="none" stroke="#3C948B" stroke-width="3" stroke-miterlimit="10" x1="600.07" y1="412" x2="1056.07" y2="187"/>
<line fill="none" stroke="#3C948B" stroke-width="3" stroke-miterlimit="10" x1="524.07" y1="164" x2="1056.07" y2="187"/>
<line fill="none" stroke="#3C948B" stroke-width="3" stroke-miterlimit="10" x1="880.07" y1="382" x2="1056.07" y2="187"/>
<g>
	<path fill="#E1E1E1" d="M523.768,207h-89.363c1.921,11,10.018,12,10.018,12h79.347h79.61c0,0,8.096-1,10.017-12H523.768z"/>
	<path fill="#CCCCCC" d="M541.43,207h-17.662h-17.917c0,0-0.368,4,3.878,6h14.039h13.785C541.798,211,541.43,207,541.43,207z"/>
	<path fill="#808080" d="M588.152,121H459.653c-2.442,0-4.652,2.074-4.652,4.551v15.023v7.114V207h137v-59.312v-7.114v-15.023
		C592,123.074,590.596,121,588.152,121z"/>
	<rect x="460" y="125" fill="#CCCCCC" width="128" height="78"/>
</g>
<g>
	<path fill="#E1E1E1" d="M879.768,425h-89.363c1.921,11,10.018,12,10.018,12h79.347h79.61c0,0,8.096-1,10.017-12H879.768z"/>
	<path fill="#CCCCCC" d="M897.43,425h-17.662h-17.917c0,0-0.368,4,3.878,6h14.039h13.785C897.798,429,897.43,425,897.43,425z"/>
	<path fill="#808080" d="M944.152,339H815.653c-2.442,0-4.652,2.074-4.652,4.551v15.023v7.114V425h137v-59.312v-7.114v-15.023
		C948,341.074,946.596,339,944.152,339z"/>
	<rect x="816" y="343" fill="#CCCCCC" width="128" height="78"/>
</g>
<g>
	<path fill="#E1E1E1" d="M599.768,455h-89.363c1.921,11,10.018,12,10.018,12h79.347h79.61c0,0,8.096-1,10.017-12H599.768z"/>
	<path fill="#CCCCCC" d="M617.43,455h-17.662h-17.917c0,0-0.368,4,3.878,6h14.039h13.785C617.798,459,617.43,455,617.43,455z"/>
	<path fill="#808080" d="M664.152,369H535.653c-2.442,0-4.652,2.074-4.652,4.551v15.023v7.114V455h137v-59.312v-7.114v-15.023
		C668,371.074,666.596,369,664.152,369z"/>
	<rect x="536" y="373" fill="#CCCCCC" width="128" height="78"/>
</g>
<g>
	<path fill="#E1E1E1" d="M985.768,832h-89.363c1.921,11,10.018,12,10.018,12h79.347h79.61c0,0,8.096-1,10.017-12H985.768z"/>
	<path fill="#CCCCCC" d="M1003.43,832h-17.662h-17.917c0,0-0.368,4,3.878,6h14.039h13.785C1003.798,836,1003.43,832,1003.43,832z"/>
	<path fill="#808080" d="M1050.152,746H921.653c-2.442,0-4.652,2.074-4.652,4.551v15.023v7.113V832h137v-59.312v-7.112v-15.023
		C1054,748.074,1052.596,746,1050.152,746z"/>
	<rect x="922" y="750" fill="#CCCCCC" width="128" height="78"/>
</g>
<g>
	<path fill="#E1E1E1" d="M498.768,738h-89.363c1.921,11,10.018,12,10.018,12h79.347h79.61c0,0,8.096-1,10.017-12H498.768z"/>
	<path fill="#CCCCCC" d="M516.43,738h-17.662h-17.917c0,0-0.368,4,3.878,6h14.039h13.785C516.798,742,516.43,738,516.43,738z"/>
	<path fill="#808080" d="M563.152,652H434.653c-2.442,0-4.652,2.074-4.652,4.551v15.023v7.113V738h137v-59.312v-7.112v-15.023
		C567,654.074,565.596,652,563.152,652z"/>
	<rect x="435" y="656" fill="#CCCCCC" width="128" height="78"/>
</g>
<g>
	<path fill="#E1E1E1" d="M139.768,604H50.404c1.922,11,10.018,12,10.018,12h79.347h79.61c0,0,8.096-1,10.017-12H139.768z"/>
	<path fill="#CCCCCC" d="M157.43,604h-17.662h-17.917c0,0-0.368,4,3.878,6h14.039h13.785C157.798,608,157.43,604,157.43,604z"/>
	<path fill="#808080" d="M204.152,518H75.653C73.21,518,71,520.074,71,522.551v15.023v7.113V604h137v-59.312v-7.112v-15.023
		C208,520.074,206.596,518,204.152,518z"/>
	<rect x="76" y="522" fill="#CCCCCC" width="128" height="78"/>
</g>
<circle fill="#3C948B" cx="218.07" cy="270" r="17.367"/>
<g>
	<path fill="#E1E1E1" d="M1055.768,230h-89.363c1.921,11,10.018,12,10.018,12h79.347h79.61c0,0,8.096-1,10.017-12H1055.768z"/>
	<path fill="#CCCCCC" d="M1073.43,230h-17.662h-17.917c0,0-0.368,4,3.878,6h14.039h13.785C1073.798,234,1073.43,230,1073.43,230z"/>
	<path fill="#808080" d="M1120.152,144H991.653c-2.442,0-4.652,2.074-4.652,4.551v15.023v7.114V230h137v-59.312v-7.114v-15.023
		C1124,146.074,1122.596,144,1120.152,144z"/>
	<rect x="992" y="148" fill="#CCCCCC" width="128" height="78"/>
</g>
<circle fill="#3C948B" cx="1056.07" cy="187" r="17.367"/>
<circle fill="#3C948B" cx="599.07" cy="412" r="17.367"/>
<circle fill="#3C948B" cx="985.07" cy="793" r="17.367"/>
<rect x="507" y="147" fill="#3C948B" width="34" height="34"/>
<rect x="863" y="365" fill="#3C948B" width="34" height="34"/>
<rect x="482" y="678" fill="#3C948B" width="34" height="34"/>
<rect x="122" y="544" fill="#3C948B" width="34" height="34"/>
</svg>
