<?xml version="1.0" encoding="utf-8"?>
<!-- Generator: Adobe Illustrator 18.0.0, SVG Export Plug-In . SVG Version: 6.00 Build 0)  -->
<!DOCTYPE svg PUBLIC "-//W3C//DTD SVG 1.1//EN" "http://www.w3.org/Graphics/SVG/1.1/DTD/svg11.dtd">
<svg version="1.1" id="Layer_1" xmlns="http://www.w3.org/2000/svg" xmlns:xlink="http://www.w3.org/1999/xlink" x="0px" y="0px"
	 viewBox="0 0 1200 890" enable-background="new 0 0 1200 890" xml:space="preserve">
<path fill="none" stroke="#3C948B" stroke-width="3" stroke-miterlimit="10" d="M567,159"/>
<path fill="none" stroke="#3C948B" stroke-width="3" stroke-miterlimit="10" d="M123.896,204.816"/>
<line fill="none" stroke="#3C948B" stroke-width="3" stroke-miterlimit="10" x1="567" y1="159" x2="291.307" y2="429.018"/>
<line fill="none" stroke="#3C948B" stroke-width="3" stroke-miterlimit="10" x1="123.896" y1="204.816" x2="983.896" y2="438.816"/>
<line fill="none" stroke="#3C948B" stroke-width="3" stroke-miterlimit="10" x1="123.896" y1="204.816" x2="291.307" y2="429.018"/>
<line fill="none" stroke="#3C948B" stroke-width="3" stroke-miterlimit="10" x1="567" y1="159" x2="619.896" y2="534.816"/>
<line fill="none" stroke="#3C948B" stroke-width="3" stroke-miterlimit="10" x1="567" y1="159" x2="931" y2="657"/>
<line fill="none" stroke="#3C948B" stroke-width="3" stroke-miterlimit="10" x1="619.896" y1="534.816" x2="931" y2="657"/>
<line fill="none" stroke="#3C948B" stroke-width="3" stroke-miterlimit="10" x1="566.896" y1="158.816" x2="983.896" y2="438.816"/>
<line fill="none" stroke="#3C948B" stroke-width="3" stroke-miterlimit="10" x1="193.896" y1="733.816" x2="931" y2="657"/>
<line fill="none" stroke="#3C948B" stroke-width="3" stroke-miterlimit="10" x1="193.896" y1="733.816" x2="618.288" y2="534.816"/>
<line fill="none" stroke="#3C948B" stroke-width="3" stroke-miterlimit="10" x1="618.288" y1="534.816" x2="964.101" y2="187.146"/>
<line fill="none" stroke="#3C948B" stroke-width="3" stroke-miterlimit="10" x1="983.896" y1="438.816" x2="964.101" y2="187.146"/>
<line fill="none" stroke="#3C948B" stroke-width="3" stroke-miterlimit="10" x1="291.307" y1="429.018" x2="193.896" y2="733.816"/>
<path fill="none" stroke="#3C948B" stroke-width="3" stroke-miterlimit="10" d="M567,159"/>
<path fill="none" stroke="#3C948B" stroke-width="3" stroke-miterlimit="10" d="M965.702,187.146"/>
<line fill="none" stroke="#3C948B" stroke-width="3" stroke-miterlimit="10" x1="619.896" y1="534.816" x2="292.182" y2="430.64"/>
<g>
	<g>
		<path opacity="0.15" fill-rule="evenodd" clip-rule="evenodd" fill="#3D3D3D" d="M565.9,253.397
			c26.984,0,48.859,0.972,48.859,2.171c0,1.199-21.875,2.171-48.859,2.171c-26.984,0-48.859-0.972-48.859-2.171
			C517.041,254.369,538.916,253.397,565.9,253.397z"/>
		<path fill-rule="evenodd" clip-rule="evenodd" fill="#3D3D3D" d="M467.639,214.979V102.603c0-2.398,1.945-4.343,4.343-4.343
			h184.036c2.399,0,4.343,1.945,4.343,4.343v112.376H467.639z"/>
		<path fill-rule="evenodd" clip-rule="evenodd" fill="#E9E9E9" d="M656.018,232.351H471.982c-2.398,0-4.343-1.945-4.343-4.343
			v-13.029h192.722v13.029C660.361,230.407,658.417,232.351,656.018,232.351z"/>
		<path fill-rule="evenodd" clip-rule="evenodd" fill="#E9E9E9" d="M533.328,255.06v-2.392l7.608-0.929l5.247-20.023h38.896
			l5.246,20.023l7.608,0.929v2.392H533.328z"/>
		<path fill-rule="evenodd" clip-rule="evenodd" fill="#E9E9E9" d="M565.9,101.026c0.563,0,1.019,0.456,1.019,1.019
			c0,0.563-0.456,1.019-1.019,1.019c-0.563,0-1.019-0.456-1.019-1.019C564.881,101.483,565.337,101.026,565.9,101.026z"/>
		<path fill-rule="evenodd" clip-rule="evenodd" fill="#F4F4F4" d="M654.39,105.86v101.518H473.611V105.86H654.39z"/>
		<path opacity="0.08" fill-rule="evenodd" clip-rule="evenodd" fill="#3D3D3D" d="M545.471,235.507l0.711-3.791h38.896l0.71,3.791
			H545.471z"/>
	</g>
	<circle fill="#3C948B" cx="567" cy="159" r="11"/>
</g>
<g>
	<g>
		<path opacity="0.15" fill-rule="evenodd" clip-rule="evenodd" fill="#3D3D3D" d="M929.9,751.397
			c26.984,0,48.859,0.972,48.859,2.171s-21.875,2.171-48.859,2.171c-26.984,0-48.859-0.972-48.859-2.171
			S902.916,751.397,929.9,751.397z"/>
		<path fill-rule="evenodd" clip-rule="evenodd" fill="#3D3D3D" d="M831.639,712.979V600.603c0-2.398,1.945-4.343,4.343-4.343
			h184.036c2.399,0,4.343,1.945,4.343,4.343v112.376H831.639z"/>
		<path fill-rule="evenodd" clip-rule="evenodd" fill="#E9E9E9" d="M1020.018,730.351H835.982c-2.398,0-4.343-1.945-4.343-4.343
			v-13.029h192.722v13.029C1024.361,728.407,1022.417,730.351,1020.018,730.351z"/>
		<path fill-rule="evenodd" clip-rule="evenodd" fill="#E9E9E9" d="M897.328,753.06v-2.392l7.608-0.93l5.247-20.023h38.896
			l5.246,20.023l7.608,0.93v2.392H897.328z"/>
		<path fill-rule="evenodd" clip-rule="evenodd" fill="#E9E9E9" d="M929.9,599.026c0.563,0,1.019,0.456,1.019,1.019
			c0,0.563-0.456,1.019-1.019,1.019c-0.563,0-1.019-0.456-1.019-1.019C928.881,599.483,929.337,599.026,929.9,599.026z"/>
		<path fill-rule="evenodd" clip-rule="evenodd" fill="#F4F4F4" d="M1018.39,603.86v101.518H837.611V603.86H1018.39z"/>
		<path opacity="0.08" fill-rule="evenodd" clip-rule="evenodd" fill="#3D3D3D" d="M909.471,733.507l0.711-3.791h38.896l0.71,3.791
			H909.471z"/>
	</g>
	<circle fill="#3C948B" cx="931" cy="657" r="11"/>
</g>
<g>
	<g>
		<path opacity="0.15" fill-rule="evenodd" clip-rule="evenodd" fill="#3D3D3D" d="M964.871,258.459
			c20.385,0,36.911,0.734,36.911,1.64c0,0.906-16.526,1.64-36.911,1.64c-20.385,0-36.911-0.734-36.911-1.64
			C927.96,259.193,944.486,258.459,964.871,258.459z"/>
		<path fill-rule="evenodd" clip-rule="evenodd" fill="#3D3D3D" d="M890.639,229.436v-84.895c0-1.812,1.469-3.281,3.281-3.281
			h139.03c1.812,0,3.281,1.469,3.281,3.281v84.895H890.639z"/>
		<path fill-rule="evenodd" clip-rule="evenodd" fill="#E9E9E9" d="M1032.951,242.56H893.92c-1.812,0-3.281-1.469-3.281-3.281
			v-9.843h145.592v9.843C1036.232,241.091,1034.763,242.56,1032.951,242.56z"/>
		<path fill-rule="evenodd" clip-rule="evenodd" fill="#E9E9E9" d="M940.264,259.716v-1.807l5.747-0.702l3.964-15.127h29.384
			l3.963,15.127l5.748,0.702v1.807H940.264z"/>
		<path fill-rule="evenodd" clip-rule="evenodd" fill="#E9E9E9" d="M964.871,143.35c0.425,0,0.77,0.345,0.77,0.77
			c0,0.425-0.345,0.77-0.77,0.77s-0.77-0.345-0.77-0.77C964.101,143.695,964.445,143.35,964.871,143.35z"/>
		<path fill-rule="evenodd" clip-rule="evenodd" fill="#F4F4F4" d="M1031.721,147.002v76.692h-136.57v-76.692H1031.721z"/>
		<path opacity="0.08" fill-rule="evenodd" clip-rule="evenodd" fill="#3D3D3D" d="M949.438,244.944l0.537-2.864h29.384l0.536,2.864
			H949.438z"/>
	</g>
	<circle fill="#3C948B" cx="965.702" cy="187.146" r="8.31"/>
</g>
<g>
	<g>
		<path opacity="0.15" fill-rule="evenodd" clip-rule="evenodd" fill="#3D3D3D" d="M983.306,489.412
			c14.463,0,26.188,0.521,26.188,1.164s-11.725,1.164-26.188,1.164s-26.188-0.521-26.188-1.164S968.843,489.412,983.306,489.412z"/>
		<path fill-rule="evenodd" clip-rule="evenodd" fill="#3D3D3D" d="M930.639,468.821v-60.232c0-1.286,1.042-2.328,2.328-2.328
			h98.641c1.286,0,2.328,1.042,2.328,2.328v60.232H930.639z"/>
		<path fill-rule="evenodd" clip-rule="evenodd" fill="#E9E9E9" d="M1031.608,478.132h-98.641c-1.286,0-2.328-1.042-2.328-2.328
			v-6.983h103.297v6.983C1033.936,477.089,1032.894,478.132,1031.608,478.132z"/>
		<path fill-rule="evenodd" clip-rule="evenodd" fill="#E9E9E9" d="M965.847,490.304v-1.282l4.078-0.498l2.812-10.732h20.848
			l2.812,10.732l4.078,0.498v1.282H965.847z"/>
		<path fill-rule="evenodd" clip-rule="evenodd" fill="#E9E9E9" d="M983.306,407.743c0.302,0,0.546,0.245,0.546,0.546
			s-0.245,0.546-0.546,0.546c-0.302,0-0.546-0.245-0.546-0.546S983.004,407.743,983.306,407.743z"/>
		<path fill-rule="evenodd" clip-rule="evenodd" fill="#F4F4F4" d="M1030.735,410.334v54.413H933.84v-54.413H1030.735z"/>
		<path opacity="0.08" fill-rule="evenodd" clip-rule="evenodd" fill="#3D3D3D" d="M972.357,479.823l0.381-2.032h20.848l0.381,2.032
			H972.357z"/>
	</g>
	<circle fill="#3C948B" cx="983.896" cy="438.816" r="5.896"/>
</g>
<g>
	<g>
		<path opacity="0.15" fill-rule="evenodd" clip-rule="evenodd" fill="#3D3D3D" d="M619.306,585.412
			c14.463,0,26.188,0.521,26.188,1.164c0,0.643-11.725,1.164-26.188,1.164s-26.188-0.521-26.188-1.164
			C593.118,585.933,604.843,585.412,619.306,585.412z"/>
		<path fill-rule="evenodd" clip-rule="evenodd" fill="#3D3D3D" d="M566.639,564.821v-60.232c0-1.286,1.042-2.328,2.328-2.328
			h98.641c1.286,0,2.328,1.042,2.328,2.328v60.232H566.639z"/>
		<path fill-rule="evenodd" clip-rule="evenodd" fill="#E9E9E9" d="M667.608,574.132h-98.641c-1.286,0-2.328-1.042-2.328-2.328
			v-6.983h103.297v6.983C669.936,573.089,668.894,574.132,667.608,574.132z"/>
		<path fill-rule="evenodd" clip-rule="evenodd" fill="#E9E9E9" d="M601.847,586.304v-1.282l4.078-0.498l2.812-10.732h20.848
			l2.812,10.732l4.078,0.498v1.282H601.847z"/>
		<path fill-rule="evenodd" clip-rule="evenodd" fill="#E9E9E9" d="M619.306,503.743c0.302,0,0.546,0.245,0.546,0.546
			s-0.245,0.546-0.546,0.546c-0.302,0-0.546-0.245-0.546-0.546S619.004,503.743,619.306,503.743z"/>
		<path fill-rule="evenodd" clip-rule="evenodd" fill="#F4F4F4" d="M666.736,506.334v54.413H569.84v-54.413H666.736z"/>
		<path opacity="0.08" fill-rule="evenodd" clip-rule="evenodd" fill="#3D3D3D" d="M608.357,575.823l0.381-2.032h20.848l0.381,2.032
			H608.357z"/>
	</g>
	<circle fill="#3C948B" cx="619.896" cy="534.816" r="5.896"/>
</g>
<g>
	<g>
		<path opacity="0.15" fill-rule="evenodd" clip-rule="evenodd" fill="#3D3D3D" d="M290.37,509.456
			c22.994,0,41.634,0.828,41.634,1.85c0,1.022-18.64,1.85-41.634,1.85c-22.994,0-41.634-0.828-41.634-1.85
			C248.736,510.285,267.376,509.456,290.37,509.456z"/>
		<path fill-rule="evenodd" clip-rule="evenodd" fill="#3D3D3D" d="M206.639,476.72v-95.759c0-2.044,1.657-3.701,3.701-3.701
			h156.822c2.044,0,3.701,1.657,3.701,3.701v95.759H206.639z"/>
		<path fill-rule="evenodd" clip-rule="evenodd" fill="#E9E9E9" d="M367.161,491.523H210.34c-2.044,0-3.701-1.657-3.701-3.701
			V476.72h164.223v11.102C370.862,489.866,369.206,491.523,367.161,491.523z"/>
		<path fill-rule="evenodd" clip-rule="evenodd" fill="#E9E9E9" d="M262.614,510.874v-2.038l6.483-0.792l4.471-17.062h33.144
			l4.471,17.062l6.483,0.792v2.038H262.614z"/>
		<path fill-rule="evenodd" clip-rule="evenodd" fill="#E9E9E9" d="M290.37,379.617c0.48,0,0.869,0.389,0.869,0.869
			c0,0.48-0.389,0.869-0.869,0.869c-0.48,0-0.869-0.389-0.869-0.869C289.501,380.006,289.89,379.617,290.37,379.617z"/>
		<path fill-rule="evenodd" clip-rule="evenodd" fill="#F4F4F4" d="M365.774,383.737v86.506H211.728v-86.506H365.774z"/>
		<path opacity="0.08" fill-rule="evenodd" clip-rule="evenodd" fill="#3D3D3D" d="M272.962,494.212l0.606-3.23h33.144l0.605,3.23
			H272.962z"/>
	</g>
	<circle fill="#3C948B" cx="291.307" cy="429.018" r="9.373"/>
</g>
<g>
	<g>
		<path opacity="0.15" fill-rule="evenodd" clip-rule="evenodd" fill="#3D3D3D" d="M123.306,255.412
			c14.463,0,26.188,0.521,26.188,1.164c0,0.643-11.725,1.164-26.188,1.164c-14.463,0-26.188-0.521-26.188-1.164
			C97.118,255.933,108.843,255.412,123.306,255.412z"/>
		<path fill-rule="evenodd" clip-rule="evenodd" fill="#3D3D3D" d="M70.639,234.821v-60.232c0-1.286,1.042-2.328,2.328-2.328h98.641
			c1.286,0,2.328,1.042,2.328,2.328v60.232H70.639z"/>
		<path fill-rule="evenodd" clip-rule="evenodd" fill="#E9E9E9" d="M171.608,244.132H72.967c-1.286,0-2.328-1.042-2.328-2.328
			v-6.983h103.297v6.983C173.936,243.089,172.894,244.132,171.608,244.132z"/>
		<path fill-rule="evenodd" clip-rule="evenodd" fill="#E9E9E9" d="M105.848,256.304v-1.282l4.078-0.498l2.812-10.732h20.848
			l2.812,10.732l4.078,0.498v1.282H105.848z"/>
		<path fill-rule="evenodd" clip-rule="evenodd" fill="#E9E9E9" d="M123.306,173.743c0.302,0,0.546,0.245,0.546,0.546
			c0,0.302-0.245,0.546-0.546,0.546c-0.302,0-0.546-0.245-0.546-0.546C122.76,173.988,123.004,173.743,123.306,173.743z"/>
		<path fill-rule="evenodd" clip-rule="evenodd" fill="#F4F4F4" d="M170.736,176.334v54.413H73.84v-54.413H170.736z"/>
		<path opacity="0.08" fill-rule="evenodd" clip-rule="evenodd" fill="#3D3D3D" d="M112.357,245.823l0.381-2.032h20.848l0.381,2.032
			H112.357z"/>
	</g>
	<circle fill="#3C948B" cx="123.896" cy="204.816" r="5.896"/>
</g>
<g>
	<g>
		<path opacity="0.15" fill-rule="evenodd" clip-rule="evenodd" fill="#3D3D3D" d="M193.306,784.412
			c14.463,0,26.188,0.521,26.188,1.164c0,0.643-11.725,1.164-26.188,1.164c-14.463,0-26.188-0.521-26.188-1.164
			C167.118,784.933,178.843,784.412,193.306,784.412z"/>
		<path fill-rule="evenodd" clip-rule="evenodd" fill="#3D3D3D" d="M140.639,763.821v-60.232c0-1.286,1.042-2.328,2.328-2.328
			h98.641c1.286,0,2.328,1.042,2.328,2.328v60.232H140.639z"/>
		<path fill-rule="evenodd" clip-rule="evenodd" fill="#E9E9E9" d="M241.608,773.132h-98.641c-1.286,0-2.328-1.042-2.328-2.328
			v-6.983h103.297v6.983C243.936,772.089,242.894,773.132,241.608,773.132z"/>
		<path fill-rule="evenodd" clip-rule="evenodd" fill="#E9E9E9" d="M175.848,785.304v-1.282l4.078-0.498l2.812-10.732h20.848
			l2.812,10.732l4.078,0.498v1.282H175.848z"/>
		<path fill-rule="evenodd" clip-rule="evenodd" fill="#E9E9E9" d="M193.306,702.743c0.302,0,0.546,0.245,0.546,0.546
			c0,0.302-0.245,0.546-0.546,0.546c-0.302,0-0.546-0.245-0.546-0.546C192.76,702.988,193.004,702.743,193.306,702.743z"/>
		<path fill-rule="evenodd" clip-rule="evenodd" fill="#F4F4F4" d="M240.736,705.334v54.413H143.84v-54.413H240.736z"/>
		<path opacity="0.08" fill-rule="evenodd" clip-rule="evenodd" fill="#3D3D3D" d="M182.357,774.823l0.381-2.032h20.848l0.381,2.032
			H182.357z"/>
	</g>
	<circle fill="#3C948B" cx="193.896" cy="733.816" r="5.896"/>
</g>
</svg>
