<?xml version="1.0" encoding="utf-8"?>
<!-- Generator: Adobe Illustrator 16.0.4, SVG Export Plug-In . SVG Version: 6.00 Build 0)  -->
<!DOCTYPE svg PUBLIC "-//W3C//DTD SVG 1.1//EN" "http://www.w3.org/Graphics/SVG/1.1/DTD/svg11.dtd">
<svg version="1.1" id="Layer_1" xmlns="http://www.w3.org/2000/svg" xmlns:xlink="http://www.w3.org/1999/xlink" x="0px" y="0px"
	 width="1200px" height="890px" viewBox="0 0 1200 890" enable-background="new 0 0 1200 890" xml:space="preserve">
<line fill="none" stroke="#3C948B" stroke-width="3" stroke-miterlimit="10" x1="217.633" y1="270" x2="523.633" y2="164"/>
<line fill="none" stroke="#3C948B" stroke-width="3" stroke-miterlimit="10" x1="217.633" y1="270" x2="599.633" y2="412"/>
<line fill="none" stroke="#3C948B" stroke-width="3" stroke-miterlimit="10" x1="217.633" y1="270" x2="498.633" y2="695"/>
<line fill="none" stroke="#3C948B" stroke-width="3" stroke-miterlimit="10" x1="217.633" y1="270" x2="139.633" y2="561"/>
<line fill="none" stroke="#3C948B" stroke-width="3" stroke-miterlimit="10" x1="139.633" y1="561" x2="523.633" y2="164"/>
<line fill="none" stroke="#3C948B" stroke-width="3" stroke-miterlimit="10" x1="523.633" y1="164" x2="879.633" y2="382"/>
<line fill="none" stroke="#3C948B" stroke-width="3" stroke-miterlimit="10" x1="879.633" y1="382" x2="962.633" y2="748"/>
<line fill="none" stroke="#3C948B" stroke-width="3" stroke-miterlimit="10" x1="599.633" y1="412" x2="962.633" y2="748"/>
<line fill="none" stroke="#3C948B" stroke-width="3" stroke-miterlimit="10" x1="962.633" y1="748" x2="217.633" y2="270"/>
<line fill="none" stroke="#3C948B" stroke-width="3" stroke-miterlimit="10" x1="599.633" y1="412" x2="523.633" y2="164"/>
<line fill="none" stroke="#3C948B" stroke-width="3" stroke-miterlimit="10" x1="879.633" y1="382" x2="599.633" y2="412"/>
<line fill="none" stroke="#3C948B" stroke-width="3" stroke-miterlimit="10" x1="879.633" y1="382" x2="498.633" y2="695"/>
<line fill="none" stroke="#3C948B" stroke-width="3" stroke-miterlimit="10" x1="599.633" y1="412" x2="1055.633" y2="187"/>
<line fill="none" stroke="#3C948B" stroke-width="3" stroke-miterlimit="10" x1="523.633" y1="164" x2="1055.633" y2="187"/>
<line fill="none" stroke="#3C948B" stroke-width="3" stroke-miterlimit="10" x1="879.633" y1="382" x2="1055.633" y2="187"/>
<rect x="507" y="147" fill="#3C948B" width="34" height="34"/>
<g>
	<g>
		<path opacity="0.15" fill="#3D3D3D" enable-background="new    " d="M520.577,236.321c21.768,0,39.414,0.784,39.414,1.751
			c0,0.968-17.646,1.752-39.414,1.752c-21.767,0-39.414-0.784-39.414-1.752C481.164,237.104,498.81,236.321,520.577,236.321z"/>
		<path fill="#3D3D3D" d="M441.312,205.33v-90.65c0-1.934,1.568-3.503,3.502-3.503h148.458c1.936,0,3.503,1.569,3.503,3.503v90.65
			H441.312z"/>
		<path fill="#E9E9E9" d="M593.273,219.343H444.815c-1.934,0-3.502-1.568-3.502-3.502V205.33h155.463v10.511
			C596.775,217.776,595.208,219.343,593.273,219.343z"/>
		<path fill="#E9E9E9" d="M494.302,237.662v-1.929l6.137-0.75l4.233-16.152h31.376l4.231,16.152l6.137,0.75v1.929H494.302z"/>
		<path fill="#E9E9E9" d="M520.577,113.408c0.455,0,0.822,0.368,0.822,0.822s-0.367,0.823-0.822,0.823
			c-0.454,0-0.821-0.368-0.821-0.823C519.755,113.776,520.123,113.408,520.577,113.408z"/>
		<path fill="#E9E9E9" d="M591.96,117.307v81.891H446.131v-81.891H591.96z"/>
		<path opacity="0.08" fill="#3D3D3D" enable-background="new    " d="M504.098,221.89l0.572-3.057h31.376l0.571,3.057H504.098z"/>
	</g>
	<circle fill="#3C948B" cx="521.463" cy="160.174" r="14.966"/>
</g>
<g>
	<g>
		<path opacity="0.15" fill="#3D3D3D" enable-background="new    " d="M881.31,463.528c23.81,0,43.111,0.854,43.111,1.912
			c0,1.061-19.302,1.918-43.111,1.918s-43.112-0.857-43.112-1.918C838.197,464.384,857.5,463.528,881.31,463.528z"/>
		<path fill="#3D3D3D" d="M794.608,429.628v-99.156c0-2.115,1.717-3.832,3.832-3.832h162.385c2.117,0,3.831,1.717,3.831,3.832
			v99.156H794.608L794.608,429.628z"/>
		<path fill="#E9E9E9" d="M960.825,444.958H798.44c-2.115,0-3.832-1.716-3.832-3.832v-11.498h170.048v11.498
			C964.656,443.243,962.942,444.958,960.825,444.958z"/>
		<path fill="#E9E9E9" d="M852.568,464.994v-2.11l6.714-0.819l4.629-17.667h34.32l4.628,17.667l6.715,0.819v2.11H852.568z"/>
		<path fill="#E9E9E9" d="M881.31,329.082c0.497,0,0.898,0.403,0.898,0.899c0,0.498-0.403,0.899-0.898,0.899
			c-0.497,0-0.899-0.402-0.899-0.899C880.41,329.485,880.812,329.082,881.31,329.082z"/>
		<path fill="#E9E9E9" d="M959.388,333.347v89.574h-159.51v-89.574H959.388z"/>
		<path opacity="0.08" fill="#3D3D3D" enable-background="new    " d="M863.283,447.742l0.627-3.345h34.321l0.625,3.345H863.283z"/>
	</g>
	<circle fill="#3C948B" cx="882.279" cy="380.236" r="16.369"/>
</g>
<g>
	<g>
		<path opacity="0.15" fill="#3D3D3D" enable-background="new    " d="M606.99,473.375c16.039,0,29.043,0.576,29.043,1.289
			c0,0.714-13.004,1.292-29.043,1.292c-16.04,0-29.043-0.578-29.043-1.292C577.947,473.952,590.951,473.375,606.99,473.375z"/>
		<path fill="#3D3D3D" d="M548.582,450.537v-66.799c0-1.425,1.157-2.582,2.581-2.582h109.396c1.428,0,2.582,1.156,2.582,2.582
			v66.799H548.582z"/>
		<path fill="#E9E9E9" d="M660.559,460.864H551.163c-1.424,0-2.581-1.156-2.581-2.581v-7.745h114.559v7.745
			C663.141,459.708,661.985,460.864,660.559,460.864z"/>
		<path fill="#E9E9E9" d="M587.628,474.362v-1.422l4.523-0.553l3.118-11.901h23.121l3.118,11.901l4.523,0.553v1.422H587.628z"/>
		<path fill="#E9E9E9" d="M606.99,382.8c0.333,0,0.605,0.272,0.605,0.607c0,0.334-0.271,0.606-0.605,0.606
			c-0.335,0-0.606-0.271-0.606-0.606S606.655,382.8,606.99,382.8z"/>
		<path fill="#E9E9E9" d="M659.592,385.674v60.346H552.132v-60.346H659.592z"/>
		<path opacity="0.08" fill="#3D3D3D" enable-background="new    " d="M594.847,462.738l0.422-2.252h23.121l0.422,2.252H594.847z"/>
	</g>
	<circle fill="#3C948B" cx="607.645" cy="417.262" r="11.028"/>
</g>
<g>
	<g>
		<path opacity="0.15" fill="#3D3D3D" enable-background="new    " d="M211.147,337.998c17.895,0,32.4,0.644,32.4,1.439
			c0,0.796-14.506,1.441-32.4,1.441c-17.893,0-32.399-0.646-32.399-1.441C178.748,338.642,193.255,337.998,211.147,337.998z"/>
		<path fill="#3D3D3D" d="M145.989,312.521v-74.519c0-1.591,1.289-2.881,2.88-2.881h122.039c1.592,0,2.881,1.29,2.881,2.881v74.519
			H145.989z"/>
		<path fill="#E9E9E9" d="M270.908,324.042H148.869c-1.59,0-2.881-1.289-2.881-2.878v-8.642h127.8v8.642
			C273.788,322.753,272.5,324.042,270.908,324.042z"/>
		<path fill="#E9E9E9" d="M189.549,339.1v-1.585l5.045-0.616l3.479-13.277h25.793l3.479,13.277l5.045,0.616v1.585H189.549z"/>
		<path fill="#E9E9E9" d="M211.147,236.958c0.374,0,0.676,0.301,0.676,0.674c0,0.374-0.302,0.677-0.676,0.677
			c-0.373,0-0.675-0.303-0.675-0.677C210.472,237.259,210.775,236.958,211.147,236.958z"/>
		<path fill="#E9E9E9" d="M269.829,240.163v67.319h-119.88v-67.319H269.829z"/>
		<path opacity="0.08" fill="#3D3D3D" enable-background="new    " d="M197.601,326.134l0.471-2.513h25.793l0.47,2.513H197.601z"/>
	</g>
	<circle fill="#3C948B" cx="211.877" cy="275.4" r="12.302"/>
</g>
<g>
	<g>
		<path opacity="0.15" fill="#3D3D3D" enable-background="new    " d="M146.666,635.604c25.395,0,45.982,0.913,45.982,2.042
			c0,1.13-20.587,2.045-45.982,2.045s-45.982-0.915-45.982-2.045C100.684,636.517,121.271,635.604,146.666,635.604z"/>
		<path fill="#3D3D3D" d="M54.19,599.445v-105.76c0-2.256,1.831-4.087,4.087-4.087h173.199c2.259,0,4.087,1.831,4.087,4.087v105.76
			H54.19z"/>
		<path fill="#E9E9E9" d="M231.477,615.795H58.277c-2.256,0-4.087-1.831-4.087-4.087v-12.263h181.374v12.263
			C235.564,613.966,233.736,615.795,231.477,615.795z"/>
		<path fill="#E9E9E9" d="M116.012,637.167v-2.251l7.16-0.875l4.938-18.843h36.606l4.937,18.843l7.16,0.875v2.251H116.012z"/>
		<path fill="#E9E9E9" d="M146.666,492.203c0.529,0,0.958,0.43,0.958,0.959s-0.429,0.959-0.958,0.959s-0.958-0.43-0.958-0.959
			C145.706,492.633,146.137,492.203,146.666,492.203z"/>
		<path fill="#E9E9E9" d="M229.946,496.752v95.54H59.812v-95.54H229.946L229.946,496.752z"/>
		<path opacity="0.08" fill="#3D3D3D" enable-background="new    " d="M127.439,618.765l0.668-3.565h36.605l0.667,3.565H127.439z"/>
	</g>
	<circle fill="#3C948B" cx="147.702" cy="546.763" r="17.46"/>
</g>
<g>
	<g>
		<path opacity="0.15" fill="#3D3D3D" enable-background="new    " d="M494.42,773.086c21.99,0,39.816,0.793,39.816,1.77
			c0,0.978-17.827,1.77-39.817,1.77c-21.99,0-39.815-0.792-39.815-1.77C454.604,773.879,472.43,773.086,494.42,773.086z"/>
		<path fill="#3D3D3D" d="M414.345,741.778v-91.575c0-1.953,1.585-3.539,3.54-3.539h149.973c1.955,0,3.539,1.586,3.539,3.539v91.575
			H414.345z"/>
		<path fill="#E9E9E9" d="M567.858,755.937H417.885c-1.955,0-3.54-1.587-3.54-3.54v-10.617h157.052v10.617
			C571.397,754.352,569.813,755.937,567.858,755.937z"/>
		<path fill="#E9E9E9" d="M467.876,774.441v-1.949l6.2-0.757l4.276-16.316h31.697l4.276,16.316l6.201,0.757v1.949H467.876z"/>
		<path fill="#E9E9E9" d="M494.42,648.916c0.458,0,0.829,0.373,0.829,0.83c0,0.46-0.371,0.831-0.829,0.831
			c-0.458,0-0.83-0.371-0.83-0.831C493.589,649.289,493.961,648.916,494.42,648.916z"/>
		<path fill="#E9E9E9" d="M566.532,652.857v82.727H419.213v-82.727H566.532z"/>
		<path opacity="0.08" fill="#3D3D3D" enable-background="new    " d="M477.772,758.507l0.579-3.088h31.697l0.579,3.088H477.772z"/>
	</g>
	<circle fill="#3C948B" cx="495.315" cy="696.161" r="15.118"/>
</g>
<g>
	<g>
		<path opacity="0.15" fill="#3D3D3D" enable-background="new    " d="M954.964,807.742c18.986,0,34.376,0.683,34.376,1.526
			c0,0.845-15.392,1.531-34.376,1.531c-18.985,0-34.375-0.686-34.375-1.531C920.589,808.425,935.979,807.742,954.964,807.742z"/>
		<path fill="#3D3D3D" d="M885.831,780.712v-79.062c0-1.687,1.37-3.056,3.056-3.056h129.479c1.689,0,3.056,1.37,3.056,3.056v79.062
			H885.831z"/>
		<path fill="#E9E9E9" d="M1018.366,792.935H888.887c-1.688,0-3.056-1.368-3.056-3.053v-9.169h135.591v9.169
			C1021.422,791.567,1020.055,792.935,1018.366,792.935z"/>
		<path fill="#E9E9E9" d="M932.047,808.912v-1.685l5.352-0.653l3.692-14.087h27.367l3.69,14.087l5.353,0.653v1.685H932.047z"/>
		<path fill="#E9E9E9" d="M954.964,700.54c0.396,0,0.716,0.321,0.716,0.718c0,0.396-0.32,0.717-0.716,0.717
			c-0.396,0-0.717-0.321-0.717-0.717C954.247,700.861,954.567,700.54,954.964,700.54z"/>
		<path fill="#E9E9E9" d="M1017.222,703.941v71.424H890.033v-71.424H1017.222z"/>
		<path opacity="0.08" fill="#3D3D3D" enable-background="new    " d="M940.59,795.154l0.501-2.665h27.365l0.5,2.665H940.59z"/>
	</g>
	<circle fill="#3C948B" cx="955.737" cy="741.329" r="13.052"/>
</g>
<g>
	<g>
		<path opacity="0.15" fill="#3D3D3D" enable-background="new    " d="M1051.008,252.582c16.293,0,29.503,0.586,29.503,1.31
			c0,0.724-13.209,1.312-29.503,1.312s-29.502-0.588-29.502-1.312C1021.508,253.168,1034.715,252.582,1051.008,252.582z"/>
		<path fill="#3D3D3D" d="M991.678,229.384V161.53c0-1.448,1.174-2.624,2.622-2.624h111.122c1.449,0,2.623,1.174,2.623,2.624v67.854
			H991.678z"/>
		<path fill="#E9E9E9" d="M1105.422,239.873H994.3c-1.448,0-2.622-1.174-2.622-2.622v-7.867h116.367v7.867
			C1108.045,238.7,1106.871,239.873,1105.422,239.873z"/>
		<path fill="#E9E9E9" d="M1031.341,253.585v-1.444l4.594-0.561l3.169-12.089h23.485l3.169,12.089l4.593,0.561v1.444H1031.341z"/>
		<path fill="#E9E9E9" d="M1051.008,160.579c0.34,0,0.615,0.275,0.615,0.615c0,0.339-0.275,0.615-0.615,0.615
			s-0.614-0.275-0.614-0.615C1050.393,160.854,1050.668,160.579,1051.008,160.579z"/>
		<path fill="#E9E9E9" d="M1104.439,163.497v61.298H995.283v-61.298H1104.439z"/>
		<path opacity="0.08" fill="#3D3D3D" enable-background="new    " d="M1038.673,241.779l0.43-2.288h23.486l0.428,2.288H1038.673z"
			/>
	</g>
	<circle fill="#3C948B" cx="1051.672" cy="195.584" r="11.201"/>
</g>
</svg>
