<?xml version="1.0" encoding="utf-8"?>
<!-- Generator: Adobe Illustrator 16.0.4, SVG Export Plug-In . SVG Version: 6.00 Build 0)  -->
<!DOCTYPE svg PUBLIC "-//W3C//DTD SVG 1.1//EN" "http://www.w3.org/Graphics/SVG/1.1/DTD/svg11.dtd">
<svg version="1.1" id="Layer_1" xmlns="http://www.w3.org/2000/svg" xmlns:xlink="http://www.w3.org/1999/xlink" x="0px" y="0px"
	 width="1200px" height="890px" viewBox="0 0 1200 890" enable-background="new 0 0 1200 890" xml:space="preserve">
<path fill="#CCCCCC" d="M1200,36H0V6.99C0,2.578,3.388-1,7.566-1h1184.955C1196.7-1,1200,2.578,1200,6.99V36z"/>
<circle opacity="0.71" fill="#E74C3C" cx="20.917" cy="18.977" r="7.526"/>
<circle opacity="0.71" fill="#F1C40F" cx="45.546" cy="18.977" r="7.525"/>
<circle opacity="0.71" fill="#2ECC71" cx="70.176" cy="18.977" r="7.526"/>
<path fill="#E6E6E6" d="M266.886,13.359c-0.632-1.901-2.147-3.359-4.794-3.359H116.663c-2.647,0-4.162,1.525-4.794,3.359
	l-6.392,20.028C104.927,34.982,102.28,36,102.28,36h174.195c0,0-2.646-0.867-3.196-2.612L266.886,13.359z"/>
<path fill="#F2F2F2" d="M1200,881.055c0,5.354-3.67,9.945-8.306,9.945H8.394C3.758,891,0,886.409,0,881.055V69h1200V881.055z"/>
<rect y="36" fill="#E6E6E6" width="1200" height="33"/>
<path fill="#CCCCCC" stroke="#666666" stroke-width="1.738" stroke-miterlimit="10" d="M252.553,739.023
	c6.056,3.818,21.451,4.606,34.376,1.753l341.28-75.245c12.93-2.85,18.502-8.258,12.445-12.074L480.761,552.628
	c-6.057-3.818-21.445-4.603-34.376-1.757l-341.28,75.247c-12.93,2.853-18.498,8.256-12.439,12.078L252.553,739.023z"/>
<path fill="#666666" stroke="#666666" stroke-width="1.738" stroke-miterlimit="10" d="M643.914,564.68l-104.215,23.461
	l-58.938-37.169c-6.057-3.818-21.445-4.603-34.376-1.755l-252.403,55.652L89.604,543.976l0.71,87.771l0.19,0.121
	c-0.721,1.636-0.08,3.262,2.16,4.672l159.888,100.827c2.304,1.451,5.958,2.463,10.31,3.004l0.736,0.465l1.159-0.261
	c6.757,0.606,14.854,0.156,22.171-1.455l341.28-75.247c9.13-2.011,14.566-5.297,14.853-8.397L643.914,564.68z"/>
<path fill="#CCCCCC" d="M252.553,646.282c6.056,3.819,21.451,4.607,34.376,1.749l341.28-75.239
	c12.93-2.852,18.502-8.26,12.445-12.076L480.761,459.888c-6.057-3.819-21.445-4.607-34.376-1.755l-341.28,75.247
	c-12.93,2.85-18.498,8.255-12.439,12.078L252.553,646.282z"/>
<path fill="#CCCCCC" stroke="#666666" stroke-width="1.8241" stroke-miterlimit="10" d="M643.102,561.234"/>
<path fill="#CCCCCC" d="M252.133,646.857c6.09,3.84,21.572,4.629,34.57,1.763l343.207-75.67
	c13.002-2.864,18.604-8.306,12.514-12.146L481.628,459.411c-6.091-3.843-21.566-4.629-34.569-1.767l-343.206,75.67
	c-13.002,2.865-18.602,8.308-12.509,12.148L252.133,646.857z"/>
<path fill="none" stroke="#3C948B" stroke-width="5.2852" stroke-miterlimit="10" d="M598.774,436.533
	c0,0,33.25-0.284,63.847,24.548c23.904,19.404,18.508,40.478,18.508,40.478"/>
<path fill="none" stroke="#3C948B" stroke-width="5.2852" stroke-miterlimit="10" d="M582.656,454.175
	c0,0,23.772-1.139,47.161,17.842c18.271,14.831,15.788,31.855,15.788,31.855"/>
<path fill="none" stroke="#3C948B" stroke-width="5.2852" stroke-miterlimit="10" d="M610.847,417.139
	c0,0,44.587,0.737,83.813,32.572c30.644,24.874,21.758,50.775,21.758,50.775"/>
<g>
	<path fill="#E1E1E1" d="M947.584,297h-138.18c2.97,16,15.487,17,15.487,17h122.692h123.097c0,0,12.518-1,15.487-17H947.584z"/>
	<path fill="#CCCCCC" d="M974.893,297h-27.309h-27.706c0,0-0.568,5,5.996,8h21.71h21.313C975.462,302,974.893,297,974.893,297z"/>
	<path fill="#808080" d="M1047.139,163H848.445c-3.777,0-6.445,3.208-6.445,7.037v23.23v10.999V297h212v-92.733v-10.999v-23.23
		C1054,166.208,1050.916,163,1047.139,163z"/>
	<rect x="849" y="170" fill="#CCCCCC" width="198" height="120"/>
</g>
<text transform="matrix(1 0 0 1 919.8652 243.9902)" fill="#3C948B" font-family="'OpenSans-Semibold'" font-size="48">sy.</text>
</svg>
