<?xml version="1.0" encoding="utf-8"?>
<!-- Generator: Adobe Illustrator 16.0.4, SVG Export Plug-In . SVG Version: 6.00 Build 0)  -->
<!DOCTYPE svg PUBLIC "-//W3C//DTD SVG 1.1//EN" "http://www.w3.org/Graphics/SVG/1.1/DTD/svg11.dtd">
<svg version="1.1" id="Layer_1" xmlns="http://www.w3.org/2000/svg" xmlns:xlink="http://www.w3.org/1999/xlink" x="0px" y="0px"
	 width="1200px" height="890px" viewBox="0 0 1200 890" enable-background="new 0 0 1200 890" xml:space="preserve">
<g>
	<g>
		<rect x="345" y="610" fill="#C7403D" width="510" height="178"/>
	</g>
	<rect x="381" y="590" fill="#C7403D" width="105" height="26"/>
	<rect x="715" y="590" fill="#C7403D" width="105" height="26"/>
	<rect x="546" y="590" fill="#C7403D" width="105" height="26"/>
</g>
<g>
	<g>
		<rect x="345" y="433" fill="#3C948B" width="510" height="178"/>
	</g>
	<rect x="381" y="408" fill="#3C948B" width="105" height="26"/>
	<rect x="715" y="408" fill="#3C948B" width="105" height="26"/>
	<rect x="546" y="408" fill="#3C948B" width="105" height="26"/>
</g>
<g>
	<g>
		<rect x="345" y="163" fill="#3D8BC7" width="510" height="179"/>
	</g>
	<rect x="381" y="142" fill="#3D8BC7" width="105" height="30"/>
	<rect x="715" y="142" fill="#3D8BC7" width="105" height="30"/>
	<rect x="546" y="142" fill="#3D8BC7" width="105" height="30"/>
</g>
<text transform="matrix(1 0 0 1 436.8162 271.75)" fill="#FFFFFF" font-family="'OpenSans-Semibold'" font-size="48">Parallax Scroll</text>
<text transform="matrix(1 0 0 1 452.7766 537.75)" fill="#FFFFFF" font-family="'OpenSans-Semibold'" font-size="48">Color Theme</text>
<text transform="matrix(1 0 0 1 453.2341 714.75)" fill="#FFFFFF" font-family="'OpenSans-Semibold'" font-size="48">E-Commerce</text>
</svg>
