<?xml version="1.0" encoding="utf-8"?>
<!-- Generator: Adobe Illustrator 16.0.4, SVG Export Plug-In . SVG Version: 6.00 Build 0)  -->
<!DOCTYPE svg PUBLIC "-//W3C//DTD SVG 1.1//EN" "http://www.w3.org/Graphics/SVG/1.1/DTD/svg11.dtd">
<svg version="1.1" id="Layer_1" xmlns="http://www.w3.org/2000/svg" xmlns:xlink="http://www.w3.org/1999/xlink" x="0px" y="0px"
	 width="75.359px" height="75.361px" viewBox="0 0 75.359 75.361" enable-background="new 0 0 75.359 75.361" xml:space="preserve">
<path d="M0,0v75.361h75.359V0H0z M45.972,63.162c-1.327,0.256-1.802-0.557-1.802-1.256c0-0.859,0.032-3.682,0.032-7.182
	c0-2.443-0.84-4.037-1.778-4.847c5.831-0.647,11.954-2.86,11.954-12.92c0-2.854-1.017-5.192-2.69-7.021
	c0.271-0.664,1.168-3.324-0.258-6.931c0,0-2.195-0.702-7.196,2.687c-2.088-0.582-4.328-0.873-6.552-0.883
	c-2.225,0.01-4.467,0.301-6.555,0.883c-5.003-3.389-7.197-2.687-7.197-2.687c-1.425,3.605-0.526,6.267-0.26,6.931
	c-1.671,1.828-2.691,4.168-2.691,7.021c0,10.029,6.109,12.281,11.924,12.939c-0.748,0.656-1.424,1.805-1.659,3.498
	c-1.493,0.668-5.286,1.828-7.619-2.174c0,0-1.382-2.513-4.011-2.697c0,0-2.558-0.033-0.182,1.594c0,0,1.717,0.803,2.907,3.826
	c0,0,1.535,5.09,8.816,3.508c0.016,2.187,0.036,3.832,0.036,4.453c0,0.691-0.479,1.502-1.788,1.264
	C19,59.705,11.502,49.895,11.502,38.334c0-14.463,11.722-26.182,26.179-26.182c14.461,0,26.178,11.719,26.178,26.182
	C63.857,49.891,56.363,59.697,45.972,63.162z"/>
</svg>
