<?xml version="1.0" encoding="utf-8"?>
<!-- Generator: Adobe Illustrator 16.0.4, SVG Export Plug-In . SVG Version: 6.00 Build 0)  -->
<!DOCTYPE svg PUBLIC "-//W3C//DTD SVG 1.1//EN" "http://www.w3.org/Graphics/SVG/1.1/DTD/svg11.dtd">
<svg version="1.1" id="Layer_1" xmlns="http://www.w3.org/2000/svg" xmlns:xlink="http://www.w3.org/1999/xlink" x="0px" y="0px"
	 width="85px" height="85px" viewBox="0 0 85 85" enable-background="new 0 0 85 85" xml:space="preserve">
<g>
	<rect x="-410" y="-146" stroke="#000000" stroke-width="2" stroke-miterlimit="10" width="83" height="83"/>
	<rect x="-411" y="-415" stroke="#000000" stroke-width="2" stroke-miterlimit="10" width="83" height="83"/>
	<rect x="-411" y="1" stroke="#000000" stroke-width="2" stroke-miterlimit="10" width="83" height="83"/>
	<rect x="-410" y="-278" stroke="#000000" stroke-width="2" stroke-miterlimit="10" width="83" height="83"/>
	<g>
		<circle fill="#3C948B" cx="-439.656" cy="-68.265" r="4.5"/>
		<circle fill="#3C948B" cx="-383.156" cy="-136.765" r="7"/>
		<circle fill="#3C948B" cx="-420.656" cy="-208.765" r="3.5"/>
		<circle fill="#3C948B" cx="-333.656" cy="-178.765" r="5"/>
		<circle fill="#3C948B" cx="-396.156" cy="-87.765" r="6"/>
		<circle fill="#3C948B" cx="-410.156" cy="10.735" r="8"/>
		<circle fill="#3C948B" cx="-390.156" cy="5.735" r="6"/>
		<circle fill="#3C948B" cx="-441.156" cy="52.735" r="4.5"/>
		<circle fill="#3C948B" cx="-406.656" cy="81.235" r="5.5"/>
		<circle fill="#3C948B" cx="-379.656" cy="-52.265" r="3.5"/>
		<circle fill="#3C948B" cx="-330.156" cy="-75.265" r="5.75"/>
		<circle fill="#3C948B" cx="-335.906" cy="-50.765" r="5"/>
		<circle fill="#3C948B" cx="-320.656" cy="-5.765" r="4.25"/>
		<circle fill="#3C948B" cx="-319.156" cy="5.735" r="6.5"/>
		<circle fill="#3C948B" cx="-325.656" cy="91.485" r="3.25"/>
		<circle fill="#3C948B" stroke="#3C948B" stroke-miterlimit="10" cx="-290.906" cy="51.985" r="2.75"/>
		<line fill="none" stroke="#3C948B" stroke-miterlimit="10" x1="-420.656" y1="-208.765" x2="-383.156" y2="-136.765"/>
		<line fill="none" stroke="#3C948B" stroke-miterlimit="10" x1="-420.656" y1="-208.765" x2="-439.656" y2="-68.265"/>
		<line fill="none" stroke="#3C948B" stroke-miterlimit="10" x1="-439.656" y1="-68.265" x2="-379.656" y2="-140.765"/>
		<line fill="none" stroke="#3C948B" stroke-miterlimit="10" x1="-439.656" y1="-68.265" x2="-379.656" y2="-52.265"/>
		<line fill="none" stroke="#3C948B" stroke-miterlimit="10" x1="-439.656" y1="-68.265" x2="-390.156" y2="5.735"/>
		<line fill="none" stroke="#3C948B" stroke-miterlimit="10" x1="-420.656" y1="-208.765" x2="-333.656" y2="-178.765"/>
		<line fill="none" stroke="#3C948B" stroke-miterlimit="10" x1="-333.656" y1="-178.765" x2="-381.519" y2="-138.515"/>
		<line fill="none" stroke="#3C948B" stroke-miterlimit="10" x1="-333.656" y1="-178.765" x2="-330.156" y2="-75.265"/>
		<line fill="none" stroke="#3C948B" stroke-miterlimit="10" x1="-382.967" y1="-136.765" x2="-330.156" y2="-75.265"/>
		<line fill="none" stroke="#3C948B" stroke-miterlimit="10" x1="-382.967" y1="-136.765" x2="-379.656" y2="-52.265"/>
		<line fill="none" stroke="#3C948B" stroke-miterlimit="10" x1="-396.156" y1="-87.765" x2="-335.906" y2="-50.765"/>
		<line fill="none" stroke="#3C948B" stroke-miterlimit="10" x1="-396.156" y1="-87.765" x2="-315.156" y2="-101.989"/>
		<line fill="none" stroke="#3C948B" stroke-miterlimit="10" x1="-330.156" y1="-75.265" x2="-296.656" y2="-108.015"/>
		<line fill="none" stroke="#3C948B" stroke-miterlimit="10" x1="-330.156" y1="-75.265" x2="-319.156" y2="-5.765"/>
		<line fill="none" stroke="#3C948B" stroke-miterlimit="10" x1="-320.656" y1="-5.765" x2="-319.156" y2="5.735"/>
		<line fill="none" stroke="#3C948B" stroke-miterlimit="10" x1="-320.656" y1="-5.765" x2="-390.156" y2="5.735"/>
		<line fill="none" stroke="#3C948B" stroke-miterlimit="10" x1="-392.656" y1="5.735" x2="-377.156" y2="-53.515"/>
		<line fill="none" stroke="#3C948B" stroke-miterlimit="10" x1="-396.156" y1="-87.765" x2="-443.781" y2="-31.735"/>
		<line fill="none" stroke="#3C948B" stroke-miterlimit="10" x1="-461.283" y1="51.985" x2="-403.406" y2="82.985"/>
		<line fill="none" stroke="#3C948B" stroke-miterlimit="10" x1="-441.156" y1="52.735" x2="-390.156" y2="5.735"/>
		<line fill="none" stroke="#3C948B" stroke-miterlimit="10" x1="-395.301" y1="-87.915" x2="-410.156" y2="10.735"/>
		<line fill="none" stroke="#3C948B" stroke-miterlimit="10" x1="-410.156" y1="10.735" x2="-408.406" y2="81.235"/>
		<line fill="none" stroke="#3C948B" stroke-miterlimit="10" x1="-441.156" y1="52.735" x2="-426.656" y2="111.235"/>
		<line fill="none" stroke="#3C948B" stroke-miterlimit="10" x1="-406.656" y1="81.235" x2="-319.156" y2="4.485"/>
		<line fill="none" stroke="#3C948B" stroke-miterlimit="10" x1="-390.156" y1="5.735" x2="-343.406" y2="45.985"/>
		<line fill="none" stroke="#3C948B" stroke-miterlimit="10" x1="-343.406" y1="45.985" x2="-319.156" y2="-5.765"/>
		<line fill="none" stroke="#3C948B" stroke-miterlimit="10" x1="-343.406" y1="45.985" x2="-427.156" y2="111.235"/>
		<line fill="none" stroke="#3C948B" stroke-miterlimit="10" x1="-343.406" y1="45.985" x2="-346" y2="101.235"/>
		<line fill="none" stroke="#3C948B" stroke-miterlimit="10" x1="-343.406" y1="45.985" x2="-306.406" y2="108.235"/>
		<line fill="none" stroke="#3C948B" stroke-miterlimit="10" x1="-343.406" y1="45.985" x2="-290.906" y2="51.985"/>
		<line fill="none" stroke="#3C948B" stroke-miterlimit="10" x1="-325.656" y1="91.485" x2="-405.273" y2="81.985"/>
		<line fill="none" stroke="#3C948B" stroke-miterlimit="10" x1="-392.089" y1="7.517" x2="-317.156" y2="5.735"/>
		<line fill="none" stroke="#3C948B" stroke-miterlimit="10" x1="-335.906" y1="-50.765" x2="-410.156" y2="10.735"/>
		<line fill="none" stroke="#3C948B" stroke-miterlimit="10" x1="-325.656" y1="92.485" x2="-319.156" y2="6.626"/>
		<line fill="none" stroke="#3C948B" stroke-miterlimit="10" x1="-307.656" y1="108.235" x2="-325.656" y2="92.485"/>
		<line fill="none" stroke="#3C948B" stroke-miterlimit="10" x1="-306.406" y1="108.235" x2="-290.906" y2="51.985"/>
		<line fill="none" stroke="#3C948B" stroke-miterlimit="10" x1="-290.906" y1="51.985" x2="-320.656" y2="-7.765"/>
		<line fill="none" stroke="#3C948B" stroke-miterlimit="10" x1="-296.656" y1="-105.765" x2="-335.906" y2="-50.765"/>
		<line fill="none" stroke="#3C948B" stroke-miterlimit="10" x1="-335.906" y1="-50.765" x2="-319.554" y2="-5.55"/>
		<line fill="none" stroke="#3C948B" stroke-miterlimit="10" x1="-319.554" y1="-5.55" x2="-379.656" y2="-52.265"/>
		<line fill="none" stroke="#3C948B" stroke-miterlimit="10" x1="-379.656" y1="-52.265" x2="-330.156" y2="-75.265"/>
		<line fill="none" stroke="#3C948B" stroke-miterlimit="10" x1="-296.656" y1="-183.765" x2="-333.656" y2="-178.765"/>
	</g>
	<g>
		<rect x="-392" y="-120" fill="#FFFFFF" width="47" height="30"/>
		<path d="M-392.803-121.016v32.619h49.424v-32.619H-392.803z M-346.977-119.039l-21.113,17.977l-21.115-17.977H-346.977z
			 M-390.826-117.823l14.85,12.64l-14.85,13.977V-117.823z M-388.827-90.373l14.365-13.521l6.372,5.423l6.37-5.423l14.366,13.521
			H-388.827z M-345.355-91.207l-14.85-13.977l14.85-12.64V-91.207z"/>
	</g>
	<path fill="#FFFFFF" d="M-361.723,66.701c10.073-3.358,17.337-12.863,17.34-24.067c0-14.021-11.358-25.381-25.377-25.381
		c-14.016,0-25.379,11.359-25.379,25.381c0,11.207,7.268,20.718,17.354,24.073c1.269,0.231,1.733-0.556,1.733-1.225
		c0-0.603-0.02-2.196-0.035-4.317c-7.058,1.534-8.547-3.4-8.547-3.4c-1.151-2.93-2.816-3.708-2.816-3.708
		c-2.303-1.577,0.176-1.545,0.176-1.545c2.549,0.177,3.888,2.612,3.888,2.612c2.262,3.881,5.938,2.756,7.387,2.108
		c0.229-1.64,0.883-2.755,1.607-3.39c-5.637-0.639-11.558-2.821-11.558-12.543c0-2.767,0.986-5.035,2.607-6.807
		c-0.258-0.645-1.129-3.226,0.253-6.72c0,0,2.127-0.68,6.976,2.605c2.023-0.564,4.198-0.848,6.354-0.855
		c2.156,0.008,4.329,0.291,6.353,0.855c4.848-3.285,6.976-2.605,6.976-2.605c1.382,3.496,0.512,6.075,0.25,6.72
		c1.621,1.772,2.608,4.039,2.608,6.807c0,9.752-5.936,11.897-11.59,12.523c0.911,0.785,1.725,2.331,1.725,4.699
		c0,3.394-0.03,6.129-0.03,6.961C-363.469,66.162-363.009,66.949-361.723,66.701z"/>
	<g>
		<circle fill="#3C948B" cx="-352.781" cy="-230.765" r="7"/>
		<circle fill="#3C948B" cx="-315.281" cy="-158.765" r="3.5"/>
		<circle fill="#3C948B" cx="-402.281" cy="-188.765" r="5"/>
		<circle fill="#3C948B" cx="-339.781" cy="-279.765" r="6"/>
		<circle fill="#3C948B" cx="-325.781" cy="-378.265" r="8"/>
		<circle fill="#3C948B" cx="-345.781" cy="-373.265" r="6"/>
		<circle fill="#3C948B" cx="-356.281" cy="-315.265" r="3.5"/>
		<circle fill="#3C948B" cx="-405.781" cy="-292.265" r="5.75"/>
		<circle fill="#3C948B" cx="-439.281" cy="-183.765" r="4.5"/>
		<circle fill="#3C948B" cx="-439.281" cy="-261.765" r="7"/>
		<circle fill="#3C948B" cx="-400.031" cy="-316.765" r="5"/>
		<circle fill="#3C948B" cx="-415.281" cy="-361.765" r="4.25"/>
		<circle fill="#3C948B" cx="-416.781" cy="-373.265" r="6.5"/>
		<line fill="none" stroke="#3C948B" stroke-miterlimit="10" x1="-315.281" y1="-158.765" x2="-352.781" y2="-230.765"/>
		<line fill="none" stroke="#3C948B" stroke-miterlimit="10" x1="-296.281" y1="-299.265" x2="-356.281" y2="-226.765"/>
		<line fill="none" stroke="#3C948B" stroke-miterlimit="10" x1="-296.281" y1="-299.265" x2="-356.281" y2="-315.265"/>
		<line fill="none" stroke="#3C948B" stroke-miterlimit="10" x1="-296.281" y1="-299.265" x2="-345.781" y2="-373.265"/>
		<line fill="none" stroke="#3C948B" stroke-miterlimit="10" x1="-315.281" y1="-158.765" x2="-402.281" y2="-188.765"/>
		<line fill="none" stroke="#3C948B" stroke-miterlimit="10" x1="-402.281" y1="-188.765" x2="-354.419" y2="-229.015"/>
		<line fill="none" stroke="#3C948B" stroke-miterlimit="10" x1="-402.281" y1="-188.765" x2="-405.781" y2="-292.265"/>
		<line fill="none" stroke="#3C948B" stroke-miterlimit="10" x1="-352.971" y1="-230.765" x2="-405.781" y2="-292.265"/>
		<line fill="none" stroke="#3C948B" stroke-miterlimit="10" x1="-352.971" y1="-230.765" x2="-356.281" y2="-315.265"/>
		<line fill="none" stroke="#3C948B" stroke-miterlimit="10" x1="-339.781" y1="-279.765" x2="-400.031" y2="-316.765"/>
		<line fill="none" stroke="#3C948B" stroke-miterlimit="10" x1="-339.781" y1="-279.765" x2="-442.281" y2="-261.765"/>
		<line fill="none" stroke="#3C948B" stroke-miterlimit="10" x1="-405.781" y1="-292.265" x2="-439.281" y2="-259.515"/>
		<line fill="none" stroke="#3C948B" stroke-miterlimit="10" x1="-405.781" y1="-292.265" x2="-416.781" y2="-361.765"/>
		<line fill="none" stroke="#3C948B" stroke-miterlimit="10" x1="-415.281" y1="-361.765" x2="-416.781" y2="-373.265"/>
		<line fill="none" stroke="#3C948B" stroke-miterlimit="10" x1="-415.281" y1="-361.765" x2="-345.781" y2="-373.265"/>
		<line fill="none" stroke="#3C948B" stroke-miterlimit="10" x1="-343.281" y1="-373.265" x2="-358.781" y2="-314.015"/>
		<path fill="none" stroke="#3C948B" stroke-miterlimit="10" d="M-339.781-279.765"/>
		<path fill="none" stroke="#3C948B" stroke-miterlimit="10" d="M-325.781-378.265"/>
		<line fill="none" stroke="#3C948B" stroke-miterlimit="10" x1="-294.781" y1="-420.265" x2="-345.781" y2="-373.265"/>
		<line fill="none" stroke="#3C948B" stroke-miterlimit="10" x1="-340.637" y1="-279.614" x2="-325.781" y2="-378.265"/>
		<line fill="none" stroke="#3C948B" stroke-miterlimit="10" x1="-325.781" y1="-378.265" x2="-327.531" y2="-432.237"/>
		<line fill="none" stroke="#3C948B" stroke-miterlimit="10" x1="-342.867" y1="-436.848" x2="-416.781" y2="-372.015"/>
		<line fill="none" stroke="#3C948B" stroke-miterlimit="10" x1="-345.781" y1="-373.265" x2="-392.531" y2="-413.515"/>
		<line fill="none" stroke="#3C948B" stroke-miterlimit="10" x1="-392.531" y1="-413.515" x2="-416.781" y2="-361.765"/>
		<line fill="none" stroke="#3C948B" stroke-miterlimit="10" x1="-392.531" y1="-413.515" x2="-358.781" y2="-439.81"/>
		<line fill="none" stroke="#3C948B" stroke-miterlimit="10" x1="-392.531" y1="-413.515" x2="-391.411" y2="-436.848"/>
		<line fill="none" stroke="#3C948B" stroke-miterlimit="10" x1="-392.531" y1="-413.515" x2="-409.656" y2="-442.326"/>
		<line fill="none" stroke="#3C948B" stroke-miterlimit="10" x1="-392.531" y1="-413.515" x2="-433.906" y2="-418.243"/>
		<line fill="none" stroke="#3C948B" stroke-miterlimit="10" x1="-343.849" y1="-375.046" x2="-418.781" y2="-373.265"/>
		<line fill="none" stroke="#3C948B" stroke-miterlimit="10" x1="-400.031" y1="-316.765" x2="-325.781" y2="-378.265"/>
		<line fill="none" stroke="#3C948B" stroke-miterlimit="10" x1="-439.281" y1="-261.765" x2="-400.031" y2="-316.765"/>
		<line fill="none" stroke="#3C948B" stroke-miterlimit="10" x1="-400.031" y1="-316.765" x2="-416.384" y2="-361.979"/>
		<line fill="none" stroke="#3C948B" stroke-miterlimit="10" x1="-416.384" y1="-361.979" x2="-356.281" y2="-315.265"/>
		<line fill="none" stroke="#3C948B" stroke-miterlimit="10" x1="-356.281" y1="-315.265" x2="-405.781" y2="-292.265"/>
		<line fill="none" stroke="#3C948B" stroke-miterlimit="10" x1="-439.281" y1="-264.015" x2="-439.281" y2="-183.765"/>
		<line fill="none" stroke="#3C948B" stroke-miterlimit="10" x1="-439.281" y1="-183.765" x2="-402.281" y2="-188.765"/>
		<line fill="none" stroke="#3C948B" stroke-miterlimit="10" x1="-402.281" y1="-188.765" x2="-457.781" y2="-236.515"/>
	</g>
	<path fill="#FFFFFF" stroke="#FFFFFF" stroke-width="2" stroke-miterlimit="10" d="M-461-442v553h173v-553H-461z M-413-415h83v83
		h-83V-415z M-330,84h-83V1h83V84z M-329-63h-83v-83h83V-63z M-329-195h-83v-83h83V-195z"/>
	<path fill="#FFFFFF" d="M-393.891-358.954c4.348,2.786,9.512,4.412,15.062,4.412c18.071,0,27.953-14.968,27.953-27.952
		c0-0.424-0.011-0.849-0.026-1.272c1.915-1.384,3.58-3.114,4.901-5.083c-1.763,0.781-3.657,1.311-5.644,1.548
		c2.028-1.217,3.589-3.14,4.32-5.436c-1.896,1.126-3.996,1.944-6.237,2.385c-1.791-1.911-4.346-3.104-7.171-3.104
		c-5.429,0-9.827,4.4-9.827,9.825c0,0.771,0.086,1.52,0.255,2.238c-8.165-0.408-15.403-4.319-20.251-10.267
		c-0.848,1.455-1.331,3.141-1.331,4.941c0,3.408,1.716,6.417,4.352,8.178c-1.608-0.051-3.466-0.494-4.466-1.229v0.124
		c0,4.76,3.404,8.731,7.898,9.634c-0.823,0.223-1.686,0.346-2.582,0.346c-0.632,0-1.244-0.064-1.842-0.18
		c1.248,3.904,4.879,6.742,9.178,6.824c-3.361,2.636-7.594,4.206-12.201,4.206C-392.342-358.815-393.122-358.864-393.891-358.954z"
		/>
	<path fill="#FFFFFF" d="M-374-249.545V-243h-7v8h7v23h10v-23h6.731l1.11-8H-364v-5.693c0-2.493,0.209-4.307,3.783-4.307H-356
		v-7.589c-1-0.105-3.633-0.34-6.785-0.34C-369.359-260.929-374-256.915-374-249.545z"/>
</g>
<g>
	<rect x="2" y="-146" stroke="#000000" stroke-width="2" stroke-miterlimit="10" width="83" height="83"/>
	<g>
		<rect x="20" y="-120" fill="#FFFFFF" width="47" height="30"/>
		<path d="M19.197-121.016v32.619h49.424v-32.619H19.197z M65.023-119.039L43.91-101.062l-21.115-17.977H65.023z M21.174-117.823
			l14.85,12.64l-14.85,13.977V-117.823z M23.173-90.373l14.365-13.521l6.372,5.423l6.37-5.423l14.366,13.521H23.173z M66.645-91.207
			l-14.85-13.977l14.85-12.64V-91.207z"/>
	</g>
</g>
<g>
	<rect x="1" y="1" stroke="#000000" stroke-width="2" stroke-miterlimit="10" width="83" height="83"/>
	<path fill="#FFFFFF" d="M50.277,66.701c10.073-3.358,17.337-12.863,17.34-24.067c0-14.021-11.358-25.381-25.377-25.381
		c-14.016,0-25.379,11.359-25.379,25.381c0,11.207,7.268,20.718,17.354,24.073c1.269,0.231,1.733-0.556,1.733-1.225
		c0-0.603-0.02-2.196-0.035-4.317c-7.058,1.534-8.547-3.4-8.547-3.4c-1.151-2.93-2.816-3.708-2.816-3.708
		c-2.303-1.577,0.176-1.545,0.176-1.545c2.549,0.177,3.888,2.612,3.888,2.612c2.262,3.881,5.938,2.756,7.387,2.108
		c0.229-1.64,0.883-2.755,1.607-3.39C31.971,53.204,26.05,51.021,26.05,41.3c0-2.767,0.986-5.035,2.607-6.807
		c-0.258-0.645-1.129-3.226,0.253-6.72c0,0,2.127-0.68,6.976,2.605c2.023-0.564,4.198-0.848,6.354-0.855
		c2.156,0.008,4.329,0.291,6.353,0.855c4.848-3.285,6.976-2.605,6.976-2.605c1.382,3.496,0.512,6.075,0.25,6.72
		c1.621,1.772,2.608,4.039,2.608,6.807c0,9.752-5.936,11.897-11.59,12.523c0.911,0.785,1.725,2.331,1.725,4.699
		c0,3.394-0.03,6.129-0.03,6.961C48.531,66.162,48.991,66.949,50.277,66.701z"/>
</g>
<g>
	<rect x="1" y="-415" stroke="#000000" stroke-width="2" stroke-miterlimit="10" width="83" height="83"/>
	<path fill="#FFFFFF" d="M18.109-358.954c4.348,2.786,9.512,4.412,15.062,4.412c18.071,0,27.953-14.968,27.953-27.952
		c0-0.424-0.011-0.849-0.026-1.272c1.915-1.384,3.58-3.114,4.901-5.083c-1.763,0.781-3.657,1.311-5.644,1.548
		c2.028-1.217,3.589-3.14,4.32-5.436c-1.896,1.126-3.996,1.944-6.237,2.385c-1.791-1.911-4.346-3.104-7.171-3.104
		c-5.429,0-9.827,4.4-9.827,9.825c0,0.771,0.086,1.52,0.255,2.238c-8.165-0.408-15.403-4.319-20.251-10.267
		c-0.848,1.455-1.331,3.141-1.331,4.941c0,3.408,1.716,6.417,4.352,8.178C22.857-378.591,21-379.034,20-379.77v0.124
		c0,4.76,3.404,8.731,7.898,9.634c-0.823,0.223-1.686,0.346-2.582,0.346c-0.632,0-1.244-0.064-1.842-0.18
		c1.248,3.904,4.879,6.742,9.178,6.824c-3.361,2.636-7.594,4.206-12.201,4.206C19.658-358.815,18.878-358.864,18.109-358.954z"/>
</g>
<g>
	<rect x="2" y="-278" stroke="#000000" stroke-width="2" stroke-miterlimit="10" width="83" height="83"/>
	<path fill="#FFFFFF" d="M38-249.545V-243h-7v8h7v23h10v-23h6.731l1.11-8H48v-5.693c0-2.493,0.209-4.307,3.783-4.307H56v-7.589
		c-1-0.105-3.633-0.34-6.785-0.34C42.641-260.929,38-256.915,38-249.545z"/>
</g>
</svg>
