<?xml version="1.0" encoding="utf-8"?>
<!-- Generator: Adobe Illustrator 18.0.0, SVG Export Plug-In . SVG Version: 6.00 Build 0)  -->
<!DOCTYPE svg PUBLIC "-//W3C//DTD SVG 1.1//EN" "http://www.w3.org/Graphics/SVG/1.1/DTD/svg11.dtd">
<svg version="1.1" id="Layer_1" xmlns="http://www.w3.org/2000/svg" xmlns:xlink="http://www.w3.org/1999/xlink" x="0px" y="0px"
	 viewBox="0 0 458.7 200" enable-background="new 0 0 458.7 200" xml:space="preserve">
<rect y="49.8" fill="#F2F2F2" width="10.1" height="150.2"/>
<rect x="16" y="135.7" fill="#F2F2F2" width="10.1" height="64.3"/>
<rect x="64.1" y="135.7" fill="#F2F2F2" width="10.1" height="64.3"/>
<rect x="91.7" y="184.7" fill="#F2F2F2" width="10.1" height="15.3"/>
<rect x="157.2" y="184.7" fill="#F2F2F2" width="10.1" height="15.3"/>
<rect x="193.4" y="14.5" fill="#F2F2F2" width="10.1" height="185.5"/>
<rect x="107.6" y="163.6" fill="#F2F2F2" width="10.1" height="36.4"/>
<rect x="373.8" y="184.7" fill="#F2F2F2" width="10.1" height="15.3"/>
<rect x="389.7" y="163.6" fill="#F2F2F2" width="10.1" height="36.4"/>
<rect x="435.3" y="66.7" fill="#F2F2F2" width="10.1" height="136.2"/>
<rect x="31.9" y="5.7" fill="#F2F2F2" width="10.1" height="194.3"/>
<rect x="48.2" y="103.6" fill="#F2F2F2" width="10.1" height="96.4"/>
<rect x="240.6" y="137.6" fill="#F2F2F2" width="10.1" height="64.3"/>
<rect x="288.7" y="137.6" fill="#F2F2F2" width="10.1" height="64.3"/>
<rect x="256.5" y="41.6" fill="#F2F2F2" width="10.1" height="160.3"/>
<rect x="272.8" y="60.5" fill="#F2F2F2" width="10.1" height="141.5"/>
</svg>
