<?xml version="1.0" encoding="utf-8"?>
<!-- Generator: Adobe Illustrator 16.0.4, SVG Export Plug-In . SVG Version: 6.00 Build 0)  -->
<!DOCTYPE svg PUBLIC "-//W3C//DTD SVG 1.1//EN" "http://www.w3.org/Graphics/SVG/1.1/DTD/svg11.dtd">
<svg version="1.1" id="Layer_1" xmlns="http://www.w3.org/2000/svg" xmlns:xlink="http://www.w3.org/1999/xlink" x="0px" y="0px"
	 width="85px" height="85px" viewBox="0 0 85 85" enable-background="new 0 0 85 85" xml:space="preserve">
<g>
	<rect x="-411" y="1" stroke="#000000" stroke-width="2" stroke-miterlimit="10" width="83" height="83"/>
	<rect x="-412" y="-268" stroke="#000000" stroke-width="2" stroke-miterlimit="10" width="83" height="83"/>
	<rect x="-412" y="148" stroke="#000000" stroke-width="2" stroke-miterlimit="10" width="83" height="83"/>
	<rect x="-411" y="-131" stroke="#000000" stroke-width="2" stroke-miterlimit="10" width="83" height="83"/>
	<g>
		<circle fill="#3C948B" cx="-440.656" cy="78.735" r="4.5"/>
		<circle fill="#3C948B" cx="-384.156" cy="10.235" r="7"/>
		<circle fill="#3C948B" cx="-421.656" cy="-61.765" r="3.5"/>
		<circle fill="#3C948B" cx="-334.656" cy="-31.765" r="5"/>
		<circle fill="#3C948B" cx="-397.156" cy="59.235" r="6"/>
		<circle fill="#3C948B" cx="-411.156" cy="157.735" r="8"/>
		<circle fill="#3C948B" cx="-391.156" cy="152.735" r="6"/>
		<circle fill="#3C948B" cx="-442.156" cy="199.735" r="4.5"/>
		<circle fill="#3C948B" cx="-407.656" cy="228.235" r="5.5"/>
		<circle fill="#3C948B" cx="-380.656" cy="94.735" r="3.5"/>
		<circle fill="#3C948B" cx="-331.156" cy="71.735" r="5.75"/>
		<circle fill="#3C948B" cx="-336.906" cy="96.235" r="5"/>
		<circle fill="#3C948B" cx="-321.656" cy="141.235" r="4.25"/>
		<circle fill="#3C948B" cx="-320.156" cy="152.735" r="6.5"/>
		<circle fill="#3C948B" cx="-326.656" cy="238.485" r="3.25"/>
		<circle fill="#3C948B" stroke="#3C948B" stroke-miterlimit="10" cx="-291.906" cy="198.985" r="2.75"/>
		<line fill="none" stroke="#3C948B" stroke-miterlimit="10" x1="-421.656" y1="-61.765" x2="-384.156" y2="10.235"/>
		<line fill="none" stroke="#3C948B" stroke-miterlimit="10" x1="-421.656" y1="-61.765" x2="-440.656" y2="78.735"/>
		<line fill="none" stroke="#3C948B" stroke-miterlimit="10" x1="-440.656" y1="78.735" x2="-380.656" y2="6.235"/>
		<line fill="none" stroke="#3C948B" stroke-miterlimit="10" x1="-440.656" y1="78.735" x2="-380.656" y2="94.735"/>
		<line fill="none" stroke="#3C948B" stroke-miterlimit="10" x1="-440.656" y1="78.735" x2="-391.156" y2="152.735"/>
		<line fill="none" stroke="#3C948B" stroke-miterlimit="10" x1="-421.656" y1="-61.765" x2="-334.656" y2="-31.765"/>
		<line fill="none" stroke="#3C948B" stroke-miterlimit="10" x1="-334.656" y1="-31.765" x2="-382.519" y2="8.485"/>
		<line fill="none" stroke="#3C948B" stroke-miterlimit="10" x1="-334.656" y1="-31.765" x2="-331.156" y2="71.735"/>
		<line fill="none" stroke="#3C948B" stroke-miterlimit="10" x1="-383.967" y1="10.235" x2="-331.156" y2="71.735"/>
		<line fill="none" stroke="#3C948B" stroke-miterlimit="10" x1="-383.967" y1="10.235" x2="-380.656" y2="94.735"/>
		<line fill="none" stroke="#3C948B" stroke-miterlimit="10" x1="-397.156" y1="59.235" x2="-336.906" y2="96.235"/>
		<line fill="none" stroke="#3C948B" stroke-miterlimit="10" x1="-397.156" y1="59.235" x2="-316.156" y2="45.011"/>
		<line fill="none" stroke="#3C948B" stroke-miterlimit="10" x1="-331.156" y1="71.735" x2="-297.656" y2="38.985"/>
		<line fill="none" stroke="#3C948B" stroke-miterlimit="10" x1="-331.156" y1="71.735" x2="-320.156" y2="141.235"/>
		<line fill="none" stroke="#3C948B" stroke-miterlimit="10" x1="-321.656" y1="141.235" x2="-320.156" y2="152.735"/>
		<line fill="none" stroke="#3C948B" stroke-miterlimit="10" x1="-321.656" y1="141.235" x2="-391.156" y2="152.735"/>
		<line fill="none" stroke="#3C948B" stroke-miterlimit="10" x1="-393.656" y1="152.735" x2="-378.156" y2="93.485"/>
		<line fill="none" stroke="#3C948B" stroke-miterlimit="10" x1="-397.156" y1="59.235" x2="-444.781" y2="115.265"/>
		<line fill="none" stroke="#3C948B" stroke-miterlimit="10" x1="-462.283" y1="198.985" x2="-404.406" y2="229.985"/>
		<line fill="none" stroke="#3C948B" stroke-miterlimit="10" x1="-442.156" y1="199.735" x2="-391.156" y2="152.735"/>
		<line fill="none" stroke="#3C948B" stroke-miterlimit="10" x1="-396.301" y1="59.085" x2="-411.156" y2="157.735"/>
		<line fill="none" stroke="#3C948B" stroke-miterlimit="10" x1="-411.156" y1="157.735" x2="-409.406" y2="228.235"/>
		<line fill="none" stroke="#3C948B" stroke-miterlimit="10" x1="-442.156" y1="199.735" x2="-427.656" y2="258.235"/>
		<line fill="none" stroke="#3C948B" stroke-miterlimit="10" x1="-407.656" y1="228.235" x2="-320.156" y2="151.485"/>
		<line fill="none" stroke="#3C948B" stroke-miterlimit="10" x1="-391.156" y1="152.735" x2="-344.406" y2="192.985"/>
		<line fill="none" stroke="#3C948B" stroke-miterlimit="10" x1="-344.406" y1="192.985" x2="-320.156" y2="141.235"/>
		<line fill="none" stroke="#3C948B" stroke-miterlimit="10" x1="-344.406" y1="192.985" x2="-428.156" y2="258.235"/>
		<line fill="none" stroke="#3C948B" stroke-miterlimit="10" x1="-344.406" y1="192.985" x2="-347" y2="248.235"/>
		<line fill="none" stroke="#3C948B" stroke-miterlimit="10" x1="-344.406" y1="192.985" x2="-307.406" y2="255.235"/>
		<line fill="none" stroke="#3C948B" stroke-miterlimit="10" x1="-344.406" y1="192.985" x2="-291.906" y2="198.985"/>
		<line fill="none" stroke="#3C948B" stroke-miterlimit="10" x1="-326.656" y1="238.485" x2="-406.273" y2="228.985"/>
		<line fill="none" stroke="#3C948B" stroke-miterlimit="10" x1="-393.089" y1="154.517" x2="-318.156" y2="152.735"/>
		<line fill="none" stroke="#3C948B" stroke-miterlimit="10" x1="-336.906" y1="96.235" x2="-411.156" y2="157.735"/>
		<line fill="none" stroke="#3C948B" stroke-miterlimit="10" x1="-326.656" y1="239.485" x2="-320.156" y2="153.626"/>
		<line fill="none" stroke="#3C948B" stroke-miterlimit="10" x1="-308.656" y1="255.235" x2="-326.656" y2="239.485"/>
		<line fill="none" stroke="#3C948B" stroke-miterlimit="10" x1="-307.406" y1="255.235" x2="-291.906" y2="198.985"/>
		<line fill="none" stroke="#3C948B" stroke-miterlimit="10" x1="-291.906" y1="198.985" x2="-321.656" y2="139.235"/>
		<line fill="none" stroke="#3C948B" stroke-miterlimit="10" x1="-297.656" y1="41.235" x2="-336.906" y2="96.235"/>
		<line fill="none" stroke="#3C948B" stroke-miterlimit="10" x1="-336.906" y1="96.235" x2="-320.554" y2="141.45"/>
		<line fill="none" stroke="#3C948B" stroke-miterlimit="10" x1="-320.554" y1="141.45" x2="-380.656" y2="94.735"/>
		<line fill="none" stroke="#3C948B" stroke-miterlimit="10" x1="-380.656" y1="94.735" x2="-331.156" y2="71.735"/>
		<line fill="none" stroke="#3C948B" stroke-miterlimit="10" x1="-297.656" y1="-36.765" x2="-334.656" y2="-31.765"/>
	</g>
	<g>
		<rect x="-393" y="27" fill="#FFFFFF" width="47" height="30"/>
		<path d="M-393.803,25.984v32.619h49.424V25.984H-393.803z M-347.977,27.961l-21.113,17.977l-21.115-17.977H-347.977z
			 M-391.826,29.177l14.85,12.64l-14.85,13.977V29.177z M-389.827,56.627l14.365-13.521l6.372,5.423l6.37-5.423l14.366,13.521
			H-389.827z M-346.355,55.793l-14.85-13.977l14.85-12.64V55.793z"/>
	</g>
	<path fill="#FFFFFF" d="M-362.723,213.701c10.073-3.358,17.337-12.863,17.34-24.067c0-14.021-11.358-25.381-25.377-25.381
		c-14.016,0-25.379,11.359-25.379,25.381c0,11.207,7.268,20.718,17.354,24.073c1.269,0.231,1.733-0.556,1.733-1.225
		c0-0.603-0.02-2.196-0.035-4.317c-7.058,1.534-8.547-3.4-8.547-3.4c-1.151-2.93-2.816-3.708-2.816-3.708
		c-2.303-1.577,0.176-1.545,0.176-1.545c2.549,0.177,3.888,2.612,3.888,2.612c2.262,3.881,5.938,2.756,7.387,2.108
		c0.229-1.64,0.883-2.755,1.607-3.39c-5.637-0.639-11.558-2.821-11.558-12.543c0-2.767,0.986-5.035,2.607-6.807
		c-0.258-0.645-1.129-3.226,0.253-6.72c0,0,2.127-0.68,6.976,2.605c2.023-0.564,4.198-0.848,6.354-0.855
		c2.156,0.008,4.329,0.291,6.353,0.855c4.848-3.285,6.976-2.605,6.976-2.605c1.382,3.496,0.512,6.075,0.25,6.72
		c1.621,1.772,2.608,4.039,2.608,6.807c0,9.752-5.936,11.897-11.59,12.523c0.911,0.785,1.725,2.331,1.725,4.699
		c0,3.394-0.03,6.129-0.03,6.961C-364.469,213.162-364.009,213.949-362.723,213.701z"/>
	<g>
		<circle fill="#3C948B" cx="-353.781" cy="-83.765" r="7"/>
		<circle fill="#3C948B" cx="-316.281" cy="-11.765" r="3.5"/>
		<circle fill="#3C948B" cx="-403.281" cy="-41.765" r="5"/>
		<circle fill="#3C948B" cx="-340.781" cy="-132.765" r="6"/>
		<circle fill="#3C948B" cx="-326.781" cy="-231.265" r="8"/>
		<circle fill="#3C948B" cx="-346.781" cy="-226.265" r="6"/>
		<circle fill="#3C948B" cx="-357.281" cy="-168.265" r="3.5"/>
		<circle fill="#3C948B" cx="-406.781" cy="-145.265" r="5.75"/>
		<circle fill="#3C948B" cx="-440.281" cy="-36.765" r="4.5"/>
		<circle fill="#3C948B" cx="-440.281" cy="-114.765" r="7"/>
		<circle fill="#3C948B" cx="-401.031" cy="-169.765" r="5"/>
		<circle fill="#3C948B" cx="-416.281" cy="-214.765" r="4.25"/>
		<circle fill="#3C948B" cx="-417.781" cy="-226.265" r="6.5"/>
		<line fill="none" stroke="#3C948B" stroke-miterlimit="10" x1="-316.281" y1="-11.765" x2="-353.781" y2="-83.765"/>
		<line fill="none" stroke="#3C948B" stroke-miterlimit="10" x1="-297.281" y1="-152.265" x2="-357.281" y2="-79.765"/>
		<line fill="none" stroke="#3C948B" stroke-miterlimit="10" x1="-297.281" y1="-152.265" x2="-357.281" y2="-168.265"/>
		<line fill="none" stroke="#3C948B" stroke-miterlimit="10" x1="-297.281" y1="-152.265" x2="-346.781" y2="-226.265"/>
		<line fill="none" stroke="#3C948B" stroke-miterlimit="10" x1="-316.281" y1="-11.765" x2="-403.281" y2="-41.765"/>
		<line fill="none" stroke="#3C948B" stroke-miterlimit="10" x1="-403.281" y1="-41.765" x2="-355.419" y2="-82.015"/>
		<line fill="none" stroke="#3C948B" stroke-miterlimit="10" x1="-403.281" y1="-41.765" x2="-406.781" y2="-145.265"/>
		<line fill="none" stroke="#3C948B" stroke-miterlimit="10" x1="-353.971" y1="-83.765" x2="-406.781" y2="-145.265"/>
		<line fill="none" stroke="#3C948B" stroke-miterlimit="10" x1="-353.971" y1="-83.765" x2="-357.281" y2="-168.265"/>
		<line fill="none" stroke="#3C948B" stroke-miterlimit="10" x1="-340.781" y1="-132.765" x2="-401.031" y2="-169.765"/>
		<line fill="none" stroke="#3C948B" stroke-miterlimit="10" x1="-340.781" y1="-132.765" x2="-443.281" y2="-114.765"/>
		<line fill="none" stroke="#3C948B" stroke-miterlimit="10" x1="-406.781" y1="-145.265" x2="-440.281" y2="-112.515"/>
		<line fill="none" stroke="#3C948B" stroke-miterlimit="10" x1="-406.781" y1="-145.265" x2="-417.781" y2="-214.765"/>
		<line fill="none" stroke="#3C948B" stroke-miterlimit="10" x1="-416.281" y1="-214.765" x2="-417.781" y2="-226.265"/>
		<line fill="none" stroke="#3C948B" stroke-miterlimit="10" x1="-416.281" y1="-214.765" x2="-346.781" y2="-226.265"/>
		<line fill="none" stroke="#3C948B" stroke-miterlimit="10" x1="-344.281" y1="-226.265" x2="-359.781" y2="-167.015"/>
		<path fill="none" stroke="#3C948B" stroke-miterlimit="10" d="M-340.781-132.765"/>
		<path fill="none" stroke="#3C948B" stroke-miterlimit="10" d="M-326.781-231.265"/>
		<line fill="none" stroke="#3C948B" stroke-miterlimit="10" x1="-295.781" y1="-273.265" x2="-346.781" y2="-226.265"/>
		<line fill="none" stroke="#3C948B" stroke-miterlimit="10" x1="-341.637" y1="-132.614" x2="-326.781" y2="-231.265"/>
		<line fill="none" stroke="#3C948B" stroke-miterlimit="10" x1="-326.781" y1="-231.265" x2="-328.531" y2="-285.237"/>
		<line fill="none" stroke="#3C948B" stroke-miterlimit="10" x1="-343.867" y1="-289.848" x2="-417.781" y2="-225.015"/>
		<line fill="none" stroke="#3C948B" stroke-miterlimit="10" x1="-346.781" y1="-226.265" x2="-393.531" y2="-266.515"/>
		<line fill="none" stroke="#3C948B" stroke-miterlimit="10" x1="-393.531" y1="-266.515" x2="-417.781" y2="-214.765"/>
		<line fill="none" stroke="#3C948B" stroke-miterlimit="10" x1="-393.531" y1="-266.515" x2="-359.781" y2="-292.81"/>
		<line fill="none" stroke="#3C948B" stroke-miterlimit="10" x1="-393.531" y1="-266.515" x2="-392.411" y2="-289.848"/>
		<line fill="none" stroke="#3C948B" stroke-miterlimit="10" x1="-393.531" y1="-266.515" x2="-410.656" y2="-295.326"/>
		<line fill="none" stroke="#3C948B" stroke-miterlimit="10" x1="-393.531" y1="-266.515" x2="-434.906" y2="-271.243"/>
		<line fill="none" stroke="#3C948B" stroke-miterlimit="10" x1="-344.849" y1="-228.046" x2="-419.781" y2="-226.265"/>
		<line fill="none" stroke="#3C948B" stroke-miterlimit="10" x1="-401.031" y1="-169.765" x2="-326.781" y2="-231.265"/>
		<line fill="none" stroke="#3C948B" stroke-miterlimit="10" x1="-440.281" y1="-114.765" x2="-401.031" y2="-169.765"/>
		<line fill="none" stroke="#3C948B" stroke-miterlimit="10" x1="-401.031" y1="-169.765" x2="-417.384" y2="-214.979"/>
		<line fill="none" stroke="#3C948B" stroke-miterlimit="10" x1="-417.384" y1="-214.979" x2="-357.281" y2="-168.265"/>
		<line fill="none" stroke="#3C948B" stroke-miterlimit="10" x1="-357.281" y1="-168.265" x2="-406.781" y2="-145.265"/>
		<line fill="none" stroke="#3C948B" stroke-miterlimit="10" x1="-440.281" y1="-117.015" x2="-440.281" y2="-36.765"/>
		<line fill="none" stroke="#3C948B" stroke-miterlimit="10" x1="-440.281" y1="-36.765" x2="-403.281" y2="-41.765"/>
		<line fill="none" stroke="#3C948B" stroke-miterlimit="10" x1="-403.281" y1="-41.765" x2="-458.781" y2="-89.515"/>
	</g>
	<path fill="#FFFFFF" stroke="#FFFFFF" stroke-width="2" stroke-miterlimit="10" d="M-462-295v553h173v-553H-462z M-414-268h83v83
		h-83V-268z M-331,231h-83v-83h83V231z M-330,84h-83V1h83V84z M-330-48h-83v-83h83V-48z"/>
	<path fill="#FFFFFF" d="M-394.891-211.954c4.348,2.786,9.512,4.412,15.062,4.412c18.071,0,27.953-14.968,27.953-27.952
		c0-0.424-0.011-0.849-0.026-1.272c1.915-1.384,3.58-3.114,4.901-5.083c-1.763,0.781-3.657,1.311-5.644,1.548
		c2.028-1.217,3.589-3.14,4.32-5.436c-1.896,1.126-3.996,1.944-6.237,2.385c-1.791-1.911-4.346-3.104-7.171-3.104
		c-5.429,0-9.827,4.4-9.827,9.825c0,0.771,0.086,1.52,0.255,2.238c-8.165-0.408-15.403-4.319-20.251-10.267
		c-0.848,1.455-1.331,3.141-1.331,4.941c0,3.408,1.716,6.417,4.352,8.178c-1.608-0.051-3.466-0.494-4.466-1.229v0.124
		c0,4.76,3.404,8.731,7.898,9.634c-0.823,0.223-1.686,0.346-2.582,0.346c-0.632,0-1.244-0.064-1.842-0.18
		c1.248,3.904,4.879,6.742,9.178,6.824c-3.361,2.636-7.594,4.206-12.201,4.206C-393.342-211.815-394.122-211.864-394.891-211.954z"
		/>
	<path fill="#FFFFFF" d="M-375-102.545V-96h-7v8h7v23h10v-23h6.731l1.11-8H-365v-5.693c0-2.493,0.209-4.307,3.783-4.307H-357v-7.589
		c-1-0.105-3.633-0.34-6.785-0.34C-370.359-113.929-375-109.915-375-102.545z"/>
</g>
<g>
	<rect x="1" y="1" stroke="#000000" stroke-width="2" stroke-miterlimit="10" width="83" height="83"/>
	<g>
		<rect x="19" y="27" fill="#FFFFFF" width="47" height="30"/>
		<path d="M18.197,25.984v32.619h49.424V25.984H18.197z M64.023,27.961L42.91,45.938L21.795,27.961H64.023z M20.174,29.177
			l14.85,12.64l-14.85,13.977V29.177z M22.173,56.627l14.365-13.521l6.372,5.423l6.37-5.423l14.366,13.521H22.173z M65.645,55.793
			l-14.85-13.977l14.85-12.64V55.793z"/>
	</g>
</g>
<g>
	<rect y="148" stroke="#000000" stroke-width="2" stroke-miterlimit="10" width="83" height="83"/>
	<path fill="#FFFFFF" d="M49.277,213.701c10.073-3.358,17.337-12.863,17.34-24.067c0-14.021-11.358-25.381-25.377-25.381
		c-14.016,0-25.379,11.359-25.379,25.381c0,11.207,7.268,20.718,17.354,24.073c1.269,0.231,1.733-0.556,1.733-1.225
		c0-0.603-0.02-2.196-0.035-4.317c-7.058,1.534-8.547-3.4-8.547-3.4c-1.151-2.93-2.816-3.708-2.816-3.708
		c-2.303-1.577,0.176-1.545,0.176-1.545c2.549,0.177,3.888,2.612,3.888,2.612c2.262,3.881,5.938,2.756,7.387,2.108
		c0.229-1.64,0.883-2.755,1.607-3.39c-5.637-0.639-11.558-2.821-11.558-12.543c0-2.767,0.986-5.035,2.607-6.807
		c-0.258-0.645-1.129-3.226,0.253-6.72c0,0,2.127-0.68,6.976,2.605c2.023-0.564,4.198-0.848,6.354-0.855
		c2.156,0.008,4.329,0.291,6.353,0.855c4.848-3.285,6.976-2.605,6.976-2.605c1.382,3.496,0.512,6.075,0.25,6.72
		c1.621,1.772,2.608,4.039,2.608,6.807c0,9.752-5.936,11.897-11.59,12.523c0.911,0.785,1.725,2.331,1.725,4.699
		c0,3.394-0.03,6.129-0.03,6.961C47.531,213.162,47.991,213.949,49.277,213.701z"/>
</g>
<g>
	<rect y="-268" stroke="#000000" stroke-width="2" stroke-miterlimit="10" width="83" height="83"/>
	<path fill="#FFFFFF" d="M17.109-211.954c4.348,2.786,9.512,4.412,15.062,4.412c18.071,0,27.953-14.968,27.953-27.952
		c0-0.424-0.011-0.849-0.026-1.272c1.915-1.384,3.58-3.114,4.901-5.083c-1.763,0.781-3.657,1.311-5.644,1.548
		c2.028-1.217,3.589-3.14,4.32-5.436c-1.896,1.126-3.996,1.944-6.237,2.385c-1.791-1.911-4.346-3.104-7.171-3.104
		c-5.429,0-9.827,4.4-9.827,9.825c0,0.771,0.086,1.52,0.255,2.238c-8.165-0.408-15.403-4.319-20.251-10.267
		c-0.848,1.455-1.331,3.141-1.331,4.941c0,3.408,1.716,6.417,4.352,8.178C21.857-231.591,20-232.034,19-232.77v0.124
		c0,4.76,3.404,8.731,7.898,9.634c-0.823,0.223-1.686,0.346-2.582,0.346c-0.632,0-1.244-0.064-1.842-0.18
		c1.248,3.904,4.879,6.742,9.178,6.824c-3.361,2.636-7.594,4.206-12.201,4.206C18.658-211.815,17.878-211.864,17.109-211.954z"/>
</g>
<g>
	<rect x="1" y="-131" stroke="#000000" stroke-width="2" stroke-miterlimit="10" width="83" height="83"/>
	<path fill="#FFFFFF" d="M37-102.545V-96h-7v8h7v23h10v-23h6.731l1.11-8H47v-5.693c0-2.493,0.209-4.307,3.783-4.307H55v-7.589
		c-1-0.105-3.633-0.34-6.785-0.34C41.641-113.929,37-109.915,37-102.545z"/>
</g>
</svg>
