<?xml version="1.0" encoding="utf-8"?>
<!-- Generator: Adobe Illustrator 18.0.0, SVG Export Plug-In . SVG Version: 6.00 Build 0)  -->
<!DOCTYPE svg PUBLIC "-//W3C//DTD SVG 1.1//EN" "http://www.w3.org/Graphics/SVG/1.1/DTD/svg11.dtd">
<svg version="1.1" id="Layer_1" xmlns="http://www.w3.org/2000/svg" xmlns:xlink="http://www.w3.org/1999/xlink" x="0px" y="0px"
	 viewBox="0 0 612 792" enable-background="new 0 0 612 792" xml:space="preserve">
<g>
	<g>
		<path fill="#010101" d="M559.5,637.9c9.5-9.5,9.4-24.8-0.1-34.3l-37.9-37.8l-43.3-43.1l-32.5-32.3l-40.6-40.5l-21.9-21.8c-9.5-9.5-9.5-24.8-0.1-34.3l11.5-11.6l45.2-45.3l37.1-37.2l45.8-46l35.9-36c9.5-9.5,9.4-24.8-0.1-34.3l-15.8-15.7l-14-13.9c-9.5-9.5-24.8-9.4-34.3,0.1l-38.4,38.6l-43.8,44l-37.7,37.9l-37.7,37.9L319.1,330c-9.5,9.5-24.8,9.5-34.3,0.1l-44.1-43.9L194,239.6l-35.8-35.7l-32.5-32.4l-17.1-17c-9.5-9.5-24.8-9.4-34.3,0.1l-15,15.1l-14.6,14.7c-9.5,9.5-9.4,24.8,0.1,34.3l25.7,25.6l46,45.9l45.3,45.1l32.5,32.4l26.6,26.5c9.5,9.5,9.5,24.8,0.1,34.3l-21.7,21.8l-41.1,41.3l-35.7,35.9l-49.9,50.1l-27.1,27.2c-9.5,9.5-9.4,24.8,0.1,34.3l10.4,10.3l19.4,19.3c9.5,9.5,24.8,9.4,34.3-0.1l31-31.1l49.2-49.4l39.1-39.2l38.4-38.6l17.7-17.8c9.5-9.5,24.8-9.5,34.3-0.1l19,19l37.9,37.7l52.1,51.9l32.5,32.4l34.7,34.5c9.5,9.5,24.8,9.4,34.3-0.1l12.3-12.4L559.5,637.9z"/>
	</g>
</g>
</svg>
