<?xml version="1.0" encoding="utf-8"?>
<!-- Generator: Adobe Illustrator 16.0.4, SVG Export Plug-In . SVG Version: 6.00 Build 0)  -->
<!DOCTYPE svg PUBLIC "-//W3C//DTD SVG 1.1//EN" "http://www.w3.org/Graphics/SVG/1.1/DTD/svg11.dtd">
<svg version="1.1" id="Layer_1" xmlns="http://www.w3.org/2000/svg" xmlns:xlink="http://www.w3.org/1999/xlink" x="0px" y="0px"
	 width="1024px" height="768px" viewBox="0 0 1024 768" enable-background="new 0 0 1024 768" xml:space="preserve">
<g>
	<circle fill="#3D8BC7" cx="203.03" cy="219.001" r="121.065"/>
	<path fill="#FFFFFF" d="M248.929,171.691c-8,0-14.485,6.484-14.485,14.485c0,0.754,0.11,1.479,0.222,2.208L197.4,202.668
		c-3.092-4.75-8.43-7.907-14.52-7.907c-4.218,0-8.042,1.569-11.046,4.078l-7.789-5.821c0.32-1.029,0.536-2.1,0.536-3.23
		c0-6.05-4.91-10.963-10.96-10.963c-6.057,0-10.972,4.913-10.972,10.963c0,6.058,4.915,10.972,10.972,10.972
		c2.582,0,4.922-0.928,6.793-2.427l7.331,5.482c-1.359,2.471-2.2,5.269-2.2,8.292c0,9.578,7.761,17.343,17.339,17.343
		c2.852,0,5.498-0.757,7.867-1.968l10.104,13.552c-2.292,2.455-3.723,5.72-3.723,9.343c0,7.569,6.135,13.706,13.713,13.706
		c7.573,0,13.705-6.137,13.705-13.706c0-7.579-6.135-13.716-13.705-13.716c-1.62,0-3.152,0.331-4.592,0.841l-10.417-13.968
		c2.7-3.06,4.386-7.028,4.386-11.427c0-1.195-0.124-2.357-0.351-3.483l37.131-14.236c2.616,3.786,6.972,6.278,11.926,6.278
		c8.002,0,14.481-6.482,14.481-14.486C263.41,178.177,256.931,171.691,248.929,171.691z"/>
	<g>
		<text transform="matrix(1 0 0 1 153.9429 300.001)" fill="#FFFFFF" font-family="'OpenSans-Semibold'" font-size="15">Collaboration</text>
	</g>
</g>
<g>
	<circle fill="#3C948B" cx="512.088" cy="219" r="121.065"/>
	<path fill="#FFFFFF" d="M559.738,220.665c0-26.314-21.331-47.649-47.648-47.649c-26.317,0-47.65,21.334-47.65,47.649
		c0,20.125,12.476,37.334,30.11,44.319l12.053-30.459c-5.518-2.183-9.422-7.563-9.422-13.86c0-8.232,6.676-14.907,14.908-14.907
		c8.235,0,14.91,6.675,14.91,14.907c0,6.296-3.909,11.677-9.424,13.86l12.052,30.459
		C547.265,257.999,559.738,240.79,559.738,220.665z"/>
	<g>
		<text transform="matrix(1 0 0 1 465.749 301.249)" fill="#FFFFFF" font-family="'OpenSans-Semibold'" font-size="15">Open Source</text>
	</g>
</g>
<g>
	<circle fill="#C7403D" cx="821.148" cy="219" r="121.065"/>
	<g>
		<text transform="matrix(1 0 0 1 793.4473 301.25)" fill="#FFFFFF" font-family="'OpenSans-Semibold'" font-size="15">Passion</text>
	</g>
	<polygon fill="#FFFFFF" points="875.499,188.521 859.564,172.589 837.032,172.589 821.146,188.478 805.26,172.589 782.729,172.589 
		766.798,188.521 766.798,211.055 821.157,265.411 875.499,211.055 	"/>
</g>
<g>
	<circle fill="#3C948B" cx="820.97" cy="549" r="121.065"/>
	<text transform="matrix(1 0 0 1 778.6064 631.251)" fill="#FFFFFF" font-family="'OpenSans-Semibold'" font-size="15">Community</text>
	<g>
		<circle fill="#FFFFFF" cx="869.211" cy="522.582" r="18.188"/>
		<circle fill="#FFFFFF" cx="770.788" cy="522.579" r="18.188"/>
		<path fill="#FFFFFF" d="M852.238,573.141c-3.611-5.594-7.986-9.228-14.242-11.285c0,0-4.72-2.424-17.051-2.424
			c-12.335,0-17.055,2.424-17.055,2.424c-6.257,2.078-10.632,5.691-14.247,11.285c-1.429,2.203-2.203,6.63-2.254,8.999
			c0.018,0.615,0,1.328,0,2.042v4.078v-2.812c0,4.509,3.078,8.161,6.878,8.161h53.34c3.803,0,6.879-3.652,6.879-8.161v2.812v-4.078
			c0-0.714-0.015-1.427,0-2.042C854.438,579.771,853.669,575.344,852.238,573.141"/>
		<path fill="#FFFFFF" d="M800.203,557.074c-3.031-3.85-6.666-6.488-11.534-8.084c0,0-4.412-2.271-15.936-2.271
			c-11.528,0-15.939,2.271-15.939,2.271c-5.845,1.938-9.937,5.317-13.312,10.541c-1.336,2.059-2.059,6.201-2.107,8.408
			c0.017,0.577,0,1.246,0,1.91v1.18c0,4.216,2.876,7.63,6.431,7.63h32.189c0.458-2.671,1.272-5.602,2.431-7.384
			C786.947,564.269,792.426,559.725,800.203,557.074z"/>
		<path fill="#FFFFFF" d="M841.735,557.074c3.03-3.85,6.668-6.488,11.533-8.084c0,0,4.414-2.271,15.935-2.271
			c11.526,0,15.942,2.271,15.942,2.271c5.846,1.938,9.932,5.317,13.309,10.541c1.34,2.059,2.061,6.201,2.111,8.408
			c-0.017,0.577,0,1.246,0,1.91v1.18c0,4.216-2.878,7.63-6.431,7.63h-32.188c-0.461-2.671-1.271-5.602-2.434-7.384
			C854.99,564.269,849.514,559.725,841.735,557.074z"/>
		<path fill="#FFFFFF" d="M839.125,537.301c0,10.049-8.142,18.188-18.188,18.188c-10.045,0-18.188-8.14-18.188-18.188
			c0-10.043,8.144-18.188,18.188-18.188C830.983,519.113,839.125,527.258,839.125,537.301z"/>
	</g>
</g>
<circle fill="#3D8BC7" cx="511.911" cy="549" r="121.065"/>
<g>
	<text transform="matrix(1 0 0 1 470.6641 631.251)" fill="#FFFFFF" font-family="'OpenSans-Semibold'" font-size="15">Technology</text>
</g>
<polygon fill="#FFFFFF" stroke="#3D8BC7" stroke-width="4" stroke-miterlimit="10" points="554.636,520 457.136,520 469.187,502 
	566.687,502 "/>
<rect x="458" y="522" fill="#FFFFFF" stroke="#3D8BC7" stroke-width="4" stroke-miterlimit="10" width="97" height="35"/>
<rect x="458" y="560" fill="#FFFFFF" stroke="#3D8BC7" stroke-width="4" stroke-miterlimit="10" width="97" height="35"/>
<polygon fill="#FFFFFF" stroke="#3D8BC7" stroke-width="4" stroke-miterlimit="10" points="568,538.592 556,559.408 556,521.062 
	568,500.25 "/>
<polygon fill="#FFFFFF" stroke="#3D8BC7" stroke-width="4" stroke-miterlimit="10" points="568,576.935 556,597.75 556,559.408 
	568,538.592 "/>
<path fill="#FFFFFF" stroke="#3D8BC7" stroke-width="2" stroke-miterlimit="10" d="M472,515v-5.539c0,0,5-4.207,10,0V515"/>
<path fill="#FFFFFF" stroke="#3D8BC7" stroke-width="2" stroke-miterlimit="10" d="M494,515v-5.539c0,0,5-4.207,10,0V515"/>
<path fill="#FFFFFF" stroke="#3D8BC7" stroke-width="2" stroke-miterlimit="10" d="M516,515v-5.539c0,0,5-4.207,10,0V515"/>
<path fill="#FFFFFF" stroke="#3D8BC7" stroke-width="2" stroke-miterlimit="10" d="M538,515v-5.539c0,0,5-4.207,10,0V515"/>
<g>
	<circle fill="#C7403D" cx="202.852" cy="549.001" r="121.065"/>
	<g>
		<text transform="matrix(1 0 0 1 161.7158 630)" fill="#FFFFFF" font-family="'OpenSans-Semibold'" font-size="15">Innovation</text>
	</g>
	<g>
		<g>
			<path fill="#FFFFFF" d="M211.056,576.494h-16.41c-3.178,0-5.762-2.583-5.762-5.762v-1.751c0-4.46-2.996-9.702-6.167-15.251
				c-4.146-7.249-8.843-15.472-8.843-24.861c0-15.979,12.999-28.977,28.977-28.977c15.979,0,28.978,12.998,28.978,28.977
				c0,8.623-4.588,16.851-8.636,24.111c-3.276,5.879-6.375,11.434-6.375,16.001v1.751
				C216.819,573.911,214.236,576.494,211.056,576.494z M202.852,503.376c-14.058,0-25.493,11.436-25.493,25.493
				c0,8.465,4.453,16.258,8.384,23.133c3.408,5.964,6.626,11.594,6.626,16.979v1.751c0,1.257,1.021,2.277,2.278,2.277h16.412
				c1.256,0,2.279-1.021,2.279-2.277v-1.751c0-5.474,3.311-11.411,6.815-17.697c4.03-7.227,8.195-14.695,8.195-22.415
				C228.347,514.812,216.907,503.376,202.852,503.376z"/>
		</g>
		<g>
			<line fill="none" stroke="#FFFFFF" stroke-width="3" stroke-miterlimit="10" x1="204.5" y1="574" x2="204.5" y2="549"/>
			<line fill="none" stroke="#FFFFFF" stroke-width="3" stroke-miterlimit="10" x1="200.5" y1="574" x2="200.5" y2="549"/>
			
				<ellipse fill="none" stroke="#FFFFFF" stroke-width="1.6843" stroke-miterlimit="10" cx="199.413" cy="541.34" rx="3.018" ry="7.02"/>
			
				<ellipse fill="none" stroke="#FFFFFF" stroke-width="1.6843" stroke-miterlimit="10" cx="202.781" cy="541.34" rx="3.018" ry="7.02"/>
			
				<ellipse fill="none" stroke="#FFFFFF" stroke-width="1.6843" stroke-miterlimit="10" cx="206.15" cy="541.34" rx="3.018" ry="7.02"/>
		</g>
		<g>
			<g>
				<rect x="191.436" y="581.44" fill="#FFFFFF" width="22.834" height="1.945"/>
			</g>
			<g>
				<rect x="191.436" y="586.636" fill="#FFFFFF" width="22.834" height="1.945"/>
			</g>
			<g>
				<rect x="191.436" y="591.748" fill="#FFFFFF" width="22.834" height="1.945"/>
			</g>
			<path fill="none" stroke="#FFFFFF" stroke-width="3" stroke-miterlimit="10" d="M213.5,595.107c0,1.489-0.785,4.393-2.377,4.393
				h-16.295c-1.592,0-3.328-2.903-3.328-4.393v-15.223c0-1.486,1.736-2.385,3.328-2.385h16.295c1.592,0,2.377,0.898,2.377,2.385
				V595.107z"/>
		</g>
	</g>
</g>
</svg>
