<?xml version="1.0" encoding="utf-8"?>
<!-- Generator: Adobe Illustrator 16.0.4, SVG Export Plug-In . SVG Version: 6.00 Build 0)  -->
<!DOCTYPE svg PUBLIC "-//W3C//DTD SVG 1.1//EN" "http://www.w3.org/Graphics/SVG/1.1/DTD/svg11.dtd">
<svg version="1.1" id="Layer_1" xmlns="http://www.w3.org/2000/svg" xmlns:xlink="http://www.w3.org/1999/xlink" x="0px" y="0px"
	 width="1024px" height="768px" viewBox="0 0 1024 768" enable-background="new 0 0 1024 768" xml:space="preserve">
<g>
	<g>
		<rect x="459" y="441" fill="#C7403D" width="133" height="62"/>
		<rect x="459" y="295" fill="#3C948B" width="133" height="63"/>
		<rect x="459" y="376" fill="#3D8BC7" width="133" height="65"/>
		<rect x="467" y="370" fill="#3D8BC7" width="23" height="9"/>
		<rect x="514" y="370" fill="#3D8BC7" width="23" height="9"/>
		<rect x="559" y="370" fill="#3D8BC7" width="24" height="9"/>
		<rect x="467" y="288" fill="#3C948B" width="23" height="8"/>
		<rect x="514" y="288" fill="#3C948B" width="23" height="8"/>
		<rect x="559" y="288" fill="#3C948B" width="24" height="8"/>
	</g>
	<text transform="matrix(1 0 0 1 438.0537 296.1162)" fill="#3C948B" font-family="'OpenSans-Semibold'" font-size="36.4467">+</text>
</g>
<g>
	<g>
		<path fill="#2D2D2D" d="M859.436,405.41c0,7.645-2.764,13.643-8.292,17.994c-5.528,4.353-13.154,6.527-22.876,6.527
			c-9.723,0-17.682-1.51-23.877-4.527v-13.292c3.921,1.844,8.087,3.294,12.498,4.353c4.41,1.059,8.517,1.588,12.319,1.588
			c5.567,0,9.675-1.059,12.32-3.175c2.646-2.118,3.97-4.961,3.97-8.527c0-3.216-1.215-5.94-3.646-8.175
			c-2.431-2.235-7.448-4.882-15.054-7.939c-7.842-3.175-13.37-6.802-16.585-10.88c-3.214-4.077-4.822-8.978-4.822-14.702
			c0-7.174,2.548-12.819,7.646-16.937c5.097-4.116,11.938-6.175,20.522-6.175c8.234,0,16.429,1.805,24.583,5.41l-4.469,11.468
			c-7.646-3.214-14.467-4.822-20.466-4.822c-4.549,0-7.998,0.991-10.35,2.97c-2.353,1.98-3.528,4.597-3.528,7.852
			c0,2.235,0.469,4.146,1.412,5.733c0.939,1.588,2.488,3.088,4.645,4.499c2.156,1.412,6.038,3.273,11.646,5.587
			c6.311,2.627,10.937,5.077,13.877,7.351c2.941,2.274,5.098,4.843,6.469,7.705C858.75,398.156,859.436,401.528,859.436,405.41z"/>
		<path fill="#2D2D2D" d="M864.728,363.715h15.056l13.231,36.872c2,5.253,3.333,10.193,3.999,14.819h0.471
			c0.354-2.155,1.001-4.772,1.941-7.851c0.941-3.077,5.919-17.691,14.937-43.841H929.3l-27.815,73.687
			c-5.059,13.524-13.487,20.288-25.288,20.288c-3.058,0-6.038-0.333-8.939-1v-10.938c2.078,0.47,4.45,0.706,7.116,0.706
			c6.664,0,11.35-3.862,14.055-11.586l2.412-6.116L864.728,363.715z"/>
		<path fill="#2D2D2D" d="M937.121,421.404c0-2.862,0.746-5.057,2.234-6.586c1.49-1.528,3.646-2.293,6.469-2.293
			c2.863,0,5.039,0.794,6.529,2.382c1.489,1.587,2.234,3.753,2.234,6.497c0,2.783-0.755,4.99-2.265,6.617s-3.675,2.439-6.499,2.439
			c-2.822,0-4.979-0.803-6.469-2.41C937.867,426.442,937.121,424.228,937.121,421.404z"/>
		<rect x="827" y="329" fill="#2D2D2D" width="9" height="16"/>
		<rect x="827" y="429" fill="#2D2D2D" width="9" height="15"/>
	</g>
	<text transform="matrix(1 0 0 1 789.0537 341.543)" fill="#3C948B" font-family="'OpenSans-Semibold'" font-size="36.4467">+</text>
</g>
<g>
	<path fill="#2D2D2D" d="M246.852,504.477H68.262c-5.446,0-9.901-5.528-9.901-8.252v-59.427c0-2.723,4.456-4.951,9.901-4.951h178.59
		c5.446,0,9.901,2.229,9.901,4.951v59.427C256.753,498.948,252.298,504.477,246.852,504.477"/>
	<path fill="#BDC1C6" d="M246.852,445.684H68.262c-5.446,0-9.901-4.456-9.901-9.901l33.005-108.953
		c0-5.446,6.106-9.901,11.552-9.901h109.279c5.446,0,11.552,4.455,11.552,9.901l33.005,108.953
		C256.753,441.228,252.298,445.684,246.852,445.684"/>
</g>
<g>
	<path fill="#3C948B" d="M310.416,424.795c-1.82-0.062-3.201-0.921-4.039-2.689c-0.821-1.733-0.752-3.478,0.318-5.034
		c1.041-1.517,2.278-2.874,3.348-4.369c5.124-7.147,8.165-15.236,8.881-24.235c1.082-13.612-2.573-25.606-10.979-35.854
		c-0.907-1.105-1.809-2.164-2.024-3.728c-0.256-1.878,0.616-3.989,2.175-4.986c1.528-0.976,3.753-0.964,5,0.289
		c1.372,1.377,2.656,2.884,3.825,4.468c5.983,8.112,9.729,17.324,10.915,27.616c2.061,17.88-2.611,33.508-13.88,46.803
		C313.012,424.187,311.846,424.81,310.416,424.795"/>
	<path fill="#3C948B" d="M298.502,413.705c-1.428-0.084-2.815-0.885-3.658-2.614c-0.835-1.717-0.81-3.466,0.231-5.04
		c0.955-1.443,2.13-2.714,3.112-4.136c7.33-10.621,7.339-25.152,0.023-35.777c-0.84-1.222-1.815-2.331-2.723-3.497
		c-1.847-2.37-1.499-5.615,0.796-7.438c1.812-1.439,4.388-1.122,6.103,0.847c7.745,8.9,11.293,19.442,10.327,31.648
		c-0.749,9.476-4.387,17.565-10.441,24.41C301.349,413.15,300.208,413.715,298.502,413.705"/>
	<path fill="#3C948B" d="M287.21,402.739c-2.079-0.278-3.531-1.354-4.225-3.403c-0.708-2.093-0.164-3.958,1.292-5.487
		c2.137-2.245,3.485-4.917,3.845-8.13c0.474-4.245-0.675-7.931-3.397-11.019c-0.84-0.952-1.628-1.895-1.902-3.232
		c-0.397-1.938,0.365-4.058,1.912-5.19c1.544-1.129,3.768-1.132,5.21,0.128c3.226,2.818,5.375,6.47,6.54,10.733
		c1.964,7.202,0.998,13.979-2.913,20.204c-1.145,1.82-2.395,3.6-4.236,4.678C288.696,402.396,287.923,402.507,287.21,402.739"/>
</g>
<g>
	<polyline fill="none" stroke="#3C948B" stroke-width="4" stroke-miterlimit="10" points="662,390 725,390 700,368.078 	"/>
	<line fill="none" stroke="#3C948B" stroke-width="4" stroke-miterlimit="10" x1="662" y1="400" x2="730" y2="400"/>
</g>
</svg>
