<?xml version="1.0" encoding="utf-8"?>
<!-- Generator: Adobe Illustrator 16.0.4, SVG Export Plug-In . SVG Version: 6.00 Build 0)  -->
<!DOCTYPE svg PUBLIC "-//W3C//DTD SVG 1.1//EN" "http://www.w3.org/Graphics/SVG/1.1/DTD/svg11.dtd">
<svg version="1.1" id="Layer_1" xmlns="http://www.w3.org/2000/svg" xmlns:xlink="http://www.w3.org/1999/xlink" x="0px" y="0px"
	 width="1024px" height="768px" viewBox="0 0 1024 768" enable-background="new 0 0 1024 768" xml:space="preserve">
<g>
	<path fill="#2D2D2D" d="M517.483,565.821c-2.468-0.083-4.34-1.248-5.476-3.646c-1.113-2.351-1.021-4.717,0.432-6.827
		c1.411-2.056,3.088-3.896,4.54-5.925c6.947-9.691,11.07-20.66,12.043-32.863c1.466-18.458-3.49-34.722-14.888-48.616
		c-1.23-1.5-2.453-2.936-2.745-5.057c-0.348-2.545,0.835-5.409,2.949-6.761c2.07-1.322,5.088-1.307,6.779,0.394
		c1.859,1.865,3.602,3.909,5.186,6.057c8.113,11.002,13.191,23.493,14.801,37.448c2.794,24.246-3.541,45.436-18.821,63.465
		C521.004,564.996,519.422,565.841,517.483,565.821"/>
	<path fill="#2D2D2D" d="M501.33,550.783c-1.937-0.113-3.819-1.2-4.961-3.545c-1.133-2.327-1.098-4.699,0.313-6.834
		c1.296-1.957,2.889-3.68,4.22-5.608c9.939-14.401,9.952-34.107,0.032-48.515c-1.141-1.656-2.462-3.161-3.693-4.741
		c-2.504-3.215-2.033-7.615,1.079-10.086c2.457-1.953,5.95-1.522,8.276,1.146c10.501,12.07,15.312,26.365,14.002,42.916
		c-1.016,12.85-5.949,23.819-14.159,33.1C505.188,550.031,503.642,550.796,501.33,550.783"/>
	<path fill="#2D2D2D" d="M486.018,535.913c-2.819-0.376-4.788-1.835-5.729-4.615c-0.96-2.838-0.223-5.366,1.751-7.439
		c2.897-3.045,4.725-6.667,5.213-11.023c0.642-5.758-0.915-10.755-4.607-14.942c-1.139-1.291-2.208-2.569-2.579-4.384
		c-0.538-2.629,0.495-5.502,2.592-7.037c2.094-1.531,5.109-1.536,7.065,0.174c4.375,3.82,7.289,8.771,8.868,14.554
		c2.664,9.767,1.353,18.956-3.949,27.396c-1.552,2.47-3.248,4.882-5.744,6.343C488.033,535.448,486.984,535.599,486.018,535.913"/>
</g>
<g>
	<g>
		<g>
			<rect x="692" y="464" fill="#C7403D" width="233" height="109"/>
			<rect x="692" y="208" fill="#3C948B" width="233" height="110"/>
			<rect x="692" y="350" fill="#3D8BC7" width="233" height="114"/>
			<rect x="706" y="339" fill="#3D8BC7" width="40" height="16"/>
			<rect x="788" y="339" fill="#3D8BC7" width="41" height="16"/>
			<rect x="867" y="339" fill="#3D8BC7" width="42" height="16"/>
			<rect x="706" y="195" fill="#3C948B" width="40" height="15"/>
			<rect x="788" y="195" fill="#3C948B" width="41" height="15"/>
			<rect x="867" y="195" fill="#3C948B" width="42" height="15"/>
		</g>
	</g>
	<g>
		<path fill="#FFFFFF" d="M808.018,265.479c0,2.393-0.865,4.27-2.595,5.632c-1.729,1.361-4.117,2.042-7.16,2.042
			s-5.533-0.473-7.473-1.416v-4.16c1.228,0.576,2.53,1.03,3.912,1.361c1.38,0.333,2.664,0.499,3.855,0.499
			c1.741,0,3.027-0.333,3.854-0.994c0.83-0.664,1.245-1.554,1.245-2.671c0-1.007-0.383-1.858-1.144-2.558
			c-0.76-0.699-2.329-1.527-4.711-2.484c-2.452-0.994-4.184-2.129-5.19-3.406c-1.006-1.274-1.51-2.809-1.51-4.601
			c0-2.243,0.799-4.011,2.393-5.3c1.597-1.289,3.737-1.932,6.425-1.932c2.575,0,5.141,0.563,7.693,1.693l-1.398,3.588
			c-2.394-1.006-4.529-1.509-6.406-1.509c-1.424,0-2.503,0.309-3.238,0.929c-0.736,0.619-1.104,1.438-1.104,2.457
			c0,0.699,0.146,1.298,0.44,1.793c0.293,0.499,0.78,0.969,1.454,1.41c0.673,0.441,1.891,1.023,3.646,1.747
			c1.975,0.823,3.422,1.589,4.342,2.302c0.921,0.712,1.597,1.516,2.024,2.41C807.802,263.209,808.018,264.266,808.018,265.479z"/>
		<path fill="#FFFFFF" d="M809.674,252.43h4.712l4.14,11.541c0.628,1.644,1.044,3.188,1.254,4.637h0.147
			c0.109-0.676,0.312-1.494,0.606-2.456c0.295-0.964,1.853-5.537,4.675-13.722h4.674l-8.704,23.061
			c-1.584,4.233-4.222,6.351-7.914,6.351c-0.957,0-1.89-0.104-2.798-0.313v-3.424c0.651,0.148,1.392,0.222,2.227,0.222
			c2.086,0,3.552-1.207,4.398-3.626l0.755-1.914L809.674,252.43z"/>
		<rect x="798" y="242" fill="#FFFFFF" width="3" height="5"/>
		<rect x="798" y="273" fill="#FFFFFF" width="3" height="4"/>
	</g>
	<g>
		<path fill="#FFFFFF" d="M808.018,415.479c0,2.393-0.865,4.27-2.595,5.632c-1.729,1.361-4.117,2.042-7.16,2.042
			s-5.533-0.473-7.473-1.416v-4.16c1.228,0.576,2.53,1.03,3.912,1.361c1.38,0.333,2.664,0.499,3.855,0.499
			c1.741,0,3.027-0.333,3.854-0.994c0.83-0.664,1.245-1.554,1.245-2.671c0-1.007-0.383-1.858-1.144-2.558
			c-0.76-0.699-2.329-1.527-4.711-2.484c-2.452-0.994-4.184-2.129-5.19-3.406c-1.006-1.274-1.51-2.809-1.51-4.601
			c0-2.243,0.799-4.011,2.393-5.3c1.597-1.289,3.737-1.932,6.425-1.932c2.575,0,5.141,0.563,7.693,1.693l-1.398,3.588
			c-2.394-1.006-4.529-1.509-6.406-1.509c-1.424,0-2.503,0.309-3.238,0.929c-0.736,0.619-1.104,1.438-1.104,2.457
			c0,0.699,0.146,1.298,0.44,1.793c0.293,0.499,0.78,0.969,1.454,1.41c0.673,0.441,1.891,1.023,3.646,1.747
			c1.975,0.823,3.422,1.589,4.342,2.302c0.921,0.712,1.597,1.516,2.024,2.41C807.802,413.209,808.018,414.266,808.018,415.479z"/>
		<path fill="#FFFFFF" d="M809.674,402.43h4.712l4.14,11.541c0.628,1.644,1.044,3.188,1.254,4.637h0.147
			c0.109-0.676,0.312-1.494,0.606-2.456c0.295-0.964,1.853-5.537,4.675-13.722h4.674l-8.704,23.061
			c-1.584,4.233-4.222,6.351-7.914,6.351c-0.957,0-1.89-0.104-2.798-0.313v-3.424c0.651,0.148,1.392,0.222,2.227,0.222
			c2.086,0,3.552-1.207,4.398-3.626l0.755-1.914L809.674,402.43z"/>
		<rect x="798" y="392" fill="#FFFFFF" width="3" height="5"/>
		<rect x="798" y="423" fill="#FFFFFF" width="3" height="4"/>
	</g>
	<g>
		<path fill="#FFFFFF" d="M808.018,525.479c0,2.393-0.865,4.27-2.595,5.632c-1.729,1.361-4.117,2.042-7.16,2.042
			s-5.533-0.473-7.473-1.416v-4.16c1.228,0.576,2.53,1.03,3.912,1.361c1.38,0.333,2.664,0.499,3.855,0.499
			c1.741,0,3.027-0.333,3.854-0.994c0.83-0.664,1.245-1.554,1.245-2.671c0-1.007-0.383-1.858-1.144-2.558
			c-0.76-0.699-2.329-1.527-4.711-2.484c-2.452-0.994-4.184-2.129-5.19-3.406c-1.006-1.274-1.51-2.809-1.51-4.601
			c0-2.243,0.799-4.011,2.393-5.3c1.597-1.289,3.737-1.932,6.425-1.932c2.575,0,5.141,0.563,7.693,1.693l-1.398,3.588
			c-2.394-1.006-4.529-1.509-6.406-1.509c-1.424,0-2.503,0.309-3.238,0.929c-0.736,0.619-1.104,1.438-1.104,2.457
			c0,0.699,0.146,1.298,0.44,1.793c0.293,0.499,0.78,0.969,1.454,1.41c0.673,0.441,1.891,1.023,3.646,1.747
			c1.975,0.823,3.422,1.589,4.342,2.302c0.921,0.712,1.597,1.516,2.024,2.41C807.802,523.209,808.018,524.266,808.018,525.479z"/>
		<path fill="#FFFFFF" d="M809.674,512.43h4.712l4.14,11.541c0.628,1.644,1.044,3.188,1.254,4.637h0.147
			c0.109-0.676,0.312-1.494,0.606-2.456c0.295-0.964,1.853-5.537,4.675-13.722h4.674l-8.704,23.061
			c-1.584,4.233-4.222,6.351-7.914,6.351c-0.957,0-1.89-0.104-2.798-0.313v-3.424c0.651,0.148,1.392,0.222,2.227,0.222
			c2.086,0,3.552-1.207,4.398-3.626l0.755-1.914L809.674,512.43z"/>
		<rect x="798" y="502" fill="#FFFFFF" width="3" height="5"/>
		<rect x="798" y="533" fill="#FFFFFF" width="3" height="4"/>
	</g>
</g>
<g>
	<g>
		<path fill="#2D2D2D" d="M420.866,568.605H107.384c-9.559,0-17.38-9.703-17.38-14.484V449.809c0-4.779,7.821-8.691,17.38-8.691
			h313.481c9.56,0,17.38,3.912,17.38,8.691v104.312C438.246,558.902,430.426,568.605,420.866,568.605"/>
		<path fill="#BDC1C6" d="M420.866,465.405H107.384c-9.559,0-17.38-7.821-17.38-17.38l57.934-191.247
			c0-9.56,10.718-17.38,20.277-17.38h191.82c9.56,0,20.277,7.82,20.277,17.38l57.934,191.247
			C438.246,457.584,430.426,465.405,420.866,465.405"/>
	</g>
	<path fill="#2D2D2D" d="M244.257,284.305c-0.349,2.17-0.349,2.17-0.396,6.176c-0.783,0.782,29.52,5.977,41.797,30.715
		c4.471,4.474-5.975,5.101-1.503,9.568c-4.411,4.267-12.932,12.188-16.833,15.949c-3.955,3.807-17.412,16.761-21.366,20.566
		c-4.76,4.587-9.522,9.167-14.282,13.752c-8.239,7.938-16.478,15.87-24.717,23.802c-0.386,0.37-0.77,0.745-1.155,1.115
		c-1.062,1.021-1.07,2.748-0.094,3.723c1.553,1.554,2.26,2.259,3.814,3.814c1.555,1.553,2.261,2.26,3.815,3.814
		c0.974,0.974,2.703,0.966,3.725-0.095c0.371-0.385,0.741-0.77,1.113-1.153c7.933-8.24,15.867-16.48,23.8-24.722
		c4.521-4.693,9.042-9.387,13.561-14.081c3.743-3.894,17.019-17.675,20.762-21.564c3.758-3.904,12.105-12.215,16.372-16.626
		c1.29,1.288,0.714,0.38,2.004,1.668c3.198-0.791,4.081-4.469,7.512-3.172c5.756,2.172,12.688,9.849,18.698,17.863
		c0.885,0.335,14.941,25.413,15.358,24.873c-7.069-42.736-29.109-56.456-29.109-56.456c-0.004,0-0.004-0.003-0.008-0.007
		c1.167-1.195,2.333-2.394,3.497-3.591c0.54-0.554,0.577-1.426,0.054-1.951c-1.983-1.983-3.969-3.966-5.955-5.952
		c-0.524-0.521-1.396-0.485-1.949,0.053c-1.196,1.164-2.398,2.333-3.592,3.499c-0.002-0.002-0.002-0.002-0.003-0.003
		C289.435,300.886,244.257,284.305,244.257,284.305z"/>
</g>
<text transform="matrix(1 0 0 1 668.4043 201.5371)" fill="#3C948B" font-family="'OpenSans-Semibold'" font-size="46.8238">+</text>
</svg>
