<?xml version="1.0" encoding="utf-8"?>
<!-- Generator: Adobe Illustrator 16.0.4, SVG Export Plug-In . SVG Version: 6.00 Build 0)  -->
<!DOCTYPE svg PUBLIC "-//W3C//DTD SVG 1.1//EN" "http://www.w3.org/Graphics/SVG/1.1/DTD/svg11.dtd">
<svg version="1.1" xmlns="http://www.w3.org/2000/svg" xmlns:xlink="http://www.w3.org/1999/xlink" x="0px" y="0px"
	 width="757.551px" height="321px" viewBox="0 0 757.551 321" enable-background="new 0 0 757.551 321" xml:space="preserve">
<g id="Layer_3">
	<rect x="-133.449" y="-111" fill="#3C948B" width="74" height="68"/>
	<rect x="-27.449" y="-111" fill="#393B36" width="69" height="68"/>
	<rect x="87.551" y="-111" fill="#E7E8E8" width="73" height="68"/>
</g>
<g id="Layer_5" display="none">
	<rect x="-133.449" y="-26" display="inline" fill="#393B36" width="1024" height="348"/>
</g>
<g id="Layer_1" display="none">
	<rect x="14.551" y="46" display="inline" fill="#393B36" width="10" height="9"/>
	<rect x="78.551" y="85" display="inline" fill="#393B36" width="19" height="19"/>
	<rect x="186.551" y="28" display="inline" fill="#393B36" width="17" height="17"/>
	<rect x="233.551" y="180" display="inline" fill="#393B36" width="26" height="26"/>
	<rect x="125.551" y="169" display="inline" fill="#393B36" width="12" height="12"/>
	<rect x="0.551" y="169" display="inline" fill="#393B36" width="21" height="22"/>
	<rect x="214.551" y="104" display="inline" fill="#393B36" width="20" height="20"/>
	<circle display="inline" fill="#393B36" cx="114.017" cy="31.598" r="11.597"/>
	<circle display="inline" fill="#393B36" cx="149.512" cy="97.667" r="9.514"/>
	<circle display="inline" fill="#393B36" cx="-9.337" cy="87.476" r="15.112"/>
	<circle display="inline" fill="#393B36" cx="72.547" cy="154.952" r="6.326"/>
	<circle display="inline" fill="#393B36" cx="190.982" cy="236.837" r="22.198"/>
	<circle display="inline" fill="#393B36" cx="274.975" cy="50.575" r="10.192"/>
	<circle display="inline" fill="#393B36" cx="47.595" cy="236.837" r="3.866"/>
	<rect x="-37.449" y="495" display="inline" fill="#393B36" width="9" height="10"/>
	<rect x="1.551" y="422" display="inline" fill="#393B36" width="19" height="19"/>
	<rect x="-50.449" y="321" display="inline" fill="#393B36" width="7" height="7"/>
	<rect x="88.551" y="252" display="inline" fill="#393B36" width="42" height="42"/>
	<rect x="85.551" y="382" display="inline" fill="#393B36" width="12" height="12"/>
	<rect x="85.551" y="498" display="inline" fill="#393B36" width="22" height="21"/>
	<rect x="20.551" y="285" display="inline" fill="#393B36" width="20" height="20"/>
	<circle display="inline" fill="#393B36" cx="-51.599" cy="405.897" r="11.598"/>
	<circle display="inline" fill="#393B36" cx="14.471" cy="370.402" r="5.271"/>
	<circle display="inline" fill="#393B36" cx="4.28" cy="529.252" r="15.111"/>
	<circle display="inline" fill="#393B36" cx="71.754" cy="447.367" r="6.326"/>
	<circle display="inline" fill="#393B36" cx="153.64" cy="328.933" r="14.173"/>
	<circle display="inline" fill="#393B36" cx="-32.622" cy="244.939" r="10.192"/>
	<circle display="inline" fill="#393B36" cx="153.64" cy="472.319" r="3.866"/>
	<rect x="373.551" y="375" display="inline" fill="#393B36" width="19" height="19"/>
	<rect x="271.551" y="438" display="inline" fill="#393B36" width="9" height="9"/>
	<rect x="213.551" y="275" display="inline" fill="#393B36" width="22" height="22"/>
	<rect x="333.551" y="298" display="inline" fill="#393B36" width="12" height="12"/>
	<rect x="449.551" y="288" display="inline" fill="#393B36" width="21" height="22"/>
	<rect x="236.551" y="355" display="inline" fill="#393B36" width="20" height="20"/>
	<circle display="inline" fill="#393B36" cx="357.701" cy="447.513" r="11.598"/>
	<circle display="inline" fill="#393B36" cx="322.206" cy="381.442" r="5.271"/>
	<circle display="inline" fill="#393B36" cx="481.056" cy="391.634" r="15.111"/>
	<circle display="inline" fill="#393B36" cx="399.171" cy="324.159" r="6.326"/>
	<circle display="inline" fill="#393B36" cx="280.736" cy="242.272" r="18.274"/>
	<circle display="inline" fill="#393B36" cx="196.742" cy="428.534" r="12.626"/>
	<circle display="inline" fill="#393B36" cx="424.123" cy="242.272" r="5.337"/>
	<rect x="442.551" y="420" display="inline" fill="#393B36" width="18" height="17"/>
</g>
<g id="Layer_2" display="none">
	
		<line display="inline" fill="none" stroke="#393B36" stroke-miterlimit="10" x1="481.056" y1="391.634" x2="451.886" y2="428.534"/>
	
		<line display="inline" fill="none" stroke="#393B36" stroke-miterlimit="10" x1="451.886" y1="428.534" x2="383.532" y2="384.431"/>
	
		<line display="inline" fill="none" stroke="#393B36" stroke-miterlimit="10" x1="383.532" y1="384.431" x2="276.344" y2="442.769"/>
	
		<line display="inline" fill="none" stroke="#393B36" stroke-miterlimit="10" x1="276.344" y1="442.769" x2="322.206" y2="381.442"/>
	
		<line display="inline" fill="none" stroke="#393B36" stroke-miterlimit="10" x1="383.532" y1="384.431" x2="357.701" y2="447.513"/>
	
		<line display="inline" fill="none" stroke="#393B36" stroke-miterlimit="10" x1="383.532" y1="384.431" x2="340.129" y2="303.774"/>
	
		<line display="inline" fill="none" stroke="#393B36" stroke-miterlimit="10" x1="340.129" y1="303.774" x2="280.736" y2="242.272"/>
	<line display="inline" fill="none" stroke="#393B36" stroke-miterlimit="10" x1="280.736" y1="242.272" x2="247.35" y2="364.925"/>
	<line display="inline" fill="none" stroke="#393B36" stroke-miterlimit="10" x1="247.35" y1="364.925" x2="340.129" y2="303.774"/>
	<line display="inline" fill="none" stroke="#393B36" stroke-miterlimit="10" x1="196.743" y1="428.534" x2="247.35" y2="364.925"/>
	<line display="inline" fill="none" stroke="#393B36" stroke-miterlimit="10" x1="193.58" y1="428.534" x2="225.209" y2="285.853"/>
	
		<line display="inline" fill="none" stroke="#393B36" stroke-miterlimit="10" x1="340.129" y1="303.774" x2="422.366" y2="242.272"/>
	
		<line display="inline" fill="none" stroke="#393B36" stroke-miterlimit="10" x1="424.123" y1="242.272" x2="451.886" y2="428.534"/>
	<line display="inline" fill="none" stroke="#393B36" stroke-miterlimit="10" x1="460.849" y1="299.03" x2="399.171" y2="324.159"/>
	
		<line display="inline" fill="none" stroke="#393B36" stroke-miterlimit="10" x1="322.206" y1="379.685" x2="385.465" y2="384.431"/>
	<line display="inline" fill="none" stroke="#393B36" stroke-miterlimit="10" x1="322.206" y1="381.442" x2="247.35" y2="364.925"/>
	<line display="inline" fill="none" stroke="#393B36" stroke-miterlimit="10" x1="460.849" y1="299.03" x2="424.123" y2="242.272"/>
	<line display="inline" fill="none" stroke="#393B36" stroke-miterlimit="10" x1="460.849" y1="299.03" x2="278.979" y2="242.272"/>
	
		<line display="inline" fill="none" stroke="#393B36" stroke-miterlimit="10" x1="399.171" y1="324.159" x2="385.465" y2="384.431"/>
	
		<line display="inline" fill="none" stroke="#393B36" stroke-miterlimit="10" x1="401.631" y1="324.159" x2="280.736" y2="242.272"/>
	<line display="inline" fill="none" stroke="#393B36" stroke-miterlimit="10" x1="246.509" y1="193" x2="282.237" y2="243.289"/>
	<line display="inline" fill="none" stroke="#393B36" stroke-miterlimit="10" x1="282.237" y1="243.289" x2="189.481" y2="235.82"/>
	<line display="inline" fill="none" stroke="#393B36" stroke-miterlimit="10" x1="189.481" y1="235.82" x2="109.551" y2="273.405"/>
	<line display="inline" fill="none" stroke="#393B36" stroke-miterlimit="10" x1="109.551" y1="273.405" x2="47.595" y2="236.837"/>
	<line display="inline" fill="none" stroke="#393B36" stroke-miterlimit="10" x1="29.232" y1="294.149" x2="47.595" y2="236.837"/>
	
		<line display="inline" fill="none" stroke="#393B36" stroke-miterlimit="10" x1="109.551" y1="273.405" x2="225.209" y2="285.853"/>
	
		<line display="inline" fill="none" stroke="#393B36" stroke-miterlimit="10" x1="149.774" y1="324.158" x2="197.551" y2="431.729"/>
	<line display="inline" fill="none" stroke="#393B36" stroke-miterlimit="10" x1="222.046" y1="288" x2="247.009" y2="191"/>
	<line display="inline" fill="none" stroke="#393B36" stroke-miterlimit="10" x1="222.046" y1="288" x2="340.129" y2="303.774"/>
	
		<line display="inline" fill="none" stroke="#393B36" stroke-miterlimit="10" x1="151.895" y1="328.933" x2="131.589" y2="175.335"/>
	<line display="inline" fill="none" stroke="#393B36" stroke-miterlimit="10" x1="224.368" y1="288" x2="246.509" y2="365.981"/>
	<line display="inline" fill="none" stroke="#393B36" stroke-miterlimit="10" x1="4.28" y1="529.252" x2="-32.622" y2="500.082"/>
	<line display="inline" fill="none" stroke="#393B36" stroke-miterlimit="10" x1="-32.622" y1="500.082" x2="11.483" y2="431.729"/>
	<line display="inline" fill="none" stroke="#393B36" stroke-miterlimit="10" x1="11.483" y1="431.729" x2="-46.855" y2="324.54"/>
	<line display="inline" fill="none" stroke="#393B36" stroke-miterlimit="10" x1="-46.855" y1="324.54" x2="14.471" y2="370.402"/>
	<line display="inline" fill="none" stroke="#393B36" stroke-miterlimit="10" x1="11.483" y1="431.729" x2="-51.599" y2="405.897"/>
	<line display="inline" fill="none" stroke="#393B36" stroke-miterlimit="10" x1="11.483" y1="431.729" x2="92.138" y2="388.325"/>
	<line display="inline" fill="none" stroke="#393B36" stroke-miterlimit="10" x1="92.138" y1="388.325" x2="153.64" y2="328.933"/>
	<line display="inline" fill="none" stroke="#393B36" stroke-miterlimit="10" x1="153.64" y1="328.933" x2="30.989" y2="295.546"/>
	<line display="inline" fill="none" stroke="#393B36" stroke-miterlimit="10" x1="30.989" y1="295.546" x2="92.138" y2="388.325"/>
	<line display="inline" fill="none" stroke="#393B36" stroke-miterlimit="10" x1="-32.622" y1="244.939" x2="30.989" y2="295.546"/>
	
		<line display="inline" fill="none" stroke="#393B36" stroke-miterlimit="10" x1="-32.622" y1="241.776" x2="110.061" y2="273.405"/>
	<line display="inline" fill="none" stroke="#393B36" stroke-miterlimit="10" x1="92.138" y1="388.325" x2="153.64" y2="470.562"/>
	<line display="inline" fill="none" stroke="#393B36" stroke-miterlimit="10" x1="153.64" y1="472.319" x2="-32.622" y2="500.082"/>
	<line display="inline" fill="none" stroke="#393B36" stroke-miterlimit="10" x1="96.883" y1="509.045" x2="71.754" y2="447.367"/>
	<line display="inline" fill="none" stroke="#393B36" stroke-miterlimit="10" x1="16.228" y1="370.402" x2="11.483" y2="433.661"/>
	<line display="inline" fill="none" stroke="#393B36" stroke-miterlimit="10" x1="14.471" y1="370.402" x2="30.989" y2="295.546"/>
	<line display="inline" fill="none" stroke="#393B36" stroke-miterlimit="10" x1="96.883" y1="509.045" x2="153.64" y2="472.319"/>
	<line display="inline" fill="none" stroke="#393B36" stroke-miterlimit="10" x1="96.883" y1="509.045" x2="153.64" y2="327.176"/>
	<line display="inline" fill="none" stroke="#393B36" stroke-miterlimit="10" x1="71.754" y1="447.367" x2="11.483" y2="433.661"/>
	<line display="inline" fill="none" stroke="#393B36" stroke-miterlimit="10" x1="71.754" y1="449.827" x2="153.64" y2="328.933"/>
	<line display="inline" fill="none" stroke="#393B36" stroke-miterlimit="10" x1="-9.337" y1="87.476" x2="19.832" y2="50.575"/>
	<line display="inline" fill="none" stroke="#393B36" stroke-miterlimit="10" x1="19.832" y1="50.575" x2="88.187" y2="94.68"/>
	<line display="inline" fill="none" stroke="#393B36" stroke-miterlimit="10" x1="88.187" y1="94.68" x2="195.375" y2="36.342"/>
	<line display="inline" fill="none" stroke="#393B36" stroke-miterlimit="10" x1="195.375" y1="36.342" x2="149.512" y2="97.667"/>
	<line display="inline" fill="none" stroke="#393B36" stroke-miterlimit="10" x1="88.187" y1="94.68" x2="114.017" y2="31.598"/>
	<line display="inline" fill="none" stroke="#393B36" stroke-miterlimit="10" x1="88.187" y1="94.68" x2="131.589" y2="175.335"/>
	
		<line display="inline" fill="none" stroke="#393B36" stroke-miterlimit="10" x1="131.589" y1="175.335" x2="190.982" y2="236.837"/>
	
		<line display="inline" fill="none" stroke="#393B36" stroke-miterlimit="10" x1="190.982" y1="236.837" x2="224.368" y2="114.185"/>
	
		<line display="inline" fill="none" stroke="#393B36" stroke-miterlimit="10" x1="224.368" y1="114.185" x2="131.589" y2="175.335"/>
	<line display="inline" fill="none" stroke="#393B36" stroke-miterlimit="10" x1="274.975" y1="50.575" x2="224.368" y2="114.185"/>
	<line display="inline" fill="none" stroke="#393B36" stroke-miterlimit="10" x1="278.138" y1="50.575" x2="246.509" y2="193.258"/>
	<line display="inline" fill="none" stroke="#393B36" stroke-miterlimit="10" x1="131.589" y1="175.335" x2="49.353" y2="236.837"/>
	<line display="inline" fill="none" stroke="#393B36" stroke-miterlimit="10" x1="47.595" y1="236.837" x2="19.832" y2="50.575"/>
	<line display="inline" fill="none" stroke="#393B36" stroke-miterlimit="10" x1="10.87" y1="180.08" x2="72.547" y2="154.952"/>
	<line display="inline" fill="none" stroke="#393B36" stroke-miterlimit="10" x1="149.512" y1="99.425" x2="86.253" y2="94.68"/>
	<line display="inline" fill="none" stroke="#393B36" stroke-miterlimit="10" x1="149.512" y1="97.667" x2="224.368" y2="114.185"/>
	<line display="inline" fill="none" stroke="#393B36" stroke-miterlimit="10" x1="10.87" y1="180.08" x2="47.595" y2="236.837"/>
	<line display="inline" fill="none" stroke="#393B36" stroke-miterlimit="10" x1="10.87" y1="180.08" x2="192.739" y2="236.837"/>
	<line display="inline" fill="none" stroke="#393B36" stroke-miterlimit="10" x1="72.547" y1="154.952" x2="86.253" y2="94.68"/>
	<line display="inline" fill="none" stroke="#393B36" stroke-miterlimit="10" x1="70.087" y1="154.952" x2="190.982" y2="236.837"/>
</g>
<g id="Layer_4" display="none">
	<g display="inline">
		<polygon fill="#27615B" points="303.782,322 359.167,322.322 378.551,228.26 		"/>
		<polygon fill="#27615B" points="435.35,276.745 451.036,320 550.551,288.884 		"/>
		<polygon fill="#3C948B" points="398.801,296.434 405.801,320 451.036,320 		"/>
		<polygon fill="#9EE1DA" points="194.051,288.884 232.187,288.34 181.706,264.606 		"/>
		<polygon fill="#27615B" points="356.486,194.742 341.024,232.17 318.932,135.027 		"/>
		<polygon fill="#3C948B" points="391.64,272.324 444.551,224.26 435.335,175.266 		"/>
		<polygon fill="#27615B" points="359.645,320 405.801,320 382.801,313 		"/>
		<polygon fill="#27615B" points="204.051,108 306.515,261.844 309.762,190 		"/>
		<polygon fill="#3C948B" points="456.486,130.871 303.782,322.322 341.024,232.17 		"/>
		<polygon fill="#3C948B" points="382.801,313 378.551,228.26 359.645,320 		"/>
		<polygon fill="#9EE1DA" points="405.801,320 378.551,228.26 382.801,313 		"/>
		<polygon fill="#3C948B" points="232.187,288.34 193.248,286.792 181.706,309.881 		"/>
		<polygon fill="#3C948B" points="510.433,236.298 391.64,272.324 398.801,296.434 		"/>
		<polygon fill="#3C948B" points="306.515,261.844 303.782,322 124.051,237.5 		"/>
		<polygon fill="#3C948B" points="222.052,135.027 306.515,261.844 257.051,227 		"/>
		<polygon fill="#9EE1DA" points="341.024,232.17 303.782,322.322 313.354,110.5 		"/>
		<polygon fill="#9EE1DA" points="410.636,171.097 341.024,232.17 356.486,194.742 		"/>
		<polygon fill="#9EE1DA" points="150.063,240.971 306.515,261.844 257.051,227 		"/>
		<polygon fill="#27615B" points="152.551,322.322 303.782,322 232.187,288.34 		"/>
		<polygon fill="#27615B" points="391.64,272.324 378.551,228.26 456.486,130.871 		"/>
		<polygon fill="#9EE1DA" points="391.64,272.324 489.174,242.745 444.551,224.26 		"/>
		<polygon fill="#9EE1DA" points="398.801,296.434 451.036,320 435.35,276.745 		"/>
	</g>
</g>
<g id="Layer_7">
	<g>
		<defs>
			<rect id="SVGID_1_" x="5.551" width="752" height="321"/>
		</defs>
		<clipPath id="SVGID_2_">
			<use xlink:href="#SVGID_1_"  overflow="visible"/>
		</clipPath>
		<g clip-path="url(#SVGID_2_)">
			<defs>
				<rect id="SVGID_3_" x="10.551" y="11.955" width="768.333" height="533.045"/>
			</defs>
			<clipPath id="SVGID_4_">
				<use xlink:href="#SVGID_3_"  overflow="visible"/>
			</clipPath>
			<g clip-path="url(#SVGID_4_)">
				<defs>
					<rect id="SVGID_5_" x="10.551" y="11.955" width="768.333" height="533.045"/>
				</defs>
				<clipPath id="SVGID_6_">
					<use xlink:href="#SVGID_5_"  overflow="visible"/>
				</clipPath>
				<g clip-path="url(#SVGID_6_)">
					<defs>
						<rect id="SVGID_7_" x="-6.449" y="-3.045" width="802.333" height="549.045"/>
					</defs>
					<clipPath id="SVGID_8_">
						<use xlink:href="#SVGID_7_"  overflow="visible"/>
					</clipPath>
					<polygon clip-path="url(#SVGID_8_)" fill="#26615C" points="26.051,321 53.884,258.955 83.926,321 					"/>
					<polygon clip-path="url(#SVGID_8_)" fill="#3D948C" points="436.514,268.273 609.539,270.552 745.884,178.955 					"/>
					<polygon clip-path="url(#SVGID_8_)" fill="#3D948C" points="265.946,11.955 348.487,159.666 267.881,193.92 					"/>
					<polygon clip-path="url(#SVGID_8_)" fill="#3D948C" points="37.706,198.41 296.145,291.165 173.566,340.304 					"/>
					<polygon clip-path="url(#SVGID_8_)" fill="#26615C" points="366.147,222.343 436.514,268.273 313.755,349.36 					"/>
					<polygon clip-path="url(#SVGID_8_)" fill="#26615C" points="544.668,321 649.097,279.822 424.051,321 					"/>
					<polygon clip-path="url(#SVGID_8_)" fill="#3D948C" points="296.145,291.165 348.487,159.666 313.755,349.361 					"/>
					<polygon clip-path="url(#SVGID_8_)" fill="#3D948C" points="424.051,321 356.69,321 436.514,268.273 					"/>
					<polygon clip-path="url(#SVGID_8_)" fill="#26615C" points="495.316,251.296 436.514,268.273 502.668,175.89 					"/>
					<polygon clip-path="url(#SVGID_8_)" fill="#26615C" points="296.145,291.165 152.178,239.607 348.487,159.666 					"/>
					<polygon clip-path="url(#SVGID_8_)" fill="#3D948C" points="366.147,222.343 436.514,268.273 564.875,89.02 					"/>
					<polygon clip-path="url(#SVGID_8_)" fill="#9EE0D9" points="267.866,192.497 152.178,239.607 144.487,198.688 					"/>
					<polygon clip-path="url(#SVGID_8_)" fill="#9EE0D9" points="155.083,321 83.926,321 10.55,170.27 					"/>
					<polygon clip-path="url(#SVGID_8_)" fill="#9EE0D9" points="694.218,271.667 424.051,321 436.513,268.273 					"/>
					<polygon clip-path="url(#SVGID_8_)" fill="#9EE0D9" points="424.994,79.671 313.755,349.36 348.488,159.667 					"/>
					<polygon clip-path="url(#SVGID_8_)" fill="#9EE0D9" points="313.755,349.361 173.566,340.304 296.144,291.165 					"/>
				</g>
			</g>
		</g>
	</g>
</g>
<g id="Layer_6" display="none">
	<rect x="-133.449" y="320" display="inline" fill="#393B36" width="1024" height="348"/>
</g>
</svg>
