<?xml version="1.0" encoding="utf-8"?>
<!-- Generator: Adobe Illustrator 16.0.4, SVG Export Plug-In . SVG Version: 6.00 Build 0)  -->
<!DOCTYPE svg PUBLIC "-//W3C//DTD SVG 1.1//EN" "http://www.w3.org/Graphics/SVG/1.1/DTD/svg11.dtd">
<svg version="1.1" id="Layer_1" xmlns="http://www.w3.org/2000/svg" xmlns:xlink="http://www.w3.org/1999/xlink" x="0px" y="0px"
	 width="75.361px" height="75.361px" viewBox="0 0 75.361 75.361" enable-background="new 0 0 75.361 75.361" xml:space="preserve">
<path d="M0,0v75.361h75.361V0H0z M57.659,27.434c0.017,0.445,0.028,0.891,0.028,1.335c0,13.622-10.367,29.325-29.325,29.325
	c-5.823,0-11.241-1.707-15.802-4.629c0.806,0.094,1.626,0.145,2.457,0.145c4.833,0,9.275-1.647,12.802-4.412
	c-4.51-0.086-8.316-3.063-9.627-7.159c0.628,0.121,1.275,0.188,1.938,0.188c0.939,0,1.853-0.129,2.717-0.363
	c-4.714-0.946-8.268-5.113-8.268-10.106v-0.13c1.391,0.771,2.979,1.236,4.667,1.29c-2.765-1.848-4.583-5.004-4.583-8.579
	c0-1.89,0.508-3.659,1.396-5.185c5.085,6.239,12.679,10.343,21.245,10.771c-0.176-0.754-0.267-1.539-0.267-2.348
	c0-5.691,4.615-10.308,10.309-10.308c2.964,0,5.644,1.251,7.524,3.256c2.35-0.462,4.554-1.32,6.543-2.502
	c-0.768,2.408-2.404,4.426-4.532,5.702c2.084-0.249,4.071-0.803,5.92-1.623C61.415,24.167,59.668,25.983,57.659,27.434z"/>
</svg>
