<?xml version="1.0" encoding="utf-8"?>
<!-- Generator: Adobe Illustrator 16.0.4, SVG Export Plug-In . SVG Version: 6.00 Build 0)  -->
<!DOCTYPE svg PUBLIC "-//W3C//DTD SVG 1.1//EN" "http://www.w3.org/Graphics/SVG/1.1/DTD/svg11.dtd">
<svg version="1.1" id="Layer_1" xmlns="http://www.w3.org/2000/svg" xmlns:xlink="http://www.w3.org/1999/xlink" x="0px" y="0px"
	 width="85px" height="85px" viewBox="0 0 85 85" enable-background="new 0 0 85 85" xml:space="preserve">
<g>
	<rect x="-410" y="270" stroke="#000000" stroke-width="2" stroke-miterlimit="10" width="83" height="83"/>
	<rect x="-411" y="1" stroke="#000000" stroke-width="2" stroke-miterlimit="10" width="83" height="83"/>
	<rect x="-411" y="417" stroke="#000000" stroke-width="2" stroke-miterlimit="10" width="83" height="83"/>
	<rect x="-410" y="138" stroke="#000000" stroke-width="2" stroke-miterlimit="10" width="83" height="83"/>
	<g>
		<circle fill="#3C948B" cx="-439.656" cy="347.735" r="4.5"/>
		<circle fill="#3C948B" cx="-383.156" cy="279.235" r="7"/>
		<circle fill="#3C948B" cx="-420.656" cy="207.235" r="3.5"/>
		<circle fill="#3C948B" cx="-333.656" cy="237.235" r="5"/>
		<circle fill="#3C948B" cx="-396.156" cy="328.235" r="6"/>
		<circle fill="#3C948B" cx="-410.156" cy="426.735" r="8"/>
		<circle fill="#3C948B" cx="-390.156" cy="421.735" r="6"/>
		<circle fill="#3C948B" cx="-441.156" cy="468.735" r="4.5"/>
		<circle fill="#3C948B" cx="-406.656" cy="497.235" r="5.5"/>
		<circle fill="#3C948B" cx="-379.656" cy="363.735" r="3.5"/>
		<circle fill="#3C948B" cx="-330.156" cy="340.735" r="5.75"/>
		<circle fill="#3C948B" cx="-335.906" cy="365.235" r="5"/>
		<circle fill="#3C948B" cx="-320.656" cy="410.235" r="4.25"/>
		<circle fill="#3C948B" cx="-319.156" cy="421.735" r="6.5"/>
		<circle fill="#3C948B" cx="-325.656" cy="507.485" r="3.25"/>
		<circle fill="#3C948B" stroke="#3C948B" stroke-miterlimit="10" cx="-290.906" cy="467.985" r="2.75"/>
		<line fill="none" stroke="#3C948B" stroke-miterlimit="10" x1="-420.656" y1="207.235" x2="-383.156" y2="279.235"/>
		<line fill="none" stroke="#3C948B" stroke-miterlimit="10" x1="-420.656" y1="207.235" x2="-439.656" y2="347.735"/>
		<line fill="none" stroke="#3C948B" stroke-miterlimit="10" x1="-439.656" y1="347.735" x2="-379.656" y2="275.235"/>
		<line fill="none" stroke="#3C948B" stroke-miterlimit="10" x1="-439.656" y1="347.735" x2="-379.656" y2="363.735"/>
		<line fill="none" stroke="#3C948B" stroke-miterlimit="10" x1="-439.656" y1="347.735" x2="-390.156" y2="421.735"/>
		<line fill="none" stroke="#3C948B" stroke-miterlimit="10" x1="-420.656" y1="207.235" x2="-333.656" y2="237.235"/>
		<line fill="none" stroke="#3C948B" stroke-miterlimit="10" x1="-333.656" y1="237.235" x2="-381.519" y2="277.485"/>
		<line fill="none" stroke="#3C948B" stroke-miterlimit="10" x1="-333.656" y1="237.235" x2="-330.156" y2="340.735"/>
		<line fill="none" stroke="#3C948B" stroke-miterlimit="10" x1="-382.967" y1="279.235" x2="-330.156" y2="340.735"/>
		<line fill="none" stroke="#3C948B" stroke-miterlimit="10" x1="-382.967" y1="279.235" x2="-379.656" y2="363.735"/>
		<line fill="none" stroke="#3C948B" stroke-miterlimit="10" x1="-396.156" y1="328.235" x2="-335.906" y2="365.235"/>
		<line fill="none" stroke="#3C948B" stroke-miterlimit="10" x1="-396.156" y1="328.235" x2="-315.156" y2="314.011"/>
		<line fill="none" stroke="#3C948B" stroke-miterlimit="10" x1="-330.156" y1="340.735" x2="-296.656" y2="307.985"/>
		<line fill="none" stroke="#3C948B" stroke-miterlimit="10" x1="-330.156" y1="340.735" x2="-319.156" y2="410.235"/>
		<line fill="none" stroke="#3C948B" stroke-miterlimit="10" x1="-320.656" y1="410.235" x2="-319.156" y2="421.735"/>
		<line fill="none" stroke="#3C948B" stroke-miterlimit="10" x1="-320.656" y1="410.235" x2="-390.156" y2="421.735"/>
		<line fill="none" stroke="#3C948B" stroke-miterlimit="10" x1="-392.656" y1="421.735" x2="-377.156" y2="362.485"/>
		<line fill="none" stroke="#3C948B" stroke-miterlimit="10" x1="-396.156" y1="328.235" x2="-443.781" y2="384.265"/>
		<line fill="none" stroke="#3C948B" stroke-miterlimit="10" x1="-461.283" y1="467.985" x2="-403.406" y2="498.985"/>
		<line fill="none" stroke="#3C948B" stroke-miterlimit="10" x1="-441.156" y1="468.735" x2="-390.156" y2="421.735"/>
		<line fill="none" stroke="#3C948B" stroke-miterlimit="10" x1="-395.301" y1="328.085" x2="-410.156" y2="426.735"/>
		<line fill="none" stroke="#3C948B" stroke-miterlimit="10" x1="-410.156" y1="426.735" x2="-408.406" y2="497.235"/>
		<line fill="none" stroke="#3C948B" stroke-miterlimit="10" x1="-441.156" y1="468.735" x2="-426.656" y2="527.235"/>
		<line fill="none" stroke="#3C948B" stroke-miterlimit="10" x1="-406.656" y1="497.235" x2="-319.156" y2="420.485"/>
		<line fill="none" stroke="#3C948B" stroke-miterlimit="10" x1="-390.156" y1="421.735" x2="-343.406" y2="461.985"/>
		<line fill="none" stroke="#3C948B" stroke-miterlimit="10" x1="-343.406" y1="461.985" x2="-319.156" y2="410.235"/>
		<line fill="none" stroke="#3C948B" stroke-miterlimit="10" x1="-343.406" y1="461.985" x2="-427.156" y2="527.235"/>
		<line fill="none" stroke="#3C948B" stroke-miterlimit="10" x1="-343.406" y1="461.985" x2="-346" y2="517.235"/>
		<line fill="none" stroke="#3C948B" stroke-miterlimit="10" x1="-343.406" y1="461.985" x2="-306.406" y2="524.235"/>
		<line fill="none" stroke="#3C948B" stroke-miterlimit="10" x1="-343.406" y1="461.985" x2="-290.906" y2="467.985"/>
		<line fill="none" stroke="#3C948B" stroke-miterlimit="10" x1="-325.656" y1="507.485" x2="-405.273" y2="497.985"/>
		<line fill="none" stroke="#3C948B" stroke-miterlimit="10" x1="-392.089" y1="423.517" x2="-317.156" y2="421.735"/>
		<line fill="none" stroke="#3C948B" stroke-miterlimit="10" x1="-335.906" y1="365.235" x2="-410.156" y2="426.735"/>
		<line fill="none" stroke="#3C948B" stroke-miterlimit="10" x1="-325.656" y1="508.485" x2="-319.156" y2="422.626"/>
		<line fill="none" stroke="#3C948B" stroke-miterlimit="10" x1="-307.656" y1="524.235" x2="-325.656" y2="508.485"/>
		<line fill="none" stroke="#3C948B" stroke-miterlimit="10" x1="-306.406" y1="524.235" x2="-290.906" y2="467.985"/>
		<line fill="none" stroke="#3C948B" stroke-miterlimit="10" x1="-290.906" y1="467.985" x2="-320.656" y2="408.235"/>
		<line fill="none" stroke="#3C948B" stroke-miterlimit="10" x1="-296.656" y1="310.235" x2="-335.906" y2="365.235"/>
		<line fill="none" stroke="#3C948B" stroke-miterlimit="10" x1="-335.906" y1="365.235" x2="-319.554" y2="410.45"/>
		<line fill="none" stroke="#3C948B" stroke-miterlimit="10" x1="-319.554" y1="410.45" x2="-379.656" y2="363.735"/>
		<line fill="none" stroke="#3C948B" stroke-miterlimit="10" x1="-379.656" y1="363.735" x2="-330.156" y2="340.735"/>
		<line fill="none" stroke="#3C948B" stroke-miterlimit="10" x1="-296.656" y1="232.235" x2="-333.656" y2="237.235"/>
	</g>
	<g>
		<rect x="-392" y="296" fill="#FFFFFF" width="47" height="30"/>
		<path d="M-392.803,294.984v32.619h49.424v-32.619H-392.803z M-346.977,296.961l-21.113,17.977l-21.115-17.977H-346.977z
			 M-390.826,298.177l14.85,12.64l-14.85,13.977V298.177z M-388.827,325.627l14.365-13.521l6.372,5.423l6.37-5.423l14.366,13.521
			H-388.827z M-345.355,324.793l-14.85-13.977l14.85-12.64V324.793z"/>
	</g>
	<path fill="#FFFFFF" d="M-361.723,482.701c10.073-3.358,17.337-12.863,17.34-24.067c0-14.021-11.358-25.381-25.377-25.381
		c-14.016,0-25.379,11.359-25.379,25.381c0,11.207,7.268,20.718,17.354,24.073c1.269,0.231,1.733-0.556,1.733-1.225
		c0-0.603-0.02-2.196-0.035-4.317c-7.058,1.534-8.547-3.4-8.547-3.4c-1.151-2.93-2.816-3.708-2.816-3.708
		c-2.303-1.577,0.176-1.545,0.176-1.545c2.549,0.177,3.888,2.612,3.888,2.612c2.262,3.881,5.938,2.756,7.387,2.108
		c0.229-1.64,0.883-2.755,1.607-3.39c-5.637-0.639-11.558-2.821-11.558-12.543c0-2.767,0.986-5.035,2.607-6.807
		c-0.258-0.645-1.129-3.226,0.253-6.72c0,0,2.127-0.68,6.976,2.605c2.023-0.564,4.198-0.848,6.354-0.855
		c2.156,0.008,4.329,0.291,6.353,0.855c4.848-3.285,6.976-2.605,6.976-2.605c1.382,3.496,0.512,6.075,0.25,6.72
		c1.621,1.772,2.608,4.039,2.608,6.807c0,9.752-5.936,11.897-11.59,12.523c0.911,0.785,1.725,2.331,1.725,4.699
		c0,3.394-0.03,6.129-0.03,6.961C-363.469,482.162-363.009,482.949-361.723,482.701z"/>
	<g>
		<circle fill="#3C948B" cx="-352.781" cy="185.235" r="7"/>
		<circle fill="#3C948B" cx="-315.281" cy="257.235" r="3.5"/>
		<circle fill="#3C948B" cx="-402.281" cy="227.235" r="5"/>
		<circle fill="#3C948B" cx="-339.781" cy="136.235" r="6"/>
		<circle fill="#3C948B" cx="-325.781" cy="37.735" r="8"/>
		<circle fill="#3C948B" cx="-345.781" cy="42.735" r="6"/>
		<circle fill="#3C948B" cx="-356.281" cy="100.735" r="3.5"/>
		<circle fill="#3C948B" cx="-405.781" cy="123.735" r="5.75"/>
		<circle fill="#3C948B" cx="-439.281" cy="232.235" r="4.5"/>
		<circle fill="#3C948B" cx="-439.281" cy="154.235" r="7"/>
		<circle fill="#3C948B" cx="-400.031" cy="99.235" r="5"/>
		<circle fill="#3C948B" cx="-415.281" cy="54.235" r="4.25"/>
		<circle fill="#3C948B" cx="-416.781" cy="42.735" r="6.5"/>
		<line fill="none" stroke="#3C948B" stroke-miterlimit="10" x1="-315.281" y1="257.235" x2="-352.781" y2="185.235"/>
		<line fill="none" stroke="#3C948B" stroke-miterlimit="10" x1="-296.281" y1="116.735" x2="-356.281" y2="189.235"/>
		<line fill="none" stroke="#3C948B" stroke-miterlimit="10" x1="-296.281" y1="116.735" x2="-356.281" y2="100.735"/>
		<line fill="none" stroke="#3C948B" stroke-miterlimit="10" x1="-296.281" y1="116.735" x2="-345.781" y2="42.735"/>
		<line fill="none" stroke="#3C948B" stroke-miterlimit="10" x1="-315.281" y1="257.235" x2="-402.281" y2="227.235"/>
		<line fill="none" stroke="#3C948B" stroke-miterlimit="10" x1="-402.281" y1="227.235" x2="-354.419" y2="186.985"/>
		<line fill="none" stroke="#3C948B" stroke-miterlimit="10" x1="-402.281" y1="227.235" x2="-405.781" y2="123.735"/>
		<line fill="none" stroke="#3C948B" stroke-miterlimit="10" x1="-352.971" y1="185.235" x2="-405.781" y2="123.735"/>
		<line fill="none" stroke="#3C948B" stroke-miterlimit="10" x1="-352.971" y1="185.235" x2="-356.281" y2="100.735"/>
		<line fill="none" stroke="#3C948B" stroke-miterlimit="10" x1="-339.781" y1="136.235" x2="-400.031" y2="99.235"/>
		<line fill="none" stroke="#3C948B" stroke-miterlimit="10" x1="-339.781" y1="136.235" x2="-442.281" y2="154.235"/>
		<line fill="none" stroke="#3C948B" stroke-miterlimit="10" x1="-405.781" y1="123.735" x2="-439.281" y2="156.485"/>
		<line fill="none" stroke="#3C948B" stroke-miterlimit="10" x1="-405.781" y1="123.735" x2="-416.781" y2="54.235"/>
		<line fill="none" stroke="#3C948B" stroke-miterlimit="10" x1="-415.281" y1="54.235" x2="-416.781" y2="42.735"/>
		<line fill="none" stroke="#3C948B" stroke-miterlimit="10" x1="-415.281" y1="54.235" x2="-345.781" y2="42.735"/>
		<line fill="none" stroke="#3C948B" stroke-miterlimit="10" x1="-343.281" y1="42.735" x2="-358.781" y2="101.985"/>
		<path fill="none" stroke="#3C948B" stroke-miterlimit="10" d="M-339.781,136.235"/>
		<path fill="none" stroke="#3C948B" stroke-miterlimit="10" d="M-325.781,37.735"/>
		<line fill="none" stroke="#3C948B" stroke-miterlimit="10" x1="-294.781" y1="-4.265" x2="-345.781" y2="42.735"/>
		<line fill="none" stroke="#3C948B" stroke-miterlimit="10" x1="-340.637" y1="136.386" x2="-325.781" y2="37.735"/>
		<line fill="none" stroke="#3C948B" stroke-miterlimit="10" x1="-325.781" y1="37.735" x2="-327.531" y2="-16.237"/>
		<line fill="none" stroke="#3C948B" stroke-miterlimit="10" x1="-342.867" y1="-20.848" x2="-416.781" y2="43.985"/>
		<line fill="none" stroke="#3C948B" stroke-miterlimit="10" x1="-345.781" y1="42.735" x2="-392.531" y2="2.485"/>
		<line fill="none" stroke="#3C948B" stroke-miterlimit="10" x1="-392.531" y1="2.485" x2="-416.781" y2="54.235"/>
		<line fill="none" stroke="#3C948B" stroke-miterlimit="10" x1="-392.531" y1="2.485" x2="-358.781" y2="-23.81"/>
		<line fill="none" stroke="#3C948B" stroke-miterlimit="10" x1="-392.531" y1="2.485" x2="-391.411" y2="-20.848"/>
		<line fill="none" stroke="#3C948B" stroke-miterlimit="10" x1="-392.531" y1="2.485" x2="-409.656" y2="-26.326"/>
		<line fill="none" stroke="#3C948B" stroke-miterlimit="10" x1="-392.531" y1="2.485" x2="-433.906" y2="-2.243"/>
		<line fill="none" stroke="#3C948B" stroke-miterlimit="10" x1="-343.849" y1="40.954" x2="-418.781" y2="42.735"/>
		<line fill="none" stroke="#3C948B" stroke-miterlimit="10" x1="-400.031" y1="99.235" x2="-325.781" y2="37.735"/>
		<line fill="none" stroke="#3C948B" stroke-miterlimit="10" x1="-439.281" y1="154.235" x2="-400.031" y2="99.235"/>
		<line fill="none" stroke="#3C948B" stroke-miterlimit="10" x1="-400.031" y1="99.235" x2="-416.384" y2="54.021"/>
		<line fill="none" stroke="#3C948B" stroke-miterlimit="10" x1="-416.384" y1="54.021" x2="-356.281" y2="100.735"/>
		<line fill="none" stroke="#3C948B" stroke-miterlimit="10" x1="-356.281" y1="100.735" x2="-405.781" y2="123.735"/>
		<line fill="none" stroke="#3C948B" stroke-miterlimit="10" x1="-439.281" y1="151.985" x2="-439.281" y2="232.235"/>
		<line fill="none" stroke="#3C948B" stroke-miterlimit="10" x1="-439.281" y1="232.235" x2="-402.281" y2="227.235"/>
		<line fill="none" stroke="#3C948B" stroke-miterlimit="10" x1="-402.281" y1="227.235" x2="-457.781" y2="179.485"/>
	</g>
	<path fill="#FFFFFF" stroke="#FFFFFF" stroke-width="2" stroke-miterlimit="10" d="M-461-26v553h173V-26H-461z M-413,1h83v83h-83V1
		z M-330,500h-83v-83h83V500z M-329,353h-83v-83h83V353z M-329,221h-83v-83h83V221z"/>
	<path fill="#FFFFFF" d="M-393.891,57.046c4.348,2.786,9.512,4.412,15.062,4.412c18.071,0,27.953-14.968,27.953-27.952
		c0-0.424-0.011-0.849-0.026-1.272c1.915-1.384,3.58-3.114,4.901-5.083c-1.763,0.781-3.657,1.311-5.644,1.548
		c2.028-1.217,3.589-3.14,4.32-5.436c-1.896,1.126-3.996,1.944-6.237,2.385c-1.791-1.911-4.346-3.104-7.171-3.104
		c-5.429,0-9.827,4.4-9.827,9.825c0,0.771,0.086,1.52,0.255,2.238c-8.165-0.408-15.403-4.319-20.251-10.267
		c-0.848,1.455-1.331,3.141-1.331,4.941c0,3.408,1.716,6.417,4.352,8.178c-1.608-0.051-3.466-0.494-4.466-1.229v0.124
		c0,4.76,3.404,8.731,7.898,9.634c-0.823,0.223-1.686,0.346-2.582,0.346c-0.632,0-1.244-0.064-1.842-0.18
		c1.248,3.904,4.879,6.742,9.178,6.824c-3.361,2.636-7.594,4.206-12.201,4.206C-392.342,57.185-393.122,57.136-393.891,57.046z"/>
	<path fill="#FFFFFF" d="M-374,166.455V173h-7v8h7v23h10v-23h6.731l1.11-8H-364v-5.693c0-2.493,0.209-4.307,3.783-4.307H-356v-7.589
		c-1-0.105-3.633-0.34-6.785-0.34C-369.359,155.071-374,159.085-374,166.455z"/>
</g>
<g>
	<rect x="2" y="270" stroke="#000000" stroke-width="2" stroke-miterlimit="10" width="83" height="83"/>
	<g>
		<rect x="20" y="296" fill="#FFFFFF" width="47" height="30"/>
		<path d="M19.197,294.984v32.619h49.424v-32.619H19.197z M65.023,296.961L43.91,314.938l-21.115-17.977H65.023z M21.174,298.177
			l14.85,12.64l-14.85,13.977V298.177z M23.173,325.627l14.365-13.521l6.372,5.423l6.37-5.423l14.366,13.521H23.173z
			 M66.645,324.793l-14.85-13.977l14.85-12.64V324.793z"/>
	</g>
</g>
<g>
	<rect x="1" y="417" stroke="#000000" stroke-width="2" stroke-miterlimit="10" width="83" height="83"/>
	<path fill="#FFFFFF" d="M50.277,482.701c10.073-3.358,17.337-12.863,17.34-24.067c0-14.021-11.358-25.381-25.377-25.381
		c-14.016,0-25.379,11.359-25.379,25.381c0,11.207,7.268,20.718,17.354,24.073c1.269,0.231,1.733-0.556,1.733-1.225
		c0-0.603-0.02-2.196-0.035-4.317c-7.058,1.534-8.547-3.4-8.547-3.4c-1.151-2.93-2.816-3.708-2.816-3.708
		c-2.303-1.577,0.176-1.545,0.176-1.545c2.549,0.177,3.888,2.612,3.888,2.612c2.262,3.881,5.938,2.756,7.387,2.108
		c0.229-1.64,0.883-2.755,1.607-3.39c-5.637-0.639-11.558-2.821-11.558-12.543c0-2.767,0.986-5.035,2.607-6.807
		c-0.258-0.645-1.129-3.226,0.253-6.72c0,0,2.127-0.68,6.976,2.605c2.023-0.564,4.198-0.848,6.354-0.855
		c2.156,0.008,4.329,0.291,6.353,0.855c4.848-3.285,6.976-2.605,6.976-2.605c1.382,3.496,0.512,6.075,0.25,6.72
		c1.621,1.772,2.608,4.039,2.608,6.807c0,9.752-5.936,11.897-11.59,12.523c0.911,0.785,1.725,2.331,1.725,4.699
		c0,3.394-0.03,6.129-0.03,6.961C48.531,482.162,48.991,482.949,50.277,482.701z"/>
</g>
<g>
	<rect x="1" y="1" stroke="#000000" stroke-width="2" stroke-miterlimit="10" width="83" height="83"/>
	<path fill="#FFFFFF" d="M18.109,57.046c4.348,2.786,9.512,4.412,15.062,4.412c18.071,0,27.953-14.968,27.953-27.952
		c0-0.424-0.011-0.849-0.026-1.272c1.915-1.384,3.58-3.114,4.901-5.083c-1.763,0.781-3.657,1.311-5.644,1.548
		c2.028-1.217,3.589-3.14,4.32-5.436c-1.896,1.126-3.996,1.944-6.237,2.385c-1.791-1.911-4.346-3.104-7.171-3.104
		c-5.429,0-9.827,4.4-9.827,9.825c0,0.771,0.086,1.52,0.255,2.238c-8.165-0.408-15.403-4.319-20.251-10.267
		c-0.848,1.455-1.331,3.141-1.331,4.941c0,3.408,1.716,6.417,4.352,8.178C22.857,37.409,21,36.966,20,36.23v0.124
		c0,4.76,3.404,8.731,7.898,9.634c-0.823,0.223-1.686,0.346-2.582,0.346c-0.632,0-1.244-0.064-1.842-0.18
		c1.248,3.904,4.879,6.742,9.178,6.824c-3.361,2.636-7.594,4.206-12.201,4.206C19.658,57.185,18.878,57.136,18.109,57.046z"/>
</g>
<g>
	<rect x="2" y="138" stroke="#000000" stroke-width="2" stroke-miterlimit="10" width="83" height="83"/>
	<path fill="#FFFFFF" d="M38,166.455V173h-7v8h7v23h10v-23h6.731l1.11-8H48v-5.693c0-2.493,0.209-4.307,3.783-4.307H56v-7.589
		c-1-0.105-3.633-0.34-6.785-0.34C42.641,155.071,38,159.085,38,166.455z"/>
</g>
</svg>
